M48
INCH
T1C0.0118
T2C0.0394
T3C0.1063
%
G90
G05
T1
X3.0309Y-3.0383
X3.0513Y-3.0133
X3.0513Y-3.0633
X3.0513Y-3.1133
X3.0513Y-3.1633
X3.0513Y-3.2133
X3.0514Y-2.9633
X3.1013Y-2.9633
X3.1013Y-3.0133
X3.1013Y-3.0633
X3.1013Y-3.1133
X3.1013Y-3.1633
X3.1013Y-3.2133
X3.1513Y-2.9133
X3.1513Y-3.0133
X3.1513Y-3.1133
X3.1513Y-3.1633
X3.1513Y-3.2133
X3.1513Y-3.2633
X3.1514Y-2.9633
X3.155Y-3.79
X3.2Y-3.79
X3.2009Y-4.5383
X3.2013Y-3.3133
X3.2014Y-2.9133
X3.2014Y-3.0633
X3.2014Y-3.1633
X3.2014Y-3.2133
X3.2021Y-2.8627
X3.2209Y-4.5133
X3.2209Y-4.5633
X3.2209Y-4.6133
X3.2209Y-4.6633
X3.2209Y-4.7133
X3.2209Y-4.4633
X3.25Y-3.79
X3.2513Y-3.2133
X3.2514Y-2.9133
X3.2514Y-2.9633
X3.2709Y-4.4633
X3.2709Y-4.5133
X3.2709Y-4.5633
X3.2709Y-4.6133
X3.2709Y-4.6633
X3.2709Y-4.7133
X3.295Y-3.79
X3.3013Y-2.9133
X3.3013Y-3.0133
X3.3013Y-3.1133
X3.3013Y-3.1633
X3.3013Y-3.2133
X3.3013Y-3.3133
X3.3014Y-3.0633
X3.3209Y-4.4133
X3.3209Y-4.5133
X3.3209Y-4.6133
X3.3209Y-4.6633
X3.3209Y-4.7133
X3.3209Y-4.7633
X3.3209Y-4.4633
X3.3509Y-2.9633
X3.3509Y-3.3633
X3.3509Y-3.79
X3.3509Y-4.1933
X3.3514Y-3.1133
X3.3709Y-4.8133
X3.3709Y-4.4133
X3.3709Y-4.5633
X3.3709Y-4.6633
X3.3709Y-4.7133
X3.4009Y-2.9633
X3.4009Y-3.0633
X3.4009Y-3.3633
X3.4009Y-3.79
X3.4009Y-4.1933
X3.4013Y-3.3133
X3.4209Y-4.7133
X3.4209Y-4.4133
X3.4209Y-4.4633
X3.4509Y-3.0633
X3.4509Y-3.3633
X3.4509Y-3.79
X3.4509Y-4.1933
X3.4513Y-2.9133
X3.4513Y-3.0133
X3.4513Y-3.1133
X3.4513Y-3.2133
X3.4514Y-3.1633
X3.4709Y-4.4133
X3.4709Y-4.5133
X3.4709Y-4.6133
X3.4709Y-4.6633
X3.4709Y-4.7133
X3.4709Y-4.8133
X3.4709Y-4.5633
X3.5Y-3.79
X3.5Y-4.1933
X3.5009Y-2.9633
X3.5013Y-3.3133
X3.5209Y-4.4133
X3.5209Y-4.4633
X3.5509Y-2.9633
X3.5509Y-3.3633
X3.5509Y-3.79
X3.5509Y-4.1933
X3.5514Y-3.0633
X3.5709Y-4.8133
X3.5709Y-4.4133
X3.5709Y-4.4633
X3.5709Y-4.5633
X3.6009Y-3.3633
X3.6009Y-3.79
X3.6009Y-4.1933
X3.6013Y-2.9133
X3.6013Y-3.0133
X3.6013Y-3.1133
X3.6013Y-3.3133
X3.6014Y-2.9633
X3.6014Y-3.0633
X3.6209Y-4.4133
X3.6209Y-4.5133
X3.6209Y-4.6133
X3.6209Y-4.7133
X3.6209Y-4.5633
X3.6509Y-3.3633
X3.6509Y-3.79
X3.6509Y-4.1933
X3.6513Y-3.2133
X3.6514Y-2.9633
X3.6514Y-3.0633
X3.6709Y-4.8133
X3.6709Y-4.4133
X3.6709Y-4.4633
X3.7009Y-3.3633
X3.7009Y-3.79
X3.7009Y-4.1933
X3.7013Y-3.3133
X3.7014Y-3.0633
X3.7014Y-3.1633
X3.7209Y-4.4133
X3.7209Y-4.4633
X3.7209Y-4.5633
X3.7509Y-3.2133
X3.7509Y-3.3633
X3.7509Y-3.79
X3.7509Y-4.1933
X3.7513Y-2.9133
X3.7513Y-3.0133
X3.7513Y-3.1133
X3.7514Y-2.9633
X3.7514Y-3.1633
X3.7514Y-3.2633
X3.7709Y-4.4133
X3.7709Y-4.5133
X3.7709Y-4.6133
X3.7709Y-4.8133
X3.7709Y-4.4633
X3.7709Y-4.5633
X3.8009Y-3.3633
X3.8009Y-3.79
X3.8009Y-4.1933
X3.8013Y-3.3133
X3.8014Y-2.9633
X3.8014Y-3.0633
X3.8014Y-3.2633
X3.8209Y-4.7133
X3.8209Y-4.4633
X3.8209Y-4.5633
X3.8509Y-3.3633
X3.8509Y-3.79
X3.8509Y-4.1933
X3.8513Y-3.2133
X3.8514Y-3.0633
X3.8514Y-3.1633
X3.8709Y-4.8133
X3.8709Y-4.5633
X3.8709Y-4.6633
X3.9009Y-3.2133
X3.9009Y-3.3633
X3.9009Y-3.79
X3.9009Y-4.1933
X3.9013Y-2.9133
X3.9013Y-3.0133
X3.9013Y-3.1133
X3.9013Y-3.3133
X3.9014Y-2.9633
X3.9014Y-3.1633
X3.9014Y-3.2633
X3.9209Y-4.4133
X3.9209Y-4.5133
X3.9209Y-4.6133
X3.9209Y-4.4633
X3.9209Y-4.6633
X3.9209Y-4.7633
X3.9509Y-3.3133
X3.9509Y-3.3633
X3.9509Y-3.79
X3.9509Y-4.1933
X3.9514Y-2.9633
X3.9514Y-3.0633
X3.9514Y-3.2633
X3.9709Y-4.8133
X3.9709Y-4.4133
X3.9709Y-4.4633
X3.9709Y-4.5133
X3.9709Y-4.5633
X3.9709Y-4.7633
X4.0009Y-3.3633
X4.0009Y-3.79
X4.0009Y-4.1933
X4.0013Y-3.2133
X4.0013Y-3.3133
X4.0014Y-3.0633
X4.0014Y-3.1633
X4.0014Y-3.2633
X4.0209Y-4.7133
X4.0209Y-4.4133
X4.0209Y-4.5633
X4.0209Y-4.6633
X4.0509Y-3.3633
X4.0509Y-3.79
X4.0509Y-4.1933
X4.0513Y-2.9133
X4.0513Y-3.0133
X4.0514Y-2.9633
X4.0514Y-3.1633
X4.0514Y-3.2633
X4.0709Y-4.4133
X4.0709Y-4.5133
X4.0709Y-4.6133
X4.0709Y-4.8133
X4.0709Y-4.4633
X4.0709Y-4.6633
X4.0709Y-4.7633
X4.1009Y-3.3633
X4.1009Y-3.79
X4.1009Y-4.1933
X4.1013Y-3.2133
X4.1013Y-3.3133
X4.1014Y-2.9633
X4.1014Y-3.0633
X4.1014Y-3.2633
X4.1209Y-4.4133
X4.1209Y-4.4633
X4.1209Y-4.5133
X4.1209Y-4.5633
X4.1209Y-4.7633
X4.1509Y-3.3633
X4.1509Y-3.79
X4.1509Y-4.1933
X4.1514Y-3.0633
X4.1514Y-3.1633
X4.1514Y-3.2633
X4.1709Y-4.7133
X4.1709Y-4.8133
X4.1709Y-4.4133
X4.1709Y-4.5633
X4.1709Y-4.6633
X4.1709Y-4.7633
X4.2009Y-3.3633
X4.2009Y-3.79
X4.2009Y-4.1933
X4.2013Y-2.9133
X4.2013Y-3.0133
X4.2013Y-3.1133
X4.2013Y-3.3133
X4.2014Y-2.9633
X4.2014Y-3.1633
X4.2209Y-4.4133
X4.2209Y-4.5133
X4.2209Y-4.4633
X4.2209Y-4.6633
X4.2209Y-4.7633
X4.2509Y-3.3633
X4.2509Y-3.79
X4.2509Y-4.1933
X4.2513Y-3.2133
X4.2514Y-2.9633
X4.2514Y-3.0633
X4.2709Y-4.7133
X4.2709Y-4.8133
X4.2709Y-4.4133
X4.2709Y-4.4633
X4.2709Y-4.5633
X4.2709Y-4.7633
X4.3009Y-3.3633
X4.3009Y-3.79
X4.3009Y-4.1933
X4.3013Y-3.3133
X4.3014Y-3.0633
X4.3014Y-3.1633
X4.3209Y-4.4133
X4.3209Y-4.5133
X4.3209Y-4.5633
X4.3209Y-4.6133
X4.3209Y-4.6633
X4.3209Y-4.7633
X4.3509Y-3.2133
X4.3509Y-3.3633
X4.3509Y-3.79
X4.3509Y-4.1933
X4.3513Y-2.9133
X4.3513Y-3.0133
X4.3513Y-3.1133
X4.3514Y-2.9633
X4.3514Y-3.1633
X4.3514Y-3.2633
X4.3709Y-4.4133
X4.3709Y-4.5133
X4.3709Y-4.6133
X4.3709Y-4.8133
X4.3709Y-4.4633
X4.3709Y-4.6633
X4.4009Y-3.3633
X4.4009Y-3.79
X4.4009Y-4.1933
X4.4013Y-3.3133
X4.4014Y-2.9633
X4.4014Y-3.0633
X4.4014Y-3.2633
X4.4209Y-4.7133
X4.4209Y-4.4133
X4.4209Y-4.4633
X4.4209Y-4.5633
X4.4509Y-3.3633
X4.4509Y-3.79
X4.4509Y-4.1933
X4.4513Y-3.2133
X4.4514Y-3.0633
X4.4514Y-3.1633
X4.4709Y-4.8133
X4.4709Y-4.4133
X4.4709Y-4.5633
X4.4709Y-4.6633
X4.5009Y-3.3633
X4.5009Y-3.79
X4.5009Y-4.1933
X4.5013Y-2.9133
X4.5013Y-3.0133
X4.5013Y-3.1133
X4.5013Y-3.3133
X4.5014Y-3.1633
X4.5014Y-3.2633
X4.5209Y-4.4133
X4.5209Y-4.5133
X4.5209Y-4.6133
X4.5209Y-4.4633
X4.5209Y-4.6633
X4.5209Y-4.7633
X4.5509Y-3.3633
X4.5509Y-3.79
X4.5509Y-4.1933
X4.5514Y-2.9633
X4.5514Y-3.2633
X4.5709Y-4.8133
X4.5709Y-4.4133
X4.5709Y-4.4633
X4.5709Y-4.5133
X4.5709Y-4.5633
X4.5709Y-4.7633
X4.6009Y-3.3633
X4.6009Y-3.79
X4.6009Y-4.1933
X4.6013Y-3.2133
X4.6013Y-3.3133
X4.6014Y-2.9633
X4.6014Y-3.0633
X4.6209Y-4.7133
X4.6209Y-4.4133
X4.6209Y-4.5633
X4.6209Y-4.6633
X4.6509Y-3.3633
X4.6509Y-3.79
X4.6509Y-4.1933
X4.6513Y-2.9133
X4.6513Y-3.0133
X4.6513Y-3.1133
X4.6514Y-3.0633
X4.6514Y-3.1633
X4.6709Y-4.4133
X4.6709Y-4.5133
X4.6709Y-4.6133
X4.6709Y-4.8133
X4.6709Y-4.6633
X4.6709Y-4.7633
X4.7009Y-3.3633
X4.7009Y-3.79
X4.7009Y-4.1933
X4.7013Y-3.2133
X4.7013Y-3.3133
X4.7014Y-3.0133
X4.7014Y-3.1633
X4.7209Y-4.4133
X4.7209Y-4.4633
X4.7209Y-4.7633
X4.7509Y-3.3633
X4.7509Y-3.79
X4.7509Y-4.1933
X4.7514Y-3.0133
X4.7514Y-3.0633
X4.7709Y-4.7133
X4.7709Y-4.8133
X4.7709Y-4.4133
X4.7709Y-4.4633
X4.7709Y-4.5633
X4.8009Y-3.3633
X4.8009Y-3.79
X4.8009Y-4.1933
X4.8013Y-2.9133
X4.8013Y-3.0133
X4.8013Y-3.1133
X4.8013Y-3.2133
X4.8013Y-3.3133
X4.8014Y-2.9633
X4.8014Y-3.0633
X4.8209Y-4.4133
X4.8209Y-4.5133
X4.8209Y-4.6133
X4.8209Y-4.5633
X4.8209Y-4.6633
X4.8509Y-3.3633
X4.8509Y-3.79
X4.8509Y-4.1933
X4.8514Y-2.9633
X4.8514Y-3.1633
X4.8709Y-4.7133
X4.8709Y-4.8133
X4.8709Y-4.4133
X4.8709Y-4.5133
X4.8709Y-4.6633
X4.9009Y-3.3633
X4.9009Y-3.79
X4.9009Y-4.1933
X4.9013Y-2.9133
X4.9013Y-3.0133
X4.9013Y-3.1133
X4.9013Y-3.2133
X4.9013Y-3.3133
X4.9014Y-3.1633
X4.9209Y-4.4133
X4.9209Y-4.5133
X4.9209Y-4.5633
X4.9709Y-4.4133
X4.9709Y-4.5133
X4.9709Y-4.6133
X4.9709Y-4.7133
X4.9709Y-4.8133
X4.9709Y-4.4633
X4.9709Y-4.5633
X5.0013Y-2.9133
X5.0013Y-3.0133
X5.0013Y-3.1133
X5.0013Y-3.2133
X5.0013Y-3.3133
X5.0209Y-4.4133
X5.0209Y-4.4633
X5.0209Y-4.6633
X5.0709Y-4.4133
X5.0709Y-4.5133
X5.0709Y-4.6133
X5.0709Y-4.7133
X5.0709Y-4.8133
X5.0709Y-4.6633
X5.076Y-4.1866
X5.1209Y-4.5633
X5.126Y-4.1866
X5.1709Y-4.4133
X5.1709Y-4.5133
X5.1709Y-4.6133
X5.1709Y-4.7133
X5.1709Y-4.8133
X5.1709Y-4.5633
X5.375Y-4.345
X5.3909Y-3.3033
X5.3909Y-3.3383
X5.3909Y-3.6083
X5.3909Y-3.6433
X5.4259Y-3.3033
X5.4259Y-3.3383
X5.4259Y-3.6083
X5.4259Y-3.6433
X5.4268Y-4.345
X5.4859Y-3.4533
X5.4859Y-3.4883
X5.5209Y-3.4533
X5.5209Y-3.4883
X5.576Y-4.1303
X5.626Y-4.1303
X5.6319Y-4.8378
X5.6319Y-4.8886
X5.9559Y-4.5383
X5.9769Y-4.4633
X5.9769Y-4.5133
X5.9769Y-4.5633
X5.9769Y-4.6133
X5.9769Y-4.6633
X5.9769Y-4.7133
X6.0269Y-4.4633
X6.0269Y-4.5133
X6.0269Y-4.5633
X6.0269Y-4.6133
X6.0269Y-4.6633
X6.0269Y-4.7133
X6.0769Y-4.4133
X6.0769Y-4.5133
X6.0769Y-4.6133
X6.0769Y-4.6633
X6.0769Y-4.7133
X6.0769Y-4.7633
X6.1259Y-3.0383
X6.1269Y-4.6633
X6.1269Y-4.7133
X6.1269Y-4.8133
X6.1465Y-2.9633
X6.1465Y-3.0133
X6.1465Y-3.0633
X6.1465Y-3.1133
X6.1465Y-3.1633
X6.1465Y-3.2133
X6.1769Y-4.7133
X6.1965Y-2.9633
X6.1965Y-3.0133
X6.1965Y-3.0633
X6.1965Y-3.1133
X6.1965Y-3.1633
X6.1965Y-3.2133
X6.2269Y-4.4133
X6.2269Y-4.5133
X6.2269Y-4.6133
X6.2269Y-4.6633
X6.2269Y-4.7133
X6.2269Y-4.8133
X6.2465Y-2.8633
X6.2465Y-2.9133
X6.2465Y-2.9633
X6.2465Y-3.0133
X6.2465Y-3.1133
X6.2465Y-3.1633
X6.2465Y-3.2133
X6.2465Y-3.2633
X6.2965Y-2.9133
X6.2965Y-2.9633
X6.2965Y-3.0633
X6.2965Y-3.1633
X6.2965Y-3.2133
X6.2965Y-3.3133
X6.3269Y-4.8133
X6.3465Y-2.9133
X6.3465Y-3.0633
X6.3465Y-3.2133
X6.3769Y-4.4133
X6.3769Y-4.4633
X6.3769Y-4.5133
X6.3769Y-4.6133
X6.3769Y-4.7133
X6.3965Y-2.9133
X6.3965Y-2.9633
X6.3965Y-3.0133
X6.3965Y-3.1133
X6.3965Y-3.1633
X6.3965Y-3.2133
X6.3965Y-3.3133
X6.3965Y-3.4433
X6.4268Y-4.4133
X6.4269Y-4.4633
X6.4269Y-4.5633
X6.4269Y-4.8133
X6.4465Y-2.9633
X6.4465Y-3.0633
X6.4465Y-3.4433
X6.4709Y-2.8233
X6.4709Y-3.4933
X6.4768Y-4.4133
X6.4769Y-4.5633
X6.4965Y-3.0633
X6.4965Y-3.1633
X6.4965Y-3.3133
X6.5209Y-3.4933
X6.5269Y-4.4133
X6.5269Y-4.4633
X6.5269Y-4.5133
X6.5269Y-4.6133
X6.5269Y-4.8133
X6.5459Y-3.72
X6.5459Y-4.1983
X6.5465Y-2.9133
X6.5465Y-2.9633
X6.5465Y-3.0133
X6.5465Y-3.1133
X6.5465Y-3.1633
X6.5465Y-3.2133
X6.5768Y-4.4133
X6.5769Y-4.4633
X6.5769Y-4.5633
X6.5769Y-4.7133
X6.5965Y-3.7469
X6.5965Y-3.3633
X6.5965Y-4.1983
X6.5965Y-2.9633
X6.5965Y-3.0633
X6.5965Y-3.3133
X6.6268Y-4.4133
X6.6269Y-4.5633
X6.6269Y-4.6633
X6.6269Y-4.8133
X6.6465Y-3.3633
X6.6465Y-3.72
X6.6465Y-4.1983
X6.6465Y-3.0633
X6.6769Y-4.4133
X6.6769Y-4.4633
X6.6769Y-4.5133
X6.6769Y-4.6133
X6.6769Y-4.6633
X6.6769Y-4.7633
X6.6959Y-3.3633
X6.6959Y-3.69
X6.6959Y-4.1983
X6.6965Y-2.9133
X6.6965Y-2.9633
X6.6965Y-3.0133
X6.6965Y-3.1133
X6.6965Y-3.3133
X6.7264Y-4.5133
X6.7268Y-4.4133
X6.7269Y-4.4633
X6.7269Y-4.5633
X6.7269Y-4.7633
X6.7269Y-4.8133
X6.7465Y-3.3633
X6.7465Y-3.72
X6.7465Y-4.1983
X6.7465Y-2.9633
X6.7465Y-3.0633
X6.7465Y-3.2133
X6.7768Y-4.4133
X6.7769Y-4.5633
X6.7769Y-4.6633
X6.7769Y-4.7133
X6.7965Y-3.3633
X6.7965Y-3.72
X6.7965Y-4.1983
X6.7965Y-3.0633
X6.7965Y-3.1633
X6.7965Y-3.3133
X6.8269Y-4.4133
X6.8269Y-4.4633
X6.8269Y-4.5133
X6.8269Y-4.6133
X6.8269Y-4.6633
X6.8269Y-4.7133
X6.8269Y-4.8133
X6.8465Y-3.2133
X6.8465Y-3.3633
X6.8465Y-3.72
X6.8465Y-4.1983
X6.8465Y-2.9133
X6.8465Y-2.9633
X6.8465Y-3.0133
X6.8465Y-3.1133
X6.8465Y-3.1633
X6.8465Y-3.2633
X6.8768Y-4.4133
X6.8769Y-4.4633
X6.8769Y-4.5633
X6.8769Y-4.7133
X6.8772Y-4.5133
X6.8965Y-3.3633
X6.8965Y-3.72
X6.8965Y-4.1983
X6.8965Y-2.9633
X6.8965Y-3.0633
X6.8965Y-3.2633
X6.8965Y-3.3133
X6.9268Y-4.4133
X6.9269Y-4.5633
X6.9269Y-4.6633
X6.9269Y-4.7133
X6.9269Y-4.7633
X6.9269Y-4.8133
X6.9465Y-3.3633
X6.9465Y-3.72
X6.9465Y-4.1983
X6.9465Y-3.0633
X6.9465Y-3.1633
X6.9465Y-3.2133
X6.9769Y-4.4133
X6.9769Y-4.4633
X6.9769Y-4.5133
X6.9769Y-4.6633
X6.9769Y-4.7633
X6.9965Y-3.3633
X6.9965Y-3.7196
X6.9965Y-4.1979
X6.9965Y-2.9133
X6.9965Y-2.9633
X6.9965Y-3.0133
X6.9965Y-3.1133
X6.9965Y-3.1633
X6.9965Y-3.2133
X6.9965Y-3.3133
X7.0268Y-4.4133
X7.0269Y-4.4633
X7.0269Y-4.5633
X7.0269Y-4.7133
X7.0269Y-4.7633
X7.0269Y-4.8133
X7.0465Y-2.9633
X7.0465Y-3.0633
X7.0465Y-3.2133
X7.0467Y-4.1729
X7.047Y-3.3633
X7.0768Y-4.4133
X7.0768Y-4.5133
X7.0769Y-4.5633
X7.0769Y-4.6633
X7.0769Y-4.7633
X7.0772Y-4.6133
X7.0965Y-3.3633
X7.0965Y-3.72
X7.0965Y-4.1983
X7.0965Y-3.0633
X7.0965Y-3.1633
X7.0965Y-3.2133
X7.0965Y-3.2633
X7.0965Y-3.3133
X7.1269Y-4.4133
X7.1269Y-4.4633
X7.1269Y-4.5133
X7.1269Y-4.6133
X7.1269Y-4.6633
X7.1269Y-4.8133
X7.1465Y-3.3633
X7.1465Y-3.72
X7.1465Y-4.1983
X7.1465Y-2.9133
X7.1465Y-2.9633
X7.1465Y-3.0133
X7.1465Y-3.1633
X7.1465Y-3.2633
X7.1768Y-4.4133
X7.1769Y-4.4633
X7.1769Y-4.5633
X7.1769Y-4.7133
X7.1965Y-3.3633
X7.1965Y-3.72
X7.1965Y-4.1983
X7.1965Y-2.9633
X7.1965Y-3.0633
X7.1965Y-3.2133
X7.1965Y-3.2633
X7.1965Y-3.3133
X7.2268Y-4.4133
X7.2269Y-4.5633
X7.2269Y-4.6633
X7.2269Y-4.8133
X7.2465Y-3.3633
X7.2465Y-3.72
X7.2465Y-4.1983
X7.2465Y-3.0633
X7.2465Y-3.1633
X7.2465Y-3.2633
X7.2769Y-4.4133
X7.2769Y-4.4633
X7.2769Y-4.5133
X7.2769Y-4.6133
X7.2769Y-4.6633
X7.2769Y-4.7633
X7.2965Y-3.3633
X7.2965Y-3.72
X7.2965Y-4.1983
X7.2965Y-2.9133
X7.2965Y-2.9633
X7.2965Y-3.0133
X7.2965Y-3.1133
X7.2965Y-3.1633
X7.2965Y-3.3133
X7.3268Y-4.4133
X7.3268Y-4.5133
X7.3269Y-4.4633
X7.3269Y-4.5633
X7.3269Y-4.7633
X7.3269Y-4.8133
X7.3465Y-3.3633
X7.3465Y-3.72
X7.3465Y-4.1983
X7.3465Y-2.9633
X7.3465Y-3.0633
X7.3465Y-3.2133
X7.3768Y-4.4133
X7.3769Y-4.5633
X7.3769Y-4.6633
X7.3769Y-4.7133
X7.3965Y-3.3633
X7.3965Y-3.72
X7.3965Y-4.1983
X7.3965Y-3.0633
X7.3965Y-3.1633
X7.3965Y-3.3133
X7.4269Y-4.4133
X7.4269Y-4.5133
X7.4269Y-4.6133
X7.4269Y-4.6633
X7.4269Y-4.7633
X7.4269Y-4.8133
X7.4465Y-3.2133
X7.4465Y-3.3633
X7.4465Y-3.72
X7.4465Y-4.1983
X7.4465Y-2.9133
X7.4465Y-2.9633
X7.4465Y-3.0133
X7.4465Y-3.1133
X7.4465Y-3.1633
X7.4465Y-3.2633
X7.4768Y-4.4133
X7.4769Y-4.4633
X7.4769Y-4.7633
X7.4965Y-3.3633
X7.4965Y-3.72
X7.4965Y-4.1983
X7.4965Y-2.9633
X7.4965Y-3.0633
X7.4965Y-3.2633
X7.4965Y-3.3133
X7.5268Y-4.4133
X7.5269Y-4.4633
X7.5269Y-4.5633
X7.5269Y-4.7133
X7.5269Y-4.8133
X7.5465Y-3.3633
X7.5465Y-3.72
X7.5465Y-4.1983
X7.5465Y-3.0633
X7.5465Y-3.1633
X7.5465Y-3.2133
X7.5769Y-4.4133
X7.5769Y-4.5133
X7.5769Y-4.5633
X7.5769Y-4.6133
X7.5769Y-4.6633
X7.5965Y-3.3633
X7.5965Y-3.72
X7.5965Y-4.1983
X7.5965Y-2.9133
X7.5965Y-3.0133
X7.5965Y-3.1133
X7.5965Y-3.1633
X7.5965Y-3.2633
X7.5965Y-3.3133
X7.6268Y-4.4133
X7.6269Y-4.4633
X7.6269Y-4.6633
X7.6269Y-4.7133
X7.6269Y-4.8133
X7.6465Y-3.3633
X7.6465Y-3.72
X7.6465Y-4.1983
X7.6465Y-2.9633
X7.6465Y-3.2633
X7.6768Y-4.4133
X7.6769Y-4.4633
X7.6769Y-4.5633
X7.6965Y-3.3633
X7.6965Y-3.72
X7.6965Y-4.1983
X7.6965Y-2.9633
X7.6965Y-3.0633
X7.6965Y-3.2133
X7.6965Y-3.3133
X7.7269Y-4.4133
X7.7269Y-4.5133
X7.7269Y-4.5633
X7.7269Y-4.6133
X7.7269Y-4.6633
X7.7269Y-4.7133
X7.7269Y-4.8133
X7.7465Y-3.3633
X7.7465Y-3.72
X7.7465Y-4.1983
X7.7465Y-2.9133
X7.7465Y-3.0133
X7.7465Y-3.0633
X7.7465Y-3.1133
X7.7465Y-3.1633
X7.7768Y-4.4133
X7.7769Y-4.4633
X7.7769Y-4.6633
X7.7965Y-3.3633
X7.7965Y-3.72
X7.7965Y-4.1983
X7.7965Y-2.9633
X7.7965Y-3.1633
X7.7965Y-3.2133
X7.7965Y-3.3133
X7.8269Y-4.4133
X7.8269Y-4.4633
X7.8269Y-4.5133
X7.8269Y-4.6133
X7.8269Y-4.7133
X7.8269Y-4.8133
X7.8465Y-3.3633
X7.8465Y-3.72
X7.8465Y-4.1983
X7.8465Y-2.9633
X7.8465Y-3.0633
X7.8759Y-4.4133
X7.8769Y-4.5633
X7.8965Y-3.72
X7.8965Y-2.9133
X7.8965Y-3.0133
X7.8965Y-3.0633
X7.8965Y-3.1133
X7.8965Y-3.1633
X7.8965Y-3.2133
X7.8965Y-3.3133
X7.9109Y-4.2633
X7.9269Y-4.4133
X7.9269Y-4.5133
X7.9269Y-4.5633
X7.9269Y-4.6133
X7.9269Y-4.7133
X7.9269Y-4.8133
X7.9465Y-3.72
X7.9465Y-4.1983
X7.9465Y-2.9633
X7.9465Y-3.1633
X7.9509Y-4.2633
X7.9709Y-4.2233
X7.9965Y-2.9133
X7.9965Y-2.9633
X7.9965Y-3.0133
X7.9965Y-3.1133
X7.9965Y-3.2133
X7.9965Y-3.3133
X8.0109Y-4.2233
X8.0409Y-3.72
X8.0409Y-4.198
X8.0909Y-3.72
X8.0909Y-4.198
X8.0965Y-2.9133
X8.0965Y-3.0133
X8.0965Y-3.1133
X8.0965Y-3.2133
X8.0965Y-3.3133
T2
X5.0509Y-3.7629
X5.0509Y-3.8629
X5.1509Y-3.7629
X5.1509Y-3.8629
X5.2509Y-3.7629
X5.2509Y-3.8629
X5.3509Y-3.7629
X5.3509Y-3.8629
X5.3509Y-4.1833
X5.3509Y-4.2833
X5.4509Y-3.7629
X5.4509Y-3.8629
X5.4509Y-4.1833
X5.4509Y-4.2833
X5.5509Y-3.7629
X5.5509Y-3.8629
X5.5509Y-4.1833
X5.5509Y-4.2833
X5.6509Y-3.7629
X5.6509Y-3.8629
X5.6509Y-4.1833
X5.6509Y-4.2833
X5.7509Y-3.7629
X5.7509Y-3.8629
X5.7509Y-4.1833
X5.7509Y-4.2833
X5.8509Y-3.7629
X5.8509Y-3.8629
X5.8509Y-4.1833
X5.8509Y-4.2833
X5.9509Y-3.7629
X5.9509Y-3.8629
X6.0509Y-3.7629
X6.0509Y-3.8629
X6.1509Y-3.7629
X6.1509Y-3.8629
T3
X2.8113Y-3.0343
X2.9809Y-4.5343
X5.2913Y-3.0343
X5.4609Y-4.5343
X5.7369Y-4.5343
X5.9065Y-3.0343
X8.2169Y-4.5343
X8.3865Y-3.0343
M30
