%TF.GenerationSoftware,KiCad,Pcbnew,7.0.10*%
%TF.CreationDate,2024-12-16T23:30:14-07:00*%
%TF.ProjectId,DRXDaughterboard,44525844-6175-4676-9874-6572626f6172,1.1*%
%TF.SameCoordinates,Original*%
%TF.FileFunction,Soldermask,Bot*%
%TF.FilePolarity,Negative*%
%FSLAX46Y46*%
G04 Gerber Fmt 4.6, Leading zero omitted, Abs format (unit mm)*
G04 Created by KiCad (PCBNEW 7.0.10) date 2024-12-16 23:30:14*
%MOMM*%
%LPD*%
G01*
G04 APERTURE LIST*
G04 Aperture macros list*
%AMRoundRect*
0 Rectangle with rounded corners*
0 $1 Rounding radius*
0 $2 $3 $4 $5 $6 $7 $8 $9 X,Y pos of 4 corners*
0 Add a 4 corners polygon primitive as box body*
4,1,4,$2,$3,$4,$5,$6,$7,$8,$9,$2,$3,0*
0 Add four circle primitives for the rounded corners*
1,1,$1+$1,$2,$3*
1,1,$1+$1,$4,$5*
1,1,$1+$1,$6,$7*
1,1,$1+$1,$8,$9*
0 Add four rect primitives between the rounded corners*
20,1,$1+$1,$2,$3,$4,$5,0*
20,1,$1+$1,$4,$5,$6,$7,0*
20,1,$1+$1,$6,$7,$8,$9,0*
20,1,$1+$1,$8,$9,$2,$3,0*%
G04 Aperture macros list end*
%ADD10RoundRect,0.250000X0.600000X-0.600000X0.600000X0.600000X-0.600000X0.600000X-0.600000X-0.600000X0*%
%ADD11C,1.700000*%
%ADD12C,1.270000*%
%ADD13C,0.844000*%
G04 APERTURE END LIST*
D10*
%TO.C,J3*%
X128294001Y-98117273D03*
D11*
X128294001Y-95577273D03*
X130834001Y-98117273D03*
X130834001Y-95577273D03*
X133374001Y-98117273D03*
X133374001Y-95577273D03*
X135914001Y-98117273D03*
X135914001Y-95577273D03*
X138454001Y-98117273D03*
X138454001Y-95577273D03*
X140994001Y-98117273D03*
X140994001Y-95577273D03*
X143534001Y-98117273D03*
X143534001Y-95577273D03*
X146074001Y-98117273D03*
X146074001Y-95577273D03*
X148614001Y-98117273D03*
X148614001Y-95577273D03*
X151154001Y-98117273D03*
X151154001Y-95577273D03*
X153694001Y-98117273D03*
X153694001Y-95577273D03*
X156234001Y-98117273D03*
X156234001Y-95577273D03*
%TD*%
D12*
%TO.C,J8*%
X208710001Y-82126773D03*
X154329001Y-79076773D03*
%TD*%
D10*
%TO.C,J6*%
X135914001Y-108794773D03*
D11*
X135914001Y-106254773D03*
X138454001Y-108794773D03*
X138454001Y-106254773D03*
X140994001Y-108794773D03*
X140994001Y-106254773D03*
X143534001Y-108794773D03*
X143534001Y-106254773D03*
X146074001Y-108794773D03*
X146074001Y-106254773D03*
X148614001Y-108794773D03*
X148614001Y-106254773D03*
%TD*%
D12*
%TO.C,J7*%
X130094001Y-82126773D03*
X75713001Y-79076773D03*
%TD*%
%TO.C,J1*%
X80020001Y-114126773D03*
X134402001Y-117176773D03*
D13*
X131976001Y-122891773D03*
X130706001Y-122891773D03*
X129436001Y-122891773D03*
X128166001Y-122891773D03*
X126896001Y-122891773D03*
X125626001Y-122891773D03*
X124356001Y-122891773D03*
X123086001Y-122891773D03*
X121816001Y-122891773D03*
X120546001Y-122891773D03*
X119276001Y-122891773D03*
X118006001Y-122891773D03*
X116736001Y-122891773D03*
X115466001Y-122891773D03*
X114196001Y-122891773D03*
X112926001Y-122891773D03*
X111656001Y-122891773D03*
X110386001Y-122891773D03*
X109116001Y-122891773D03*
X107846001Y-122891773D03*
X106576001Y-122891773D03*
X105306001Y-122891773D03*
X104036001Y-122891773D03*
X102766001Y-122891773D03*
X101496001Y-122891773D03*
X100226001Y-122891773D03*
X98956001Y-122891773D03*
X97686001Y-122891773D03*
X96416001Y-122891773D03*
X95146001Y-122891773D03*
X93876001Y-122891773D03*
X92606001Y-122891773D03*
X91336001Y-122891773D03*
X90066001Y-122891773D03*
X88796001Y-122891773D03*
X87526001Y-122891773D03*
X86256001Y-122891773D03*
X84986001Y-122891773D03*
X83716001Y-122891773D03*
X82446001Y-122891773D03*
X131976001Y-121621773D03*
X130706001Y-121621773D03*
X129436001Y-121621773D03*
X128166001Y-121621773D03*
X126896001Y-121621773D03*
X125626001Y-121621773D03*
X124356001Y-121621773D03*
X123086001Y-121621773D03*
X121816001Y-121621773D03*
X120546001Y-121621773D03*
X119276001Y-121621773D03*
X118006001Y-121621773D03*
X116736001Y-121621773D03*
X115466001Y-121621773D03*
X114196001Y-121621773D03*
X112926001Y-121621773D03*
X111656001Y-121621773D03*
X110386001Y-121621773D03*
X109116001Y-121621773D03*
X107846001Y-121621773D03*
X106576001Y-121621773D03*
X105306001Y-121621773D03*
X104036001Y-121621773D03*
X102766001Y-121621773D03*
X101496001Y-121621773D03*
X100226001Y-121621773D03*
X98956001Y-121621773D03*
X97686001Y-121621773D03*
X96416001Y-121621773D03*
X95146001Y-121621773D03*
X93876001Y-121621773D03*
X92606001Y-121621773D03*
X91336001Y-121621773D03*
X90066001Y-121621773D03*
X88796001Y-121621773D03*
X87526001Y-121621773D03*
X86256001Y-121621773D03*
X84986001Y-121621773D03*
X83716001Y-121621773D03*
X82446001Y-121621773D03*
X131976001Y-120351773D03*
X130706001Y-120351773D03*
X129436001Y-120351773D03*
X128166001Y-120351773D03*
X126896001Y-120351773D03*
X125626001Y-120351773D03*
X124356001Y-120351773D03*
X123086001Y-120351773D03*
X121816001Y-120351773D03*
X120546001Y-120351773D03*
X119276001Y-120351773D03*
X118006001Y-120351773D03*
X116736001Y-120351773D03*
X115466001Y-120351773D03*
X114196001Y-120351773D03*
X112926001Y-120351773D03*
X111656001Y-120351773D03*
X110386001Y-120351773D03*
X109116001Y-120351773D03*
X107846001Y-120351773D03*
X106576001Y-120351773D03*
X105306001Y-120351773D03*
X104036001Y-120351773D03*
X102766001Y-120351773D03*
X101496001Y-120351773D03*
X100226001Y-120351773D03*
X98956001Y-120351773D03*
X97686001Y-120351773D03*
X96416001Y-120351773D03*
X95146001Y-120351773D03*
X93876001Y-120351773D03*
X92606001Y-120351773D03*
X91336001Y-120351773D03*
X90066001Y-120351773D03*
X88796001Y-120351773D03*
X87526001Y-120351773D03*
X86256001Y-120351773D03*
X84986001Y-120351773D03*
X83716001Y-120351773D03*
X82446001Y-120351773D03*
X131976001Y-119081773D03*
X130706001Y-119081773D03*
X129436001Y-119081773D03*
X128166001Y-119081773D03*
X126896001Y-119081773D03*
X125626001Y-119081773D03*
X124356001Y-119081773D03*
X123086001Y-119081773D03*
X121816001Y-119081773D03*
X120546001Y-119081773D03*
X119276001Y-119081773D03*
X118006001Y-119081773D03*
X116736001Y-119081773D03*
X115466001Y-119081773D03*
X114196001Y-119081773D03*
X112926001Y-119081773D03*
X111656001Y-119081773D03*
X110386001Y-119081773D03*
X109116001Y-119081773D03*
X107846001Y-119081773D03*
X106576001Y-119081773D03*
X105306001Y-119081773D03*
X104036001Y-119081773D03*
X102766001Y-119081773D03*
X101496001Y-119081773D03*
X100226001Y-119081773D03*
X98956001Y-119081773D03*
X97686001Y-119081773D03*
X96416001Y-119081773D03*
X95146001Y-119081773D03*
X93876001Y-119081773D03*
X92606001Y-119081773D03*
X91336001Y-119081773D03*
X90066001Y-119081773D03*
X88796001Y-119081773D03*
X87526001Y-119081773D03*
X86256001Y-119081773D03*
X84986001Y-119081773D03*
X83716001Y-119081773D03*
X82446001Y-119081773D03*
X131976001Y-117811773D03*
X130706001Y-117811773D03*
X129436001Y-117811773D03*
X128166001Y-117811773D03*
X126896001Y-117811773D03*
X125626001Y-117811773D03*
X124356001Y-117811773D03*
X123086001Y-117811773D03*
X121816001Y-117811773D03*
X120546001Y-117811773D03*
X119276001Y-117811773D03*
X118006001Y-117811773D03*
X116736001Y-117811773D03*
X115466001Y-117811773D03*
X114196001Y-117811773D03*
X112926001Y-117811773D03*
X111656001Y-117811773D03*
X110386001Y-117811773D03*
X109116001Y-117811773D03*
X107846001Y-117811773D03*
X106576001Y-117811773D03*
X105306001Y-117811773D03*
X104036001Y-117811773D03*
X102766001Y-117811773D03*
X101496001Y-117811773D03*
X100226001Y-117811773D03*
X98956001Y-117811773D03*
X97686001Y-117811773D03*
X96416001Y-117811773D03*
X95146001Y-117811773D03*
X93876001Y-117811773D03*
X92606001Y-117811773D03*
X91336001Y-117811773D03*
X90066001Y-117811773D03*
X88796001Y-117811773D03*
X87526001Y-117811773D03*
X86256001Y-117811773D03*
X84986001Y-117811773D03*
X83716001Y-117811773D03*
X82446001Y-117811773D03*
X131976001Y-116541773D03*
X130706001Y-116541773D03*
X129436001Y-116541773D03*
X128166001Y-116541773D03*
X126896001Y-116541773D03*
X125626001Y-116541773D03*
X124356001Y-116541773D03*
X123086001Y-116541773D03*
X121816001Y-116541773D03*
X120546001Y-116541773D03*
X119276001Y-116541773D03*
X118006001Y-116541773D03*
X116736001Y-116541773D03*
X115466001Y-116541773D03*
X114196001Y-116541773D03*
X112926001Y-116541773D03*
X111656001Y-116541773D03*
X110386001Y-116541773D03*
X109116001Y-116541773D03*
X107846001Y-116541773D03*
X106576001Y-116541773D03*
X105306001Y-116541773D03*
X104036001Y-116541773D03*
X102766001Y-116541773D03*
X101496001Y-116541773D03*
X100226001Y-116541773D03*
X98956001Y-116541773D03*
X97686001Y-116541773D03*
X96416001Y-116541773D03*
X95146001Y-116541773D03*
X93876001Y-116541773D03*
X92606001Y-116541773D03*
X91336001Y-116541773D03*
X90066001Y-116541773D03*
X88796001Y-116541773D03*
X87526001Y-116541773D03*
X86256001Y-116541773D03*
X84986001Y-116541773D03*
X83716001Y-116541773D03*
X82446001Y-116541773D03*
X131976001Y-115271773D03*
X130706001Y-115271773D03*
X129436001Y-115271773D03*
X128166001Y-115271773D03*
X126896001Y-115271773D03*
X125626001Y-115271773D03*
X124356001Y-115271773D03*
X123086001Y-115271773D03*
X121816001Y-115271773D03*
X120546001Y-115271773D03*
X119276001Y-115271773D03*
X118006001Y-115271773D03*
X116736001Y-115271773D03*
X115466001Y-115271773D03*
X114196001Y-115271773D03*
X112926001Y-115271773D03*
X111656001Y-115271773D03*
X110386001Y-115271773D03*
X109116001Y-115271773D03*
X107846001Y-115271773D03*
X106576001Y-115271773D03*
X105306001Y-115271773D03*
X104036001Y-115271773D03*
X102766001Y-115271773D03*
X101496001Y-115271773D03*
X100226001Y-115271773D03*
X98956001Y-115271773D03*
X97686001Y-115271773D03*
X96416001Y-115271773D03*
X95146001Y-115271773D03*
X93876001Y-115271773D03*
X92606001Y-115271773D03*
X91336001Y-115271773D03*
X90066001Y-115271773D03*
X88796001Y-115271773D03*
X87526001Y-115271773D03*
X86256001Y-115271773D03*
X84986001Y-115271773D03*
X83716001Y-115271773D03*
X82446001Y-115271773D03*
X131976001Y-114001773D03*
X130706001Y-114001773D03*
X129436001Y-114001773D03*
X128166001Y-114001773D03*
X126896001Y-114001773D03*
X125626001Y-114001773D03*
X124356001Y-114001773D03*
X123086001Y-114001773D03*
X121816001Y-114001773D03*
X120546001Y-114001773D03*
X119276001Y-114001773D03*
X118006001Y-114001773D03*
X116736001Y-114001773D03*
X115466001Y-114001773D03*
X114196001Y-114001773D03*
X112926001Y-114001773D03*
X111656001Y-114001773D03*
X110386001Y-114001773D03*
X109116001Y-114001773D03*
X107846001Y-114001773D03*
X106576001Y-114001773D03*
X105306001Y-114001773D03*
X104036001Y-114001773D03*
X102766001Y-114001773D03*
X101496001Y-114001773D03*
X100226001Y-114001773D03*
X98956001Y-114001773D03*
X97686001Y-114001773D03*
X96416001Y-114001773D03*
X95146001Y-114001773D03*
X93876001Y-114001773D03*
X92606001Y-114001773D03*
X91336001Y-114001773D03*
X90066001Y-114001773D03*
X88796001Y-114001773D03*
X87526001Y-114001773D03*
X86256001Y-114001773D03*
X84986001Y-114001773D03*
X83716001Y-114001773D03*
X82446001Y-114001773D03*
X131976001Y-112731773D03*
X130706001Y-112731773D03*
X129436001Y-112731773D03*
X128166001Y-112731773D03*
X126896001Y-112731773D03*
X125626001Y-112731773D03*
X124356001Y-112731773D03*
X123086001Y-112731773D03*
X121816001Y-112731773D03*
X120546001Y-112731773D03*
X119276001Y-112731773D03*
X118006001Y-112731773D03*
X116736001Y-112731773D03*
X115466001Y-112731773D03*
X114196001Y-112731773D03*
X112926001Y-112731773D03*
X111656001Y-112731773D03*
X110386001Y-112731773D03*
X109116001Y-112731773D03*
X107846001Y-112731773D03*
X106576001Y-112731773D03*
X105306001Y-112731773D03*
X104036001Y-112731773D03*
X102766001Y-112731773D03*
X101496001Y-112731773D03*
X100226001Y-112731773D03*
X98956001Y-112731773D03*
X97686001Y-112731773D03*
X96416001Y-112731773D03*
X95146001Y-112731773D03*
X93876001Y-112731773D03*
X92606001Y-112731773D03*
X91336001Y-112731773D03*
X90066001Y-112731773D03*
X88796001Y-112731773D03*
X87526001Y-112731773D03*
X86256001Y-112731773D03*
X84986001Y-112731773D03*
X83716001Y-112731773D03*
X82446001Y-112731773D03*
X131976001Y-111461773D03*
X130706001Y-111461773D03*
X129436001Y-111461773D03*
X128166001Y-111461773D03*
X126896001Y-111461773D03*
X125626001Y-111461773D03*
X124356001Y-111461773D03*
X123086001Y-111461773D03*
X121816001Y-111461773D03*
X120546001Y-111461773D03*
X119276001Y-111461773D03*
X118006001Y-111461773D03*
X116736001Y-111461773D03*
X115466001Y-111461773D03*
X114196001Y-111461773D03*
X112926001Y-111461773D03*
X111656001Y-111461773D03*
X110386001Y-111461773D03*
X109116001Y-111461773D03*
X107846001Y-111461773D03*
X106576001Y-111461773D03*
X105306001Y-111461773D03*
X104036001Y-111461773D03*
X102766001Y-111461773D03*
X101496001Y-111461773D03*
X100226001Y-111461773D03*
X98956001Y-111461773D03*
X97686001Y-111461773D03*
X96416001Y-111461773D03*
X95146001Y-111461773D03*
X93876001Y-111461773D03*
X92606001Y-111461773D03*
X91336001Y-111461773D03*
X90066001Y-111461773D03*
X88796001Y-111461773D03*
X87526001Y-111461773D03*
X86256001Y-111461773D03*
X84986001Y-111461773D03*
X83716001Y-111461773D03*
X82446001Y-111461773D03*
%TD*%
D12*
%TO.C,J4*%
X150022001Y-114126773D03*
X204404001Y-117176773D03*
D13*
X201978001Y-122891773D03*
X200708001Y-122891773D03*
X199438001Y-122891773D03*
X198168001Y-122891773D03*
X196898001Y-122891773D03*
X195628001Y-122891773D03*
X194358001Y-122891773D03*
X193088001Y-122891773D03*
X191818001Y-122891773D03*
X190548001Y-122891773D03*
X189278001Y-122891773D03*
X188008001Y-122891773D03*
X186738001Y-122891773D03*
X185468001Y-122891773D03*
X184198001Y-122891773D03*
X182928001Y-122891773D03*
X181658001Y-122891773D03*
X180388001Y-122891773D03*
X179118001Y-122891773D03*
X177848001Y-122891773D03*
X176578001Y-122891773D03*
X175308001Y-122891773D03*
X174038001Y-122891773D03*
X172768001Y-122891773D03*
X171498001Y-122891773D03*
X170228001Y-122891773D03*
X168958001Y-122891773D03*
X167688001Y-122891773D03*
X166418001Y-122891773D03*
X165148001Y-122891773D03*
X163878001Y-122891773D03*
X162608001Y-122891773D03*
X161338001Y-122891773D03*
X160068001Y-122891773D03*
X158798001Y-122891773D03*
X157528001Y-122891773D03*
X156258001Y-122891773D03*
X154988001Y-122891773D03*
X153718001Y-122891773D03*
X152448001Y-122891773D03*
X201978001Y-121621773D03*
X200708001Y-121621773D03*
X199438001Y-121621773D03*
X198168001Y-121621773D03*
X196898001Y-121621773D03*
X195628001Y-121621773D03*
X194358001Y-121621773D03*
X193088001Y-121621773D03*
X191818001Y-121621773D03*
X190548001Y-121621773D03*
X189278001Y-121621773D03*
X188008001Y-121621773D03*
X186738001Y-121621773D03*
X185468001Y-121621773D03*
X184198001Y-121621773D03*
X182928001Y-121621773D03*
X181658001Y-121621773D03*
X180388001Y-121621773D03*
X179118001Y-121621773D03*
X177848001Y-121621773D03*
X176578001Y-121621773D03*
X175308001Y-121621773D03*
X174038001Y-121621773D03*
X172768001Y-121621773D03*
X171498001Y-121621773D03*
X170228001Y-121621773D03*
X168958001Y-121621773D03*
X167688001Y-121621773D03*
X166418001Y-121621773D03*
X165148001Y-121621773D03*
X163878001Y-121621773D03*
X162608001Y-121621773D03*
X161338001Y-121621773D03*
X160068001Y-121621773D03*
X158798001Y-121621773D03*
X157528001Y-121621773D03*
X156258001Y-121621773D03*
X154988001Y-121621773D03*
X153718001Y-121621773D03*
X152448001Y-121621773D03*
X201978001Y-120351773D03*
X200708001Y-120351773D03*
X199438001Y-120351773D03*
X198168001Y-120351773D03*
X196898001Y-120351773D03*
X195628001Y-120351773D03*
X194358001Y-120351773D03*
X193088001Y-120351773D03*
X191818001Y-120351773D03*
X190548001Y-120351773D03*
X189278001Y-120351773D03*
X188008001Y-120351773D03*
X186738001Y-120351773D03*
X185468001Y-120351773D03*
X184198001Y-120351773D03*
X182928001Y-120351773D03*
X181658001Y-120351773D03*
X180388001Y-120351773D03*
X179118001Y-120351773D03*
X177848001Y-120351773D03*
X176578001Y-120351773D03*
X175308001Y-120351773D03*
X174038001Y-120351773D03*
X172768001Y-120351773D03*
X171498001Y-120351773D03*
X170228001Y-120351773D03*
X168958001Y-120351773D03*
X167688001Y-120351773D03*
X166418001Y-120351773D03*
X165148001Y-120351773D03*
X163878001Y-120351773D03*
X162608001Y-120351773D03*
X161338001Y-120351773D03*
X160068001Y-120351773D03*
X158798001Y-120351773D03*
X157528001Y-120351773D03*
X156258001Y-120351773D03*
X154988001Y-120351773D03*
X153718001Y-120351773D03*
X152448001Y-120351773D03*
X201978001Y-119081773D03*
X200708001Y-119081773D03*
X199438001Y-119081773D03*
X198168001Y-119081773D03*
X196898001Y-119081773D03*
X195628001Y-119081773D03*
X194358001Y-119081773D03*
X193088001Y-119081773D03*
X191818001Y-119081773D03*
X190548001Y-119081773D03*
X189278001Y-119081773D03*
X188008001Y-119081773D03*
X186738001Y-119081773D03*
X185468001Y-119081773D03*
X184198001Y-119081773D03*
X182928001Y-119081773D03*
X181658001Y-119081773D03*
X180388001Y-119081773D03*
X179118001Y-119081773D03*
X177848001Y-119081773D03*
X176578001Y-119081773D03*
X175308001Y-119081773D03*
X174038001Y-119081773D03*
X172768001Y-119081773D03*
X171498001Y-119081773D03*
X170228001Y-119081773D03*
X168958001Y-119081773D03*
X167688001Y-119081773D03*
X166418001Y-119081773D03*
X165148001Y-119081773D03*
X163878001Y-119081773D03*
X162608001Y-119081773D03*
X161338001Y-119081773D03*
X160068001Y-119081773D03*
X158798001Y-119081773D03*
X157528001Y-119081773D03*
X156258001Y-119081773D03*
X154988001Y-119081773D03*
X153718001Y-119081773D03*
X152448001Y-119081773D03*
X201978001Y-117811773D03*
X200708001Y-117811773D03*
X199438001Y-117811773D03*
X198168001Y-117811773D03*
X196898001Y-117811773D03*
X195628001Y-117811773D03*
X194358001Y-117811773D03*
X193088001Y-117811773D03*
X191818001Y-117811773D03*
X190548001Y-117811773D03*
X189278001Y-117811773D03*
X188008001Y-117811773D03*
X186738001Y-117811773D03*
X185468001Y-117811773D03*
X184198001Y-117811773D03*
X182928001Y-117811773D03*
X181658001Y-117811773D03*
X180388001Y-117811773D03*
X179118001Y-117811773D03*
X177848001Y-117811773D03*
X176578001Y-117811773D03*
X175308001Y-117811773D03*
X174038001Y-117811773D03*
X172768001Y-117811773D03*
X171498001Y-117811773D03*
X170228001Y-117811773D03*
X168958001Y-117811773D03*
X167688001Y-117811773D03*
X166418001Y-117811773D03*
X165148001Y-117811773D03*
X163878001Y-117811773D03*
X162608001Y-117811773D03*
X161338001Y-117811773D03*
X160068001Y-117811773D03*
X158798001Y-117811773D03*
X157528001Y-117811773D03*
X156258001Y-117811773D03*
X154988001Y-117811773D03*
X153718001Y-117811773D03*
X152448001Y-117811773D03*
X201978001Y-116541773D03*
X200708001Y-116541773D03*
X199438001Y-116541773D03*
X198168001Y-116541773D03*
X196898001Y-116541773D03*
X195628001Y-116541773D03*
X194358001Y-116541773D03*
X193088001Y-116541773D03*
X191818001Y-116541773D03*
X190548001Y-116541773D03*
X189278001Y-116541773D03*
X188008001Y-116541773D03*
X186738001Y-116541773D03*
X185468001Y-116541773D03*
X184198001Y-116541773D03*
X182928001Y-116541773D03*
X181658001Y-116541773D03*
X180388001Y-116541773D03*
X179118001Y-116541773D03*
X177848001Y-116541773D03*
X176578001Y-116541773D03*
X175308001Y-116541773D03*
X174038001Y-116541773D03*
X172768001Y-116541773D03*
X171498001Y-116541773D03*
X170228001Y-116541773D03*
X168958001Y-116541773D03*
X167688001Y-116541773D03*
X166418001Y-116541773D03*
X165148001Y-116541773D03*
X163878001Y-116541773D03*
X162608001Y-116541773D03*
X161338001Y-116541773D03*
X160068001Y-116541773D03*
X158798001Y-116541773D03*
X157528001Y-116541773D03*
X156258001Y-116541773D03*
X154988001Y-116541773D03*
X153718001Y-116541773D03*
X152448001Y-116541773D03*
X201978001Y-115271773D03*
X200708001Y-115271773D03*
X199438001Y-115271773D03*
X198168001Y-115271773D03*
X196898001Y-115271773D03*
X195628001Y-115271773D03*
X194358001Y-115271773D03*
X193088001Y-115271773D03*
X191818001Y-115271773D03*
X190548001Y-115271773D03*
X189278001Y-115271773D03*
X188008001Y-115271773D03*
X186738001Y-115271773D03*
X185468001Y-115271773D03*
X184198001Y-115271773D03*
X182928001Y-115271773D03*
X181658001Y-115271773D03*
X180388001Y-115271773D03*
X179118001Y-115271773D03*
X177848001Y-115271773D03*
X176578001Y-115271773D03*
X175308001Y-115271773D03*
X174038001Y-115271773D03*
X172768001Y-115271773D03*
X171498001Y-115271773D03*
X170228001Y-115271773D03*
X168958001Y-115271773D03*
X167688001Y-115271773D03*
X166418001Y-115271773D03*
X165148001Y-115271773D03*
X163878001Y-115271773D03*
X162608001Y-115271773D03*
X161338001Y-115271773D03*
X160068001Y-115271773D03*
X158798001Y-115271773D03*
X157528001Y-115271773D03*
X156258001Y-115271773D03*
X154988001Y-115271773D03*
X153718001Y-115271773D03*
X152448001Y-115271773D03*
X201978001Y-114001773D03*
X200708001Y-114001773D03*
X199438001Y-114001773D03*
X198168001Y-114001773D03*
X196898001Y-114001773D03*
X195628001Y-114001773D03*
X194358001Y-114001773D03*
X193088001Y-114001773D03*
X191818001Y-114001773D03*
X190548001Y-114001773D03*
X189278001Y-114001773D03*
X188008001Y-114001773D03*
X186738001Y-114001773D03*
X185468001Y-114001773D03*
X184198001Y-114001773D03*
X182928001Y-114001773D03*
X181658001Y-114001773D03*
X180388001Y-114001773D03*
X179118001Y-114001773D03*
X177848001Y-114001773D03*
X176578001Y-114001773D03*
X175308001Y-114001773D03*
X174038001Y-114001773D03*
X172768001Y-114001773D03*
X171498001Y-114001773D03*
X170228001Y-114001773D03*
X168958001Y-114001773D03*
X167688001Y-114001773D03*
X166418001Y-114001773D03*
X165148001Y-114001773D03*
X163878001Y-114001773D03*
X162608001Y-114001773D03*
X161338001Y-114001773D03*
X160068001Y-114001773D03*
X158798001Y-114001773D03*
X157528001Y-114001773D03*
X156258001Y-114001773D03*
X154988001Y-114001773D03*
X153718001Y-114001773D03*
X152448001Y-114001773D03*
X201978001Y-112731773D03*
X200708001Y-112731773D03*
X199438001Y-112731773D03*
X198168001Y-112731773D03*
X196898001Y-112731773D03*
X195628001Y-112731773D03*
X194358001Y-112731773D03*
X193088001Y-112731773D03*
X191818001Y-112731773D03*
X190548001Y-112731773D03*
X189278001Y-112731773D03*
X188008001Y-112731773D03*
X186738001Y-112731773D03*
X185468001Y-112731773D03*
X184198001Y-112731773D03*
X182928001Y-112731773D03*
X181658001Y-112731773D03*
X180388001Y-112731773D03*
X179118001Y-112731773D03*
X177848001Y-112731773D03*
X176578001Y-112731773D03*
X175308001Y-112731773D03*
X174038001Y-112731773D03*
X172768001Y-112731773D03*
X171498001Y-112731773D03*
X170228001Y-112731773D03*
X168958001Y-112731773D03*
X167688001Y-112731773D03*
X166418001Y-112731773D03*
X165148001Y-112731773D03*
X163878001Y-112731773D03*
X162608001Y-112731773D03*
X161338001Y-112731773D03*
X160068001Y-112731773D03*
X158798001Y-112731773D03*
X157528001Y-112731773D03*
X156258001Y-112731773D03*
X154988001Y-112731773D03*
X153718001Y-112731773D03*
X152448001Y-112731773D03*
X201978001Y-111461773D03*
X200708001Y-111461773D03*
X199438001Y-111461773D03*
X198168001Y-111461773D03*
X196898001Y-111461773D03*
X195628001Y-111461773D03*
X194358001Y-111461773D03*
X193088001Y-111461773D03*
X191818001Y-111461773D03*
X190548001Y-111461773D03*
X189278001Y-111461773D03*
X188008001Y-111461773D03*
X186738001Y-111461773D03*
X185468001Y-111461773D03*
X184198001Y-111461773D03*
X182928001Y-111461773D03*
X181658001Y-111461773D03*
X180388001Y-111461773D03*
X179118001Y-111461773D03*
X177848001Y-111461773D03*
X176578001Y-111461773D03*
X175308001Y-111461773D03*
X174038001Y-111461773D03*
X172768001Y-111461773D03*
X171498001Y-111461773D03*
X170228001Y-111461773D03*
X168958001Y-111461773D03*
X167688001Y-111461773D03*
X166418001Y-111461773D03*
X165148001Y-111461773D03*
X163878001Y-111461773D03*
X162608001Y-111461773D03*
X161338001Y-111461773D03*
X160068001Y-111461773D03*
X158798001Y-111461773D03*
X157528001Y-111461773D03*
X156258001Y-111461773D03*
X154988001Y-111461773D03*
X153718001Y-111461773D03*
X152448001Y-111461773D03*
%TD*%
D12*
%TO.C,J5*%
X154329001Y-76026773D03*
X208711001Y-79076773D03*
D13*
X206285001Y-84791773D03*
X205015001Y-84791773D03*
X203745001Y-84791773D03*
X202475001Y-84791773D03*
X201205001Y-84791773D03*
X199935001Y-84791773D03*
X198665001Y-84791773D03*
X197395001Y-84791773D03*
X196125001Y-84791773D03*
X194855001Y-84791773D03*
X193585001Y-84791773D03*
X192315001Y-84791773D03*
X191045001Y-84791773D03*
X189775001Y-84791773D03*
X188505001Y-84791773D03*
X187235001Y-84791773D03*
X185965001Y-84791773D03*
X184695001Y-84791773D03*
X183425001Y-84791773D03*
X182155001Y-84791773D03*
X180885001Y-84791773D03*
X179615001Y-84791773D03*
X178345001Y-84791773D03*
X177075001Y-84791773D03*
X175805001Y-84791773D03*
X174535001Y-84791773D03*
X173265001Y-84791773D03*
X171995001Y-84791773D03*
X170725001Y-84791773D03*
X169455001Y-84791773D03*
X168185001Y-84791773D03*
X166915001Y-84791773D03*
X165645001Y-84791773D03*
X164375001Y-84791773D03*
X163105001Y-84791773D03*
X161835001Y-84791773D03*
X160565001Y-84791773D03*
X159295001Y-84791773D03*
X158025001Y-84791773D03*
X156755001Y-84791773D03*
X206285001Y-83521773D03*
X205015001Y-83521773D03*
X203745001Y-83521773D03*
X202475001Y-83521773D03*
X201205001Y-83521773D03*
X199935001Y-83521773D03*
X198665001Y-83521773D03*
X197395001Y-83521773D03*
X196125001Y-83521773D03*
X194855001Y-83521773D03*
X193585001Y-83521773D03*
X192315001Y-83521773D03*
X191045001Y-83521773D03*
X189775001Y-83521773D03*
X188505001Y-83521773D03*
X187235001Y-83521773D03*
X185965001Y-83521773D03*
X184695001Y-83521773D03*
X183425001Y-83521773D03*
X182155001Y-83521773D03*
X180885001Y-83521773D03*
X179615001Y-83521773D03*
X178345001Y-83521773D03*
X177075001Y-83521773D03*
X175805001Y-83521773D03*
X174535001Y-83521773D03*
X173265001Y-83521773D03*
X171995001Y-83521773D03*
X170725001Y-83521773D03*
X169455001Y-83521773D03*
X168185001Y-83521773D03*
X166915001Y-83521773D03*
X165645001Y-83521773D03*
X164375001Y-83521773D03*
X163105001Y-83521773D03*
X161835001Y-83521773D03*
X160565001Y-83521773D03*
X159295001Y-83521773D03*
X158025001Y-83521773D03*
X156755001Y-83521773D03*
X206285001Y-82251773D03*
X205015001Y-82251773D03*
X203745001Y-82251773D03*
X202475001Y-82251773D03*
X201205001Y-82251773D03*
X199935001Y-82251773D03*
X198665001Y-82251773D03*
X197395001Y-82251773D03*
X196125001Y-82251773D03*
X194855001Y-82251773D03*
X193585001Y-82251773D03*
X192315001Y-82251773D03*
X191045001Y-82251773D03*
X189775001Y-82251773D03*
X188505001Y-82251773D03*
X187235001Y-82251773D03*
X185965001Y-82251773D03*
X184695001Y-82251773D03*
X183425001Y-82251773D03*
X182155001Y-82251773D03*
X180885001Y-82251773D03*
X179615001Y-82251773D03*
X178345001Y-82251773D03*
X177075001Y-82251773D03*
X175805001Y-82251773D03*
X174535001Y-82251773D03*
X173265001Y-82251773D03*
X171995001Y-82251773D03*
X170725001Y-82251773D03*
X169455001Y-82251773D03*
X168185001Y-82251773D03*
X166915001Y-82251773D03*
X165645001Y-82251773D03*
X164375001Y-82251773D03*
X163105001Y-82251773D03*
X161835001Y-82251773D03*
X160565001Y-82251773D03*
X159295001Y-82251773D03*
X158025001Y-82251773D03*
X156755001Y-82251773D03*
X206285001Y-80981773D03*
X205015001Y-80981773D03*
X203745001Y-80981773D03*
X202475001Y-80981773D03*
X201205001Y-80981773D03*
X199935001Y-80981773D03*
X198665001Y-80981773D03*
X197395001Y-80981773D03*
X196125001Y-80981773D03*
X194855001Y-80981773D03*
X193585001Y-80981773D03*
X192315001Y-80981773D03*
X191045001Y-80981773D03*
X189775001Y-80981773D03*
X188505001Y-80981773D03*
X187235001Y-80981773D03*
X185965001Y-80981773D03*
X184695001Y-80981773D03*
X183425001Y-80981773D03*
X182155001Y-80981773D03*
X180885001Y-80981773D03*
X179615001Y-80981773D03*
X178345001Y-80981773D03*
X177075001Y-80981773D03*
X175805001Y-80981773D03*
X174535001Y-80981773D03*
X173265001Y-80981773D03*
X171995001Y-80981773D03*
X170725001Y-80981773D03*
X169455001Y-80981773D03*
X168185001Y-80981773D03*
X166915001Y-80981773D03*
X165645001Y-80981773D03*
X164375001Y-80981773D03*
X163105001Y-80981773D03*
X161835001Y-80981773D03*
X160565001Y-80981773D03*
X159295001Y-80981773D03*
X158025001Y-80981773D03*
X156755001Y-80981773D03*
X206285001Y-79711773D03*
X205015001Y-79711773D03*
X203745001Y-79711773D03*
X202475001Y-79711773D03*
X201205001Y-79711773D03*
X199935001Y-79711773D03*
X198665001Y-79711773D03*
X197395001Y-79711773D03*
X196125001Y-79711773D03*
X194855001Y-79711773D03*
X193585001Y-79711773D03*
X192315001Y-79711773D03*
X191045001Y-79711773D03*
X189775001Y-79711773D03*
X188505001Y-79711773D03*
X187235001Y-79711773D03*
X185965001Y-79711773D03*
X184695001Y-79711773D03*
X183425001Y-79711773D03*
X182155001Y-79711773D03*
X180885001Y-79711773D03*
X179615001Y-79711773D03*
X178345001Y-79711773D03*
X177075001Y-79711773D03*
X175805001Y-79711773D03*
X174535001Y-79711773D03*
X173265001Y-79711773D03*
X171995001Y-79711773D03*
X170725001Y-79711773D03*
X169455001Y-79711773D03*
X168185001Y-79711773D03*
X166915001Y-79711773D03*
X165645001Y-79711773D03*
X164375001Y-79711773D03*
X163105001Y-79711773D03*
X161835001Y-79711773D03*
X160565001Y-79711773D03*
X159295001Y-79711773D03*
X158025001Y-79711773D03*
X156755001Y-79711773D03*
X206285001Y-78441773D03*
X205015001Y-78441773D03*
X203745001Y-78441773D03*
X202475001Y-78441773D03*
X201205001Y-78441773D03*
X199935001Y-78441773D03*
X198665001Y-78441773D03*
X197395001Y-78441773D03*
X196125001Y-78441773D03*
X194855001Y-78441773D03*
X193585001Y-78441773D03*
X192315001Y-78441773D03*
X191045001Y-78441773D03*
X189775001Y-78441773D03*
X188505001Y-78441773D03*
X187235001Y-78441773D03*
X185965001Y-78441773D03*
X184695001Y-78441773D03*
X183425001Y-78441773D03*
X182155001Y-78441773D03*
X180885001Y-78441773D03*
X179615001Y-78441773D03*
X178345001Y-78441773D03*
X177075001Y-78441773D03*
X175805001Y-78441773D03*
X174535001Y-78441773D03*
X173265001Y-78441773D03*
X171995001Y-78441773D03*
X170725001Y-78441773D03*
X169455001Y-78441773D03*
X168185001Y-78441773D03*
X166915001Y-78441773D03*
X165645001Y-78441773D03*
X164375001Y-78441773D03*
X163105001Y-78441773D03*
X161835001Y-78441773D03*
X160565001Y-78441773D03*
X159295001Y-78441773D03*
X158025001Y-78441773D03*
X156755001Y-78441773D03*
X206285001Y-77171773D03*
X205015001Y-77171773D03*
X203745001Y-77171773D03*
X202475001Y-77171773D03*
X201205001Y-77171773D03*
X199935001Y-77171773D03*
X198665001Y-77171773D03*
X197395001Y-77171773D03*
X196125001Y-77171773D03*
X194855001Y-77171773D03*
X193585001Y-77171773D03*
X192315001Y-77171773D03*
X191045001Y-77171773D03*
X189775001Y-77171773D03*
X188505001Y-77171773D03*
X187235001Y-77171773D03*
X185965001Y-77171773D03*
X184695001Y-77171773D03*
X183425001Y-77171773D03*
X182155001Y-77171773D03*
X180885001Y-77171773D03*
X179615001Y-77171773D03*
X178345001Y-77171773D03*
X177075001Y-77171773D03*
X175805001Y-77171773D03*
X174535001Y-77171773D03*
X173265001Y-77171773D03*
X171995001Y-77171773D03*
X170725001Y-77171773D03*
X169455001Y-77171773D03*
X168185001Y-77171773D03*
X166915001Y-77171773D03*
X165645001Y-77171773D03*
X164375001Y-77171773D03*
X163105001Y-77171773D03*
X161835001Y-77171773D03*
X160565001Y-77171773D03*
X159295001Y-77171773D03*
X158025001Y-77171773D03*
X156755001Y-77171773D03*
X206285001Y-75901773D03*
X205015001Y-75901773D03*
X203745001Y-75901773D03*
X202475001Y-75901773D03*
X201205001Y-75901773D03*
X199935001Y-75901773D03*
X198665001Y-75901773D03*
X197395001Y-75901773D03*
X196125001Y-75901773D03*
X194855001Y-75901773D03*
X193585001Y-75901773D03*
X192315001Y-75901773D03*
X191045001Y-75901773D03*
X189775001Y-75901773D03*
X188505001Y-75901773D03*
X187235001Y-75901773D03*
X185965001Y-75901773D03*
X184695001Y-75901773D03*
X183425001Y-75901773D03*
X182155001Y-75901773D03*
X180885001Y-75901773D03*
X179615001Y-75901773D03*
X178345001Y-75901773D03*
X177075001Y-75901773D03*
X175805001Y-75901773D03*
X174535001Y-75901773D03*
X173265001Y-75901773D03*
X171995001Y-75901773D03*
X170725001Y-75901773D03*
X169455001Y-75901773D03*
X168185001Y-75901773D03*
X166915001Y-75901773D03*
X165645001Y-75901773D03*
X164375001Y-75901773D03*
X163105001Y-75901773D03*
X161835001Y-75901773D03*
X160565001Y-75901773D03*
X159295001Y-75901773D03*
X158025001Y-75901773D03*
X156755001Y-75901773D03*
X206285001Y-74631773D03*
X205015001Y-74631773D03*
X203745001Y-74631773D03*
X202475001Y-74631773D03*
X201205001Y-74631773D03*
X199935001Y-74631773D03*
X198665001Y-74631773D03*
X197395001Y-74631773D03*
X196125001Y-74631773D03*
X194855001Y-74631773D03*
X193585001Y-74631773D03*
X192315001Y-74631773D03*
X191045001Y-74631773D03*
X189775001Y-74631773D03*
X188505001Y-74631773D03*
X187235001Y-74631773D03*
X185965001Y-74631773D03*
X184695001Y-74631773D03*
X183425001Y-74631773D03*
X182155001Y-74631773D03*
X180885001Y-74631773D03*
X179615001Y-74631773D03*
X178345001Y-74631773D03*
X177075001Y-74631773D03*
X175805001Y-74631773D03*
X174535001Y-74631773D03*
X173265001Y-74631773D03*
X171995001Y-74631773D03*
X170725001Y-74631773D03*
X169455001Y-74631773D03*
X168185001Y-74631773D03*
X166915001Y-74631773D03*
X165645001Y-74631773D03*
X164375001Y-74631773D03*
X163105001Y-74631773D03*
X161835001Y-74631773D03*
X160565001Y-74631773D03*
X159295001Y-74631773D03*
X158025001Y-74631773D03*
X156755001Y-74631773D03*
X206285001Y-73361773D03*
X205015001Y-73361773D03*
X203745001Y-73361773D03*
X202475001Y-73361773D03*
X201205001Y-73361773D03*
X199935001Y-73361773D03*
X198665001Y-73361773D03*
X197395001Y-73361773D03*
X196125001Y-73361773D03*
X194855001Y-73361773D03*
X193585001Y-73361773D03*
X192315001Y-73361773D03*
X191045001Y-73361773D03*
X189775001Y-73361773D03*
X188505001Y-73361773D03*
X187235001Y-73361773D03*
X185965001Y-73361773D03*
X184695001Y-73361773D03*
X183425001Y-73361773D03*
X182155001Y-73361773D03*
X180885001Y-73361773D03*
X179615001Y-73361773D03*
X178345001Y-73361773D03*
X177075001Y-73361773D03*
X175805001Y-73361773D03*
X174535001Y-73361773D03*
X173265001Y-73361773D03*
X171995001Y-73361773D03*
X170725001Y-73361773D03*
X169455001Y-73361773D03*
X168185001Y-73361773D03*
X166915001Y-73361773D03*
X165645001Y-73361773D03*
X164375001Y-73361773D03*
X163105001Y-73361773D03*
X161835001Y-73361773D03*
X160565001Y-73361773D03*
X159295001Y-73361773D03*
X158025001Y-73361773D03*
X156755001Y-73361773D03*
%TD*%
D12*
%TO.C,J2*%
X75713001Y-76026773D03*
X130095001Y-79076773D03*
D13*
X127669001Y-84791773D03*
X126399001Y-84791773D03*
X125129001Y-84791773D03*
X123859001Y-84791773D03*
X122589001Y-84791773D03*
X121319001Y-84791773D03*
X120049001Y-84791773D03*
X118779001Y-84791773D03*
X117509001Y-84791773D03*
X116239001Y-84791773D03*
X114969001Y-84791773D03*
X113699001Y-84791773D03*
X112429001Y-84791773D03*
X111159001Y-84791773D03*
X109889001Y-84791773D03*
X108619001Y-84791773D03*
X107349001Y-84791773D03*
X106079001Y-84791773D03*
X104809001Y-84791773D03*
X103539001Y-84791773D03*
X102269001Y-84791773D03*
X100999001Y-84791773D03*
X99729001Y-84791773D03*
X98459001Y-84791773D03*
X97189001Y-84791773D03*
X95919001Y-84791773D03*
X94649001Y-84791773D03*
X93379001Y-84791773D03*
X92109001Y-84791773D03*
X90839001Y-84791773D03*
X89569001Y-84791773D03*
X88299001Y-84791773D03*
X87029001Y-84791773D03*
X85759001Y-84791773D03*
X84489001Y-84791773D03*
X83219001Y-84791773D03*
X81949001Y-84791773D03*
X80679001Y-84791773D03*
X79409001Y-84791773D03*
X78139001Y-84791773D03*
X127669001Y-83521773D03*
X126399001Y-83521773D03*
X125129001Y-83521773D03*
X123859001Y-83521773D03*
X122589001Y-83521773D03*
X121319001Y-83521773D03*
X120049001Y-83521773D03*
X118779001Y-83521773D03*
X117509001Y-83521773D03*
X116239001Y-83521773D03*
X114969001Y-83521773D03*
X113699001Y-83521773D03*
X112429001Y-83521773D03*
X111159001Y-83521773D03*
X109889001Y-83521773D03*
X108619001Y-83521773D03*
X107349001Y-83521773D03*
X106079001Y-83521773D03*
X104809001Y-83521773D03*
X103539001Y-83521773D03*
X102269001Y-83521773D03*
X100999001Y-83521773D03*
X99729001Y-83521773D03*
X98459001Y-83521773D03*
X97189001Y-83521773D03*
X95919001Y-83521773D03*
X94649001Y-83521773D03*
X93379001Y-83521773D03*
X92109001Y-83521773D03*
X90839001Y-83521773D03*
X89569001Y-83521773D03*
X88299001Y-83521773D03*
X87029001Y-83521773D03*
X85759001Y-83521773D03*
X84489001Y-83521773D03*
X83219001Y-83521773D03*
X81949001Y-83521773D03*
X80679001Y-83521773D03*
X79409001Y-83521773D03*
X78139001Y-83521773D03*
X127669001Y-82251773D03*
X126399001Y-82251773D03*
X125129001Y-82251773D03*
X123859001Y-82251773D03*
X122589001Y-82251773D03*
X121319001Y-82251773D03*
X120049001Y-82251773D03*
X118779001Y-82251773D03*
X117509001Y-82251773D03*
X116239001Y-82251773D03*
X114969001Y-82251773D03*
X113699001Y-82251773D03*
X112429001Y-82251773D03*
X111159001Y-82251773D03*
X109889001Y-82251773D03*
X108619001Y-82251773D03*
X107349001Y-82251773D03*
X106079001Y-82251773D03*
X104809001Y-82251773D03*
X103539001Y-82251773D03*
X102269001Y-82251773D03*
X100999001Y-82251773D03*
X99729001Y-82251773D03*
X98459001Y-82251773D03*
X97189001Y-82251773D03*
X95919001Y-82251773D03*
X94649001Y-82251773D03*
X93379001Y-82251773D03*
X92109001Y-82251773D03*
X90839001Y-82251773D03*
X89569001Y-82251773D03*
X88299001Y-82251773D03*
X87029001Y-82251773D03*
X85759001Y-82251773D03*
X84489001Y-82251773D03*
X83219001Y-82251773D03*
X81949001Y-82251773D03*
X80679001Y-82251773D03*
X79409001Y-82251773D03*
X78139001Y-82251773D03*
X127669001Y-80981773D03*
X126399001Y-80981773D03*
X125129001Y-80981773D03*
X123859001Y-80981773D03*
X122589001Y-80981773D03*
X121319001Y-80981773D03*
X120049001Y-80981773D03*
X118779001Y-80981773D03*
X117509001Y-80981773D03*
X116239001Y-80981773D03*
X114969001Y-80981773D03*
X113699001Y-80981773D03*
X112429001Y-80981773D03*
X111159001Y-80981773D03*
X109889001Y-80981773D03*
X108619001Y-80981773D03*
X107349001Y-80981773D03*
X106079001Y-80981773D03*
X104809001Y-80981773D03*
X103539001Y-80981773D03*
X102269001Y-80981773D03*
X100999001Y-80981773D03*
X99729001Y-80981773D03*
X98459001Y-80981773D03*
X97189001Y-80981773D03*
X95919001Y-80981773D03*
X94649001Y-80981773D03*
X93379001Y-80981773D03*
X92109001Y-80981773D03*
X90839001Y-80981773D03*
X89569001Y-80981773D03*
X88299001Y-80981773D03*
X87029001Y-80981773D03*
X85759001Y-80981773D03*
X84489001Y-80981773D03*
X83219001Y-80981773D03*
X81949001Y-80981773D03*
X80679001Y-80981773D03*
X79409001Y-80981773D03*
X78139001Y-80981773D03*
X127669001Y-79711773D03*
X126399001Y-79711773D03*
X125129001Y-79711773D03*
X123859001Y-79711773D03*
X122589001Y-79711773D03*
X121319001Y-79711773D03*
X120049001Y-79711773D03*
X118779001Y-79711773D03*
X117509001Y-79711773D03*
X116239001Y-79711773D03*
X114969001Y-79711773D03*
X113699001Y-79711773D03*
X112429001Y-79711773D03*
X111159001Y-79711773D03*
X109889001Y-79711773D03*
X108619001Y-79711773D03*
X107349001Y-79711773D03*
X106079001Y-79711773D03*
X104809001Y-79711773D03*
X103539001Y-79711773D03*
X102269001Y-79711773D03*
X100999001Y-79711773D03*
X99729001Y-79711773D03*
X98459001Y-79711773D03*
X97189001Y-79711773D03*
X95919001Y-79711773D03*
X94649001Y-79711773D03*
X93379001Y-79711773D03*
X92109001Y-79711773D03*
X90839001Y-79711773D03*
X89569001Y-79711773D03*
X88299001Y-79711773D03*
X87029001Y-79711773D03*
X85759001Y-79711773D03*
X84489001Y-79711773D03*
X83219001Y-79711773D03*
X81949001Y-79711773D03*
X80679001Y-79711773D03*
X79409001Y-79711773D03*
X78139001Y-79711773D03*
X127669001Y-78441773D03*
X126399001Y-78441773D03*
X125129001Y-78441773D03*
X123859001Y-78441773D03*
X122589001Y-78441773D03*
X121319001Y-78441773D03*
X120049001Y-78441773D03*
X118779001Y-78441773D03*
X117509001Y-78441773D03*
X116239001Y-78441773D03*
X114969001Y-78441773D03*
X113699001Y-78441773D03*
X112429001Y-78441773D03*
X111159001Y-78441773D03*
X109889001Y-78441773D03*
X108619001Y-78441773D03*
X107349001Y-78441773D03*
X106079001Y-78441773D03*
X104809001Y-78441773D03*
X103539001Y-78441773D03*
X102269001Y-78441773D03*
X100999001Y-78441773D03*
X99729001Y-78441773D03*
X98459001Y-78441773D03*
X97189001Y-78441773D03*
X95919001Y-78441773D03*
X94649001Y-78441773D03*
X93379001Y-78441773D03*
X92109001Y-78441773D03*
X90839001Y-78441773D03*
X89569001Y-78441773D03*
X88299001Y-78441773D03*
X87029001Y-78441773D03*
X85759001Y-78441773D03*
X84489001Y-78441773D03*
X83219001Y-78441773D03*
X81949001Y-78441773D03*
X80679001Y-78441773D03*
X79409001Y-78441773D03*
X78139001Y-78441773D03*
X127669001Y-77171773D03*
X126399001Y-77171773D03*
X125129001Y-77171773D03*
X123859001Y-77171773D03*
X122589001Y-77171773D03*
X121319001Y-77171773D03*
X120049001Y-77171773D03*
X118779001Y-77171773D03*
X117509001Y-77171773D03*
X116239001Y-77171773D03*
X114969001Y-77171773D03*
X113699001Y-77171773D03*
X112429001Y-77171773D03*
X111159001Y-77171773D03*
X109889001Y-77171773D03*
X108619001Y-77171773D03*
X107349001Y-77171773D03*
X106079001Y-77171773D03*
X104809001Y-77171773D03*
X103539001Y-77171773D03*
X102269001Y-77171773D03*
X100999001Y-77171773D03*
X99729001Y-77171773D03*
X98459001Y-77171773D03*
X97189001Y-77171773D03*
X95919001Y-77171773D03*
X94649001Y-77171773D03*
X93379001Y-77171773D03*
X92109001Y-77171773D03*
X90839001Y-77171773D03*
X89569001Y-77171773D03*
X88299001Y-77171773D03*
X87029001Y-77171773D03*
X85759001Y-77171773D03*
X84489001Y-77171773D03*
X83219001Y-77171773D03*
X81949001Y-77171773D03*
X80679001Y-77171773D03*
X79409001Y-77171773D03*
X78139001Y-77171773D03*
X127669001Y-75901773D03*
X126399001Y-75901773D03*
X125129001Y-75901773D03*
X123859001Y-75901773D03*
X122589001Y-75901773D03*
X121319001Y-75901773D03*
X120049001Y-75901773D03*
X118779001Y-75901773D03*
X117509001Y-75901773D03*
X116239001Y-75901773D03*
X114969001Y-75901773D03*
X113699001Y-75901773D03*
X112429001Y-75901773D03*
X111159001Y-75901773D03*
X109889001Y-75901773D03*
X108619001Y-75901773D03*
X107349001Y-75901773D03*
X106079001Y-75901773D03*
X104809001Y-75901773D03*
X103539001Y-75901773D03*
X102269001Y-75901773D03*
X100999001Y-75901773D03*
X99729001Y-75901773D03*
X98459001Y-75901773D03*
X97189001Y-75901773D03*
X95919001Y-75901773D03*
X94649001Y-75901773D03*
X93379001Y-75901773D03*
X92109001Y-75901773D03*
X90839001Y-75901773D03*
X89569001Y-75901773D03*
X88299001Y-75901773D03*
X87029001Y-75901773D03*
X85759001Y-75901773D03*
X84489001Y-75901773D03*
X83219001Y-75901773D03*
X81949001Y-75901773D03*
X80679001Y-75901773D03*
X79409001Y-75901773D03*
X78139001Y-75901773D03*
X127669001Y-74631773D03*
X126399001Y-74631773D03*
X125129001Y-74631773D03*
X123859001Y-74631773D03*
X122589001Y-74631773D03*
X121319001Y-74631773D03*
X120049001Y-74631773D03*
X118779001Y-74631773D03*
X117509001Y-74631773D03*
X116239001Y-74631773D03*
X114969001Y-74631773D03*
X113699001Y-74631773D03*
X112429001Y-74631773D03*
X111159001Y-74631773D03*
X109889001Y-74631773D03*
X108619001Y-74631773D03*
X107349001Y-74631773D03*
X106079001Y-74631773D03*
X104809001Y-74631773D03*
X103539001Y-74631773D03*
X102269001Y-74631773D03*
X100999001Y-74631773D03*
X99729001Y-74631773D03*
X98459001Y-74631773D03*
X97189001Y-74631773D03*
X95919001Y-74631773D03*
X94649001Y-74631773D03*
X93379001Y-74631773D03*
X92109001Y-74631773D03*
X90839001Y-74631773D03*
X89569001Y-74631773D03*
X88299001Y-74631773D03*
X87029001Y-74631773D03*
X85759001Y-74631773D03*
X84489001Y-74631773D03*
X83219001Y-74631773D03*
X81949001Y-74631773D03*
X80679001Y-74631773D03*
X79409001Y-74631773D03*
X78139001Y-74631773D03*
X127669001Y-73361773D03*
X126399001Y-73361773D03*
X125129001Y-73361773D03*
X123859001Y-73361773D03*
X122589001Y-73361773D03*
X121319001Y-73361773D03*
X120049001Y-73361773D03*
X118779001Y-73361773D03*
X117509001Y-73361773D03*
X116239001Y-73361773D03*
X114969001Y-73361773D03*
X113699001Y-73361773D03*
X112429001Y-73361773D03*
X111159001Y-73361773D03*
X109889001Y-73361773D03*
X108619001Y-73361773D03*
X107349001Y-73361773D03*
X106079001Y-73361773D03*
X104809001Y-73361773D03*
X103539001Y-73361773D03*
X102269001Y-73361773D03*
X100999001Y-73361773D03*
X99729001Y-73361773D03*
X98459001Y-73361773D03*
X97189001Y-73361773D03*
X95919001Y-73361773D03*
X94649001Y-73361773D03*
X93379001Y-73361773D03*
X92109001Y-73361773D03*
X90839001Y-73361773D03*
X89569001Y-73361773D03*
X88299001Y-73361773D03*
X87029001Y-73361773D03*
X85759001Y-73361773D03*
X84489001Y-73361773D03*
X83219001Y-73361773D03*
X81949001Y-73361773D03*
X80679001Y-73361773D03*
X79409001Y-73361773D03*
X78139001Y-73361773D03*
%TD*%
M02*
