%TF.GenerationSoftware,KiCad,Pcbnew,7.0.10*%
%TF.CreationDate,2024-12-16T15:55:03-07:00*%
%TF.ProjectId,DRXDaughterboard,44525844-6175-4676-9874-6572626f6172,1.1*%
%TF.SameCoordinates,Original*%
%TF.FileFunction,Legend,Top*%
%TF.FilePolarity,Positive*%
%FSLAX46Y46*%
G04 Gerber Fmt 4.6, Leading zero omitted, Abs format (unit mm)*
G04 Created by KiCad (PCBNEW 7.0.10) date 2024-12-16 15:55:03*
%MOMM*%
%LPD*%
G01*
G04 APERTURE LIST*
G04 Aperture macros list*
%AMRoundRect*
0 Rectangle with rounded corners*
0 $1 Rounding radius*
0 $2 $3 $4 $5 $6 $7 $8 $9 X,Y pos of 4 corners*
0 Add a 4 corners polygon primitive as box body*
4,1,4,$2,$3,$4,$5,$6,$7,$8,$9,$2,$3,0*
0 Add four circle primitives for the rounded corners*
1,1,$1+$1,$2,$3*
1,1,$1+$1,$4,$5*
1,1,$1+$1,$6,$7*
1,1,$1+$1,$8,$9*
0 Add four rect primitives between the rounded corners*
20,1,$1+$1,$2,$3,$4,$5,0*
20,1,$1+$1,$4,$5,$6,$7,0*
20,1,$1+$1,$6,$7,$8,$9,0*
20,1,$1+$1,$8,$9,$2,$3,0*%
G04 Aperture macros list end*
%ADD10C,0.150000*%
%ADD11C,0.120000*%
%ADD12R,0.250000X0.750000*%
%ADD13RoundRect,0.250000X0.412500X0.650000X-0.412500X0.650000X-0.412500X-0.650000X0.412500X-0.650000X0*%
%ADD14RoundRect,0.250000X0.600000X-0.600000X0.600000X0.600000X-0.600000X0.600000X-0.600000X-0.600000X0*%
%ADD15C,1.700000*%
%ADD16C,1.270000*%
%ADD17C,0.640000*%
%ADD18RoundRect,0.250000X-0.412500X-0.650000X0.412500X-0.650000X0.412500X0.650000X-0.412500X0.650000X0*%
G04 APERTURE END LIST*
D10*
X136638820Y-88982677D02*
X137448343Y-88982677D01*
X137448343Y-88982677D02*
X137543581Y-88935058D01*
X137543581Y-88935058D02*
X137591201Y-88887439D01*
X137591201Y-88887439D02*
X137638820Y-88792201D01*
X137638820Y-88792201D02*
X137638820Y-88601725D01*
X137638820Y-88601725D02*
X137591201Y-88506487D01*
X137591201Y-88506487D02*
X137543581Y-88458868D01*
X137543581Y-88458868D02*
X137448343Y-88411249D01*
X137448343Y-88411249D02*
X136638820Y-88411249D01*
X137638820Y-87411249D02*
X137638820Y-87982677D01*
X137638820Y-87696963D02*
X136638820Y-87696963D01*
X136638820Y-87696963D02*
X136781677Y-87792201D01*
X136781677Y-87792201D02*
X136876915Y-87887439D01*
X136876915Y-87887439D02*
X136924534Y-87982677D01*
X135747334Y-88779353D02*
X135699715Y-88826973D01*
X135699715Y-88826973D02*
X135556858Y-88874592D01*
X135556858Y-88874592D02*
X135461620Y-88874592D01*
X135461620Y-88874592D02*
X135318763Y-88826973D01*
X135318763Y-88826973D02*
X135223525Y-88731734D01*
X135223525Y-88731734D02*
X135175906Y-88636496D01*
X135175906Y-88636496D02*
X135128287Y-88446020D01*
X135128287Y-88446020D02*
X135128287Y-88303163D01*
X135128287Y-88303163D02*
X135175906Y-88112687D01*
X135175906Y-88112687D02*
X135223525Y-88017449D01*
X135223525Y-88017449D02*
X135318763Y-87922211D01*
X135318763Y-87922211D02*
X135461620Y-87874592D01*
X135461620Y-87874592D02*
X135556858Y-87874592D01*
X135556858Y-87874592D02*
X135699715Y-87922211D01*
X135699715Y-87922211D02*
X135747334Y-87969830D01*
X136699715Y-88874592D02*
X136128287Y-88874592D01*
X136414001Y-88874592D02*
X136414001Y-87874592D01*
X136414001Y-87874592D02*
X136318763Y-88017449D01*
X136318763Y-88017449D02*
X136223525Y-88112687D01*
X136223525Y-88112687D02*
X136128287Y-88160306D01*
X115206667Y-91651592D02*
X115206667Y-92365877D01*
X115206667Y-92365877D02*
X115159048Y-92508734D01*
X115159048Y-92508734D02*
X115063810Y-92603973D01*
X115063810Y-92603973D02*
X114920953Y-92651592D01*
X114920953Y-92651592D02*
X114825715Y-92651592D01*
X115587620Y-91651592D02*
X116206667Y-91651592D01*
X116206667Y-91651592D02*
X115873334Y-92032544D01*
X115873334Y-92032544D02*
X116016191Y-92032544D01*
X116016191Y-92032544D02*
X116111429Y-92080163D01*
X116111429Y-92080163D02*
X116159048Y-92127782D01*
X116159048Y-92127782D02*
X116206667Y-92223020D01*
X116206667Y-92223020D02*
X116206667Y-92461115D01*
X116206667Y-92461115D02*
X116159048Y-92556353D01*
X116159048Y-92556353D02*
X116111429Y-92603973D01*
X116111429Y-92603973D02*
X116016191Y-92651592D01*
X116016191Y-92651592D02*
X115730477Y-92651592D01*
X115730477Y-92651592D02*
X115635239Y-92603973D01*
X115635239Y-92603973D02*
X115587620Y-92556353D01*
X181186667Y-86531592D02*
X181186667Y-87245877D01*
X181186667Y-87245877D02*
X181139048Y-87388734D01*
X181139048Y-87388734D02*
X181043810Y-87483973D01*
X181043810Y-87483973D02*
X180900953Y-87531592D01*
X180900953Y-87531592D02*
X180805715Y-87531592D01*
X181805715Y-86960163D02*
X181710477Y-86912544D01*
X181710477Y-86912544D02*
X181662858Y-86864925D01*
X181662858Y-86864925D02*
X181615239Y-86769687D01*
X181615239Y-86769687D02*
X181615239Y-86722068D01*
X181615239Y-86722068D02*
X181662858Y-86626830D01*
X181662858Y-86626830D02*
X181710477Y-86579211D01*
X181710477Y-86579211D02*
X181805715Y-86531592D01*
X181805715Y-86531592D02*
X181996191Y-86531592D01*
X181996191Y-86531592D02*
X182091429Y-86579211D01*
X182091429Y-86579211D02*
X182139048Y-86626830D01*
X182139048Y-86626830D02*
X182186667Y-86722068D01*
X182186667Y-86722068D02*
X182186667Y-86769687D01*
X182186667Y-86769687D02*
X182139048Y-86864925D01*
X182139048Y-86864925D02*
X182091429Y-86912544D01*
X182091429Y-86912544D02*
X181996191Y-86960163D01*
X181996191Y-86960163D02*
X181805715Y-86960163D01*
X181805715Y-86960163D02*
X181710477Y-87007782D01*
X181710477Y-87007782D02*
X181662858Y-87055401D01*
X181662858Y-87055401D02*
X181615239Y-87150639D01*
X181615239Y-87150639D02*
X181615239Y-87341115D01*
X181615239Y-87341115D02*
X181662858Y-87436353D01*
X181662858Y-87436353D02*
X181710477Y-87483973D01*
X181710477Y-87483973D02*
X181805715Y-87531592D01*
X181805715Y-87531592D02*
X181996191Y-87531592D01*
X181996191Y-87531592D02*
X182091429Y-87483973D01*
X182091429Y-87483973D02*
X182139048Y-87436353D01*
X182139048Y-87436353D02*
X182186667Y-87341115D01*
X182186667Y-87341115D02*
X182186667Y-87150639D01*
X182186667Y-87150639D02*
X182139048Y-87055401D01*
X182139048Y-87055401D02*
X182091429Y-87007782D01*
X182091429Y-87007782D02*
X181996191Y-86960163D01*
X135747334Y-88381353D02*
X135699715Y-88428973D01*
X135699715Y-88428973D02*
X135556858Y-88476592D01*
X135556858Y-88476592D02*
X135461620Y-88476592D01*
X135461620Y-88476592D02*
X135318763Y-88428973D01*
X135318763Y-88428973D02*
X135223525Y-88333734D01*
X135223525Y-88333734D02*
X135175906Y-88238496D01*
X135175906Y-88238496D02*
X135128287Y-88048020D01*
X135128287Y-88048020D02*
X135128287Y-87905163D01*
X135128287Y-87905163D02*
X135175906Y-87714687D01*
X135175906Y-87714687D02*
X135223525Y-87619449D01*
X135223525Y-87619449D02*
X135318763Y-87524211D01*
X135318763Y-87524211D02*
X135461620Y-87476592D01*
X135461620Y-87476592D02*
X135556858Y-87476592D01*
X135556858Y-87476592D02*
X135699715Y-87524211D01*
X135699715Y-87524211D02*
X135747334Y-87571830D01*
X136128287Y-87571830D02*
X136175906Y-87524211D01*
X136175906Y-87524211D02*
X136271144Y-87476592D01*
X136271144Y-87476592D02*
X136509239Y-87476592D01*
X136509239Y-87476592D02*
X136604477Y-87524211D01*
X136604477Y-87524211D02*
X136652096Y-87571830D01*
X136652096Y-87571830D02*
X136699715Y-87667068D01*
X136699715Y-87667068D02*
X136699715Y-87762306D01*
X136699715Y-87762306D02*
X136652096Y-87905163D01*
X136652096Y-87905163D02*
X136080668Y-88476592D01*
X136080668Y-88476592D02*
X136699715Y-88476592D01*
X128806667Y-103731592D02*
X128806667Y-104445877D01*
X128806667Y-104445877D02*
X128759048Y-104588734D01*
X128759048Y-104588734D02*
X128663810Y-104683973D01*
X128663810Y-104683973D02*
X128520953Y-104731592D01*
X128520953Y-104731592D02*
X128425715Y-104731592D01*
X129711429Y-103731592D02*
X129520953Y-103731592D01*
X129520953Y-103731592D02*
X129425715Y-103779211D01*
X129425715Y-103779211D02*
X129378096Y-103826830D01*
X129378096Y-103826830D02*
X129282858Y-103969687D01*
X129282858Y-103969687D02*
X129235239Y-104160163D01*
X129235239Y-104160163D02*
X129235239Y-104541115D01*
X129235239Y-104541115D02*
X129282858Y-104636353D01*
X129282858Y-104636353D02*
X129330477Y-104683973D01*
X129330477Y-104683973D02*
X129425715Y-104731592D01*
X129425715Y-104731592D02*
X129616191Y-104731592D01*
X129616191Y-104731592D02*
X129711429Y-104683973D01*
X129711429Y-104683973D02*
X129759048Y-104636353D01*
X129759048Y-104636353D02*
X129806667Y-104541115D01*
X129806667Y-104541115D02*
X129806667Y-104303020D01*
X129806667Y-104303020D02*
X129759048Y-104207782D01*
X129759048Y-104207782D02*
X129711429Y-104160163D01*
X129711429Y-104160163D02*
X129616191Y-104112544D01*
X129616191Y-104112544D02*
X129425715Y-104112544D01*
X129425715Y-104112544D02*
X129330477Y-104160163D01*
X129330477Y-104160163D02*
X129282858Y-104207782D01*
X129282858Y-104207782D02*
X129235239Y-104303020D01*
X102125667Y-86913592D02*
X102125667Y-87627877D01*
X102125667Y-87627877D02*
X102078048Y-87770734D01*
X102078048Y-87770734D02*
X101982810Y-87865973D01*
X101982810Y-87865973D02*
X101839953Y-87913592D01*
X101839953Y-87913592D02*
X101744715Y-87913592D01*
X102506620Y-86913592D02*
X103173286Y-86913592D01*
X103173286Y-86913592D02*
X102744715Y-87913592D01*
D11*
%TO.C,U1*%
X138524001Y-89520773D02*
X138624001Y-89520773D01*
X138624001Y-89520773D02*
X138624001Y-89920773D01*
X140924001Y-89520773D02*
X140724001Y-89520773D01*
X140924001Y-89520773D02*
X140924001Y-86920773D01*
X138524001Y-86920773D02*
X138524001Y-89520773D01*
X138724001Y-86920773D02*
X138524001Y-86920773D01*
X140924001Y-86920773D02*
X140724001Y-86920773D01*
%TO.C,C1*%
X136625253Y-87479773D02*
X135202749Y-87479773D01*
X136625253Y-85659773D02*
X135202749Y-85659773D01*
%TO.C,J3*%
X127794001Y-102747273D02*
X128794001Y-102747273D01*
X128794001Y-102747273D02*
X128294001Y-101747273D01*
X128294001Y-101747273D02*
X127794001Y-102747273D01*
X117214001Y-101357273D02*
X117214001Y-92337273D01*
X140214001Y-101357273D02*
X140214001Y-100047273D01*
X167314001Y-101357273D02*
X117214001Y-101357273D01*
X124374001Y-100047273D02*
X124374001Y-93647273D01*
X140214001Y-100047273D02*
X124374001Y-100047273D01*
X144314001Y-100047273D02*
X144314001Y-101357273D01*
X144314001Y-100047273D02*
X144314001Y-100047273D01*
X160154001Y-100047273D02*
X144314001Y-100047273D01*
X124374001Y-93647273D02*
X160154001Y-93647273D01*
X160154001Y-93647273D02*
X160154001Y-100047273D01*
X117214001Y-92337273D02*
X167314001Y-92337273D01*
X167314001Y-92337273D02*
X167314001Y-101357273D01*
%TO.C,J8*%
X210295001Y-82036773D02*
X209495001Y-82036773D01*
X210295001Y-76116773D02*
X210295001Y-82036773D01*
X209755001Y-86046773D02*
X209755001Y-85046773D01*
X209495001Y-85801773D02*
X152655001Y-85801773D01*
X209495001Y-82036773D02*
X209495001Y-85801773D01*
X209495001Y-76116773D02*
X210295001Y-76116773D01*
X209495001Y-72351773D02*
X209495001Y-76116773D01*
X208755001Y-86046773D02*
X209755001Y-86046773D01*
X152650001Y-85796773D02*
X152650001Y-72356773D01*
X152650001Y-72351773D02*
X209495001Y-72351773D01*
%TO.C,C2*%
X135202749Y-88961773D02*
X136625253Y-88961773D01*
X135202749Y-90781773D02*
X136625253Y-90781773D01*
%TO.C,J6*%
X135414001Y-113474773D02*
X136414001Y-113474773D01*
X136414001Y-113474773D02*
X135914001Y-112474773D01*
X135914001Y-112474773D02*
X135414001Y-113474773D01*
X130704001Y-112084773D02*
X130704001Y-102964773D01*
X140214001Y-112084773D02*
X140214001Y-110774773D01*
X153824001Y-112084773D02*
X130704001Y-112084773D01*
X132004001Y-110774773D02*
X132004001Y-104274773D01*
X140214001Y-110774773D02*
X132004001Y-110774773D01*
X144314001Y-110774773D02*
X144314001Y-112084773D01*
X144314001Y-110774773D02*
X144314001Y-110774773D01*
X152524001Y-110774773D02*
X144314001Y-110774773D01*
X132004001Y-104274773D02*
X152524001Y-104274773D01*
X152524001Y-104274773D02*
X152524001Y-110774773D01*
X130704001Y-102964773D02*
X153824001Y-102964773D01*
X153824001Y-102964773D02*
X153824001Y-112084773D01*
%TO.C,J7*%
X131679001Y-82036773D02*
X130879001Y-82036773D01*
X131679001Y-76116773D02*
X131679001Y-82036773D01*
X131139001Y-86046773D02*
X131139001Y-85046773D01*
X130879001Y-85801773D02*
X74039001Y-85801773D01*
X130879001Y-82036773D02*
X130879001Y-85801773D01*
X130879001Y-76116773D02*
X131679001Y-76116773D01*
X130879001Y-72351773D02*
X130879001Y-76116773D01*
X130139001Y-86046773D02*
X131139001Y-86046773D01*
X74034001Y-85796773D02*
X74034001Y-72356773D01*
X74034001Y-72351773D02*
X130879001Y-72351773D01*
%TD*%
%LPC*%
D12*
%TO.C,U1*%
X138974001Y-89770773D03*
X139474001Y-89770773D03*
X139974001Y-89770773D03*
X140474001Y-89770773D03*
X140474001Y-86670773D03*
X139974001Y-86670773D03*
X139474001Y-86670773D03*
X138974001Y-86670773D03*
%TD*%
D13*
%TO.C,C1*%
X137476501Y-86569773D03*
X134351501Y-86569773D03*
%TD*%
D14*
%TO.C,J3*%
X128294001Y-98117273D03*
D15*
X128294001Y-95577273D03*
X130834001Y-98117273D03*
X130834001Y-95577273D03*
X133374001Y-98117273D03*
X133374001Y-95577273D03*
X135914001Y-98117273D03*
X135914001Y-95577273D03*
X138454001Y-98117273D03*
X138454001Y-95577273D03*
X140994001Y-98117273D03*
X140994001Y-95577273D03*
X143534001Y-98117273D03*
X143534001Y-95577273D03*
X146074001Y-98117273D03*
X146074001Y-95577273D03*
X148614001Y-98117273D03*
X148614001Y-95577273D03*
X151154001Y-98117273D03*
X151154001Y-95577273D03*
X153694001Y-98117273D03*
X153694001Y-95577273D03*
X156234001Y-98117273D03*
X156234001Y-95577273D03*
%TD*%
D16*
%TO.C,J8*%
X208710001Y-82126773D03*
X154329001Y-79076773D03*
D17*
X206285001Y-84791773D03*
X205015001Y-84791773D03*
X203745001Y-84791773D03*
X202475001Y-84791773D03*
X201205001Y-84791773D03*
X199935001Y-84791773D03*
X198665001Y-84791773D03*
X197395001Y-84791773D03*
X196125001Y-84791773D03*
X194855001Y-84791773D03*
X193585001Y-84791773D03*
X192315001Y-84791773D03*
X191045001Y-84791773D03*
X189775001Y-84791773D03*
X188505001Y-84791773D03*
X187235001Y-84791773D03*
X185965001Y-84791773D03*
X184695001Y-84791773D03*
X183425001Y-84791773D03*
X182160001Y-84791773D03*
X180880001Y-84791773D03*
X179615001Y-84791773D03*
X178345001Y-84791773D03*
X177075001Y-84791773D03*
X175805001Y-84791773D03*
X174535001Y-84791773D03*
X173265001Y-84791773D03*
X171995001Y-84791773D03*
X170725001Y-84791773D03*
X169455001Y-84791773D03*
X168185001Y-84791773D03*
X166915001Y-84791773D03*
X165645001Y-84791773D03*
X164375001Y-84791773D03*
X163105001Y-84791773D03*
X161835001Y-84791773D03*
X160565001Y-84791773D03*
X159295001Y-84791773D03*
X158025001Y-84791773D03*
X156755001Y-84791773D03*
X206285001Y-83521773D03*
X205015001Y-83521773D03*
X203745001Y-83521773D03*
X202475001Y-83521773D03*
X201205001Y-83521773D03*
X199935001Y-83521773D03*
X198665001Y-83521773D03*
X197395001Y-83521773D03*
X196125001Y-83521773D03*
X194855001Y-83521773D03*
X193585001Y-83521773D03*
X192315001Y-83521773D03*
X191045001Y-83521773D03*
X189775001Y-83521773D03*
X188505001Y-83521773D03*
X187235001Y-83521773D03*
X185965001Y-83521773D03*
X184695001Y-83521773D03*
X183425001Y-83521773D03*
X182160001Y-83521773D03*
X180880001Y-83521773D03*
X179615001Y-83521773D03*
X178345001Y-83521773D03*
X177075001Y-83521773D03*
X175805001Y-83521773D03*
X174535001Y-83521773D03*
X173265001Y-83521773D03*
X171995001Y-83521773D03*
X170725001Y-83521773D03*
X169455001Y-83521773D03*
X168185001Y-83521773D03*
X166915001Y-83521773D03*
X165645001Y-83521773D03*
X164375001Y-83521773D03*
X163105001Y-83521773D03*
X161835001Y-83521773D03*
X160565001Y-83521773D03*
X159295001Y-83521773D03*
X158025001Y-83521773D03*
X156755001Y-83521773D03*
X206285001Y-82251773D03*
X205015001Y-82251773D03*
X203745001Y-82251773D03*
X202475001Y-82251773D03*
X201205001Y-82251773D03*
X199935001Y-82251773D03*
X198665001Y-82251773D03*
X197395001Y-82251773D03*
X196125001Y-82251773D03*
X194855001Y-82251773D03*
X193585001Y-82251773D03*
X192315001Y-82251773D03*
X191045001Y-82251773D03*
X189775001Y-82251773D03*
X188505001Y-82251773D03*
X187235001Y-82251773D03*
X185965001Y-82251773D03*
X184695001Y-82251773D03*
X183425001Y-82251773D03*
X182160001Y-82251773D03*
X180880001Y-82251773D03*
X179615001Y-82251773D03*
X178345001Y-82251773D03*
X177075001Y-82251773D03*
X175805001Y-82251773D03*
X174535001Y-82251773D03*
X173265001Y-82251773D03*
X171995001Y-82251773D03*
X170725001Y-82251773D03*
X169455001Y-82251773D03*
X168185001Y-82251773D03*
X166915001Y-82251773D03*
X165645001Y-82251773D03*
X164375001Y-82251773D03*
X163105001Y-82251773D03*
X161835001Y-82251773D03*
X160565001Y-82251773D03*
X159295001Y-82251773D03*
X158025001Y-82251773D03*
X156755001Y-82251773D03*
X206285001Y-80981773D03*
X205015001Y-80981773D03*
X203745001Y-80981773D03*
X202475001Y-80981773D03*
X201205001Y-80981773D03*
X199935001Y-80981773D03*
X198665001Y-80981773D03*
X197395001Y-80981773D03*
X196125001Y-80981773D03*
X194855001Y-80981773D03*
X193585001Y-80981773D03*
X192315001Y-80981773D03*
X191045001Y-80981773D03*
X189775001Y-80981773D03*
X188505001Y-80981773D03*
X187235001Y-80981773D03*
X185965001Y-80981773D03*
X184695001Y-80981773D03*
X183425001Y-80981773D03*
X182160001Y-80981773D03*
X180880001Y-80981773D03*
X179615001Y-80981773D03*
X178345001Y-80981773D03*
X177075001Y-80981773D03*
X175805001Y-80981773D03*
X174535001Y-80981773D03*
X173265001Y-80981773D03*
X171995001Y-80981773D03*
X170725001Y-80981773D03*
X169455001Y-80981773D03*
X168185001Y-80981773D03*
X166915001Y-80981773D03*
X165645001Y-80981773D03*
X164375001Y-80981773D03*
X163105001Y-80981773D03*
X161835001Y-80981773D03*
X160565001Y-80981773D03*
X159295001Y-80981773D03*
X158025001Y-80981773D03*
X156755001Y-80981773D03*
X206285001Y-79716773D03*
X205015001Y-79716773D03*
X203745001Y-79716773D03*
X202475001Y-79716773D03*
X201205001Y-79716773D03*
X199935001Y-79716773D03*
X198665001Y-79716773D03*
X197395001Y-79716773D03*
X196125001Y-79716773D03*
X194855001Y-79716773D03*
X193585001Y-79716773D03*
X192315001Y-79716773D03*
X191045001Y-79716773D03*
X189775001Y-79716773D03*
X188505001Y-79716773D03*
X187235001Y-79716773D03*
X185965001Y-79716773D03*
X184695001Y-79716773D03*
X183425001Y-79716773D03*
X182160001Y-79716773D03*
X180880001Y-79716773D03*
X179615001Y-79716773D03*
X178345001Y-79716773D03*
X177075001Y-79716773D03*
X175805001Y-79716773D03*
X174535001Y-79716773D03*
X173265001Y-79716773D03*
X171995001Y-79716773D03*
X170725001Y-79716773D03*
X169455001Y-79716773D03*
X168185001Y-79716773D03*
X166915001Y-79716773D03*
X165645001Y-79716773D03*
X164375001Y-79716773D03*
X163105001Y-79716773D03*
X161835001Y-79716773D03*
X160565001Y-79716773D03*
X159295001Y-79716773D03*
X158025001Y-79716773D03*
X156755001Y-79716773D03*
X206285001Y-78436773D03*
X205015001Y-78436773D03*
X203745001Y-78436773D03*
X202475001Y-78436773D03*
X201205001Y-78436773D03*
X199935001Y-78436773D03*
X198665001Y-78436773D03*
X197395001Y-78436773D03*
X196125001Y-78436773D03*
X194855001Y-78436773D03*
X193585001Y-78436773D03*
X192315001Y-78436773D03*
X191045001Y-78436773D03*
X189775001Y-78436773D03*
X188505001Y-78436773D03*
X187235001Y-78436773D03*
X185965001Y-78436773D03*
X184695001Y-78436773D03*
X183425001Y-78436773D03*
X182160001Y-78436773D03*
X180880001Y-78436773D03*
X179615001Y-78436773D03*
X178345001Y-78436773D03*
X177075001Y-78436773D03*
X175805001Y-78436773D03*
X174535001Y-78436773D03*
X173265001Y-78436773D03*
X171995001Y-78436773D03*
X170725001Y-78436773D03*
X169455001Y-78436773D03*
X168185001Y-78436773D03*
X166915001Y-78436773D03*
X165645001Y-78436773D03*
X164375001Y-78436773D03*
X163105001Y-78436773D03*
X161835001Y-78436773D03*
X160565001Y-78436773D03*
X159295001Y-78436773D03*
X158025001Y-78436773D03*
X156755001Y-78436773D03*
X206285001Y-77171773D03*
X205015001Y-77171773D03*
X203745001Y-77171773D03*
X202475001Y-77171773D03*
X201205001Y-77171773D03*
X199935001Y-77171773D03*
X198665001Y-77171773D03*
X197395001Y-77171773D03*
X196125001Y-77171773D03*
X194855001Y-77171773D03*
X193585001Y-77171773D03*
X192315001Y-77171773D03*
X191045001Y-77171773D03*
X189775001Y-77171773D03*
X188505001Y-77171773D03*
X187235001Y-77171773D03*
X185965001Y-77171773D03*
X184695001Y-77171773D03*
X183425001Y-77171773D03*
X182160001Y-77171773D03*
X180880001Y-77171773D03*
X179615001Y-77171773D03*
X178345001Y-77171773D03*
X177075001Y-77171773D03*
X175805001Y-77171773D03*
X174535001Y-77171773D03*
X173265001Y-77171773D03*
X171995001Y-77171773D03*
X170725001Y-77171773D03*
X169455001Y-77171773D03*
X168185001Y-77171773D03*
X166915001Y-77171773D03*
X165645001Y-77171773D03*
X164375001Y-77171773D03*
X163105001Y-77171773D03*
X161835001Y-77171773D03*
X160565001Y-77171773D03*
X159295001Y-77171773D03*
X158025001Y-77171773D03*
X156755001Y-77171773D03*
X206285001Y-75901773D03*
X205015001Y-75901773D03*
X203745001Y-75901773D03*
X202475001Y-75901773D03*
X201205001Y-75901773D03*
X199935001Y-75901773D03*
X198665001Y-75901773D03*
X197395001Y-75901773D03*
X196125001Y-75901773D03*
X194855001Y-75901773D03*
X193585001Y-75901773D03*
X192315001Y-75901773D03*
X191045001Y-75901773D03*
X189775001Y-75901773D03*
X188505001Y-75901773D03*
X187235001Y-75901773D03*
X185965001Y-75901773D03*
X184695001Y-75901773D03*
X183425001Y-75901773D03*
X182160001Y-75901773D03*
X180880001Y-75901773D03*
X179615001Y-75901773D03*
X178345001Y-75901773D03*
X177075001Y-75901773D03*
X175805001Y-75901773D03*
X174535001Y-75901773D03*
X173265001Y-75901773D03*
X171995001Y-75901773D03*
X170725001Y-75901773D03*
X169455001Y-75901773D03*
X168185001Y-75901773D03*
X166915001Y-75901773D03*
X165645001Y-75901773D03*
X164375001Y-75901773D03*
X163105001Y-75901773D03*
X161835001Y-75901773D03*
X160565001Y-75901773D03*
X159295001Y-75901773D03*
X158025001Y-75901773D03*
X156755001Y-75901773D03*
X206285001Y-74631773D03*
X205015001Y-74631773D03*
X203745001Y-74631773D03*
X202475001Y-74631773D03*
X201205001Y-74631773D03*
X199935001Y-74631773D03*
X198665001Y-74631773D03*
X197395001Y-74631773D03*
X196125001Y-74631773D03*
X194855001Y-74631773D03*
X193585001Y-74631773D03*
X192315001Y-74631773D03*
X191045001Y-74631773D03*
X189775001Y-74631773D03*
X188505001Y-74631773D03*
X187235001Y-74631773D03*
X185965001Y-74631773D03*
X184695001Y-74631773D03*
X183425001Y-74631773D03*
X182160001Y-74631773D03*
X180880001Y-74631773D03*
X179615001Y-74631773D03*
X178345001Y-74631773D03*
X177075001Y-74631773D03*
X175805001Y-74631773D03*
X174535001Y-74631773D03*
X173265001Y-74631773D03*
X171995001Y-74631773D03*
X170725001Y-74631773D03*
X169455001Y-74631773D03*
X168185001Y-74631773D03*
X166915001Y-74631773D03*
X165645001Y-74631773D03*
X164375001Y-74631773D03*
X163105001Y-74631773D03*
X161835001Y-74631773D03*
X160565001Y-74631773D03*
X159295001Y-74631773D03*
X158025001Y-74631773D03*
X156755001Y-74631773D03*
X206285001Y-73361773D03*
X205015001Y-73361773D03*
X203745001Y-73361773D03*
X202475001Y-73361773D03*
X201205001Y-73361773D03*
X199935001Y-73361773D03*
X198665001Y-73361773D03*
X197395001Y-73361773D03*
X196125001Y-73361773D03*
X194855001Y-73361773D03*
X193585001Y-73361773D03*
X192315001Y-73361773D03*
X191045001Y-73361773D03*
X189775001Y-73361773D03*
X188505001Y-73361773D03*
X187235001Y-73361773D03*
X185965001Y-73361773D03*
X184695001Y-73361773D03*
X183425001Y-73361773D03*
X182160001Y-73361773D03*
X180880001Y-73361773D03*
X179615001Y-73361773D03*
X178345001Y-73361773D03*
X177075001Y-73361773D03*
X175805001Y-73361773D03*
X174535001Y-73361773D03*
X173265001Y-73361773D03*
X171995001Y-73361773D03*
X170725001Y-73361773D03*
X169455001Y-73361773D03*
X168185001Y-73361773D03*
X166915001Y-73361773D03*
X165645001Y-73361773D03*
X164375001Y-73361773D03*
X163105001Y-73361773D03*
X161835001Y-73361773D03*
X160565001Y-73361773D03*
X159295001Y-73361773D03*
X158025001Y-73361773D03*
X156755001Y-73361773D03*
%TD*%
D18*
%TO.C,C2*%
X134351501Y-89871773D03*
X137476501Y-89871773D03*
%TD*%
D14*
%TO.C,J6*%
X135914001Y-108794773D03*
D15*
X135914001Y-106254773D03*
X138454001Y-108794773D03*
X138454001Y-106254773D03*
X140994001Y-108794773D03*
X140994001Y-106254773D03*
X143534001Y-108794773D03*
X143534001Y-106254773D03*
X146074001Y-108794773D03*
X146074001Y-106254773D03*
X148614001Y-108794773D03*
X148614001Y-106254773D03*
%TD*%
D16*
%TO.C,J7*%
X130094001Y-82126773D03*
X75713001Y-79076773D03*
D17*
X127669001Y-84791773D03*
X126399001Y-84791773D03*
X125129001Y-84791773D03*
X123859001Y-84791773D03*
X122589001Y-84791773D03*
X121319001Y-84791773D03*
X120049001Y-84791773D03*
X118779001Y-84791773D03*
X117509001Y-84791773D03*
X116239001Y-84791773D03*
X114969001Y-84791773D03*
X113699001Y-84791773D03*
X112429001Y-84791773D03*
X111159001Y-84791773D03*
X109889001Y-84791773D03*
X108619001Y-84791773D03*
X107349001Y-84791773D03*
X106079001Y-84791773D03*
X104809001Y-84791773D03*
X103544001Y-84791773D03*
X102264001Y-84791773D03*
X100999001Y-84791773D03*
X99729001Y-84791773D03*
X98459001Y-84791773D03*
X97189001Y-84791773D03*
X95919001Y-84791773D03*
X94649001Y-84791773D03*
X93379001Y-84791773D03*
X92109001Y-84791773D03*
X90839001Y-84791773D03*
X89569001Y-84791773D03*
X88299001Y-84791773D03*
X87029001Y-84791773D03*
X85759001Y-84791773D03*
X84489001Y-84791773D03*
X83219001Y-84791773D03*
X81949001Y-84791773D03*
X80679001Y-84791773D03*
X79409001Y-84791773D03*
X78139001Y-84791773D03*
X127669001Y-83521773D03*
X126399001Y-83521773D03*
X125129001Y-83521773D03*
X123859001Y-83521773D03*
X122589001Y-83521773D03*
X121319001Y-83521773D03*
X120049001Y-83521773D03*
X118779001Y-83521773D03*
X117509001Y-83521773D03*
X116239001Y-83521773D03*
X114969001Y-83521773D03*
X113699001Y-83521773D03*
X112429001Y-83521773D03*
X111159001Y-83521773D03*
X109889001Y-83521773D03*
X108619001Y-83521773D03*
X107349001Y-83521773D03*
X106079001Y-83521773D03*
X104809001Y-83521773D03*
X103544001Y-83521773D03*
X102264001Y-83521773D03*
X100999001Y-83521773D03*
X99729001Y-83521773D03*
X98459001Y-83521773D03*
X97189001Y-83521773D03*
X95919001Y-83521773D03*
X94649001Y-83521773D03*
X93379001Y-83521773D03*
X92109001Y-83521773D03*
X90839001Y-83521773D03*
X89569001Y-83521773D03*
X88299001Y-83521773D03*
X87029001Y-83521773D03*
X85759001Y-83521773D03*
X84489001Y-83521773D03*
X83219001Y-83521773D03*
X81949001Y-83521773D03*
X80679001Y-83521773D03*
X79409001Y-83521773D03*
X78139001Y-83521773D03*
X127669001Y-82251773D03*
X126399001Y-82251773D03*
X125129001Y-82251773D03*
X123859001Y-82251773D03*
X122589001Y-82251773D03*
X121319001Y-82251773D03*
X120049001Y-82251773D03*
X118779001Y-82251773D03*
X117509001Y-82251773D03*
X116239001Y-82251773D03*
X114969001Y-82251773D03*
X113699001Y-82251773D03*
X112429001Y-82251773D03*
X111159001Y-82251773D03*
X109889001Y-82251773D03*
X108619001Y-82251773D03*
X107349001Y-82251773D03*
X106079001Y-82251773D03*
X104809001Y-82251773D03*
X103544001Y-82251773D03*
X102264001Y-82251773D03*
X100999001Y-82251773D03*
X99729001Y-82251773D03*
X98459001Y-82251773D03*
X97189001Y-82251773D03*
X95919001Y-82251773D03*
X94649001Y-82251773D03*
X93379001Y-82251773D03*
X92109001Y-82251773D03*
X90839001Y-82251773D03*
X89569001Y-82251773D03*
X88299001Y-82251773D03*
X87029001Y-82251773D03*
X85759001Y-82251773D03*
X84489001Y-82251773D03*
X83219001Y-82251773D03*
X81949001Y-82251773D03*
X80679001Y-82251773D03*
X79409001Y-82251773D03*
X78139001Y-82251773D03*
X127669001Y-80981773D03*
X126399001Y-80981773D03*
X125129001Y-80981773D03*
X123859001Y-80981773D03*
X122589001Y-80981773D03*
X121319001Y-80981773D03*
X120049001Y-80981773D03*
X118779001Y-80981773D03*
X117509001Y-80981773D03*
X116239001Y-80981773D03*
X114969001Y-80981773D03*
X113699001Y-80981773D03*
X112429001Y-80981773D03*
X111159001Y-80981773D03*
X109889001Y-80981773D03*
X108619001Y-80981773D03*
X107349001Y-80981773D03*
X106079001Y-80981773D03*
X104809001Y-80981773D03*
X103544001Y-80981773D03*
X102264001Y-80981773D03*
X100999001Y-80981773D03*
X99729001Y-80981773D03*
X98459001Y-80981773D03*
X97189001Y-80981773D03*
X95919001Y-80981773D03*
X94649001Y-80981773D03*
X93379001Y-80981773D03*
X92109001Y-80981773D03*
X90839001Y-80981773D03*
X89569001Y-80981773D03*
X88299001Y-80981773D03*
X87029001Y-80981773D03*
X85759001Y-80981773D03*
X84489001Y-80981773D03*
X83219001Y-80981773D03*
X81949001Y-80981773D03*
X80679001Y-80981773D03*
X79409001Y-80981773D03*
X78139001Y-80981773D03*
X127669001Y-79716773D03*
X126399001Y-79716773D03*
X125129001Y-79716773D03*
X123859001Y-79716773D03*
X122589001Y-79716773D03*
X121319001Y-79716773D03*
X120049001Y-79716773D03*
X118779001Y-79716773D03*
X117509001Y-79716773D03*
X116239001Y-79716773D03*
X114969001Y-79716773D03*
X113699001Y-79716773D03*
X112429001Y-79716773D03*
X111159001Y-79716773D03*
X109889001Y-79716773D03*
X108619001Y-79716773D03*
X107349001Y-79716773D03*
X106079001Y-79716773D03*
X104809001Y-79716773D03*
X103544001Y-79716773D03*
X102264001Y-79716773D03*
X100999001Y-79716773D03*
X99729001Y-79716773D03*
X98459001Y-79716773D03*
X97189001Y-79716773D03*
X95919001Y-79716773D03*
X94649001Y-79716773D03*
X93379001Y-79716773D03*
X92109001Y-79716773D03*
X90839001Y-79716773D03*
X89569001Y-79716773D03*
X88299001Y-79716773D03*
X87029001Y-79716773D03*
X85759001Y-79716773D03*
X84489001Y-79716773D03*
X83219001Y-79716773D03*
X81949001Y-79716773D03*
X80679001Y-79716773D03*
X79409001Y-79716773D03*
X78139001Y-79716773D03*
X127669001Y-78436773D03*
X126399001Y-78436773D03*
X125129001Y-78436773D03*
X123859001Y-78436773D03*
X122589001Y-78436773D03*
X121319001Y-78436773D03*
X120049001Y-78436773D03*
X118779001Y-78436773D03*
X117509001Y-78436773D03*
X116239001Y-78436773D03*
X114969001Y-78436773D03*
X113699001Y-78436773D03*
X112429001Y-78436773D03*
X111159001Y-78436773D03*
X109889001Y-78436773D03*
X108619001Y-78436773D03*
X107349001Y-78436773D03*
X106079001Y-78436773D03*
X104809001Y-78436773D03*
X103544001Y-78436773D03*
X102264001Y-78436773D03*
X100999001Y-78436773D03*
X99729001Y-78436773D03*
X98459001Y-78436773D03*
X97189001Y-78436773D03*
X95919001Y-78436773D03*
X94649001Y-78436773D03*
X93379001Y-78436773D03*
X92109001Y-78436773D03*
X90839001Y-78436773D03*
X89569001Y-78436773D03*
X88299001Y-78436773D03*
X87029001Y-78436773D03*
X85759001Y-78436773D03*
X84489001Y-78436773D03*
X83219001Y-78436773D03*
X81949001Y-78436773D03*
X80679001Y-78436773D03*
X79409001Y-78436773D03*
X78139001Y-78436773D03*
X127669001Y-77171773D03*
X126399001Y-77171773D03*
X125129001Y-77171773D03*
X123859001Y-77171773D03*
X122589001Y-77171773D03*
X121319001Y-77171773D03*
X120049001Y-77171773D03*
X118779001Y-77171773D03*
X117509001Y-77171773D03*
X116239001Y-77171773D03*
X114969001Y-77171773D03*
X113699001Y-77171773D03*
X112429001Y-77171773D03*
X111159001Y-77171773D03*
X109889001Y-77171773D03*
X108619001Y-77171773D03*
X107349001Y-77171773D03*
X106079001Y-77171773D03*
X104809001Y-77171773D03*
X103544001Y-77171773D03*
X102264001Y-77171773D03*
X100999001Y-77171773D03*
X99729001Y-77171773D03*
X98459001Y-77171773D03*
X97189001Y-77171773D03*
X95919001Y-77171773D03*
X94649001Y-77171773D03*
X93379001Y-77171773D03*
X92109001Y-77171773D03*
X90839001Y-77171773D03*
X89569001Y-77171773D03*
X88299001Y-77171773D03*
X87029001Y-77171773D03*
X85759001Y-77171773D03*
X84489001Y-77171773D03*
X83219001Y-77171773D03*
X81949001Y-77171773D03*
X80679001Y-77171773D03*
X79409001Y-77171773D03*
X78139001Y-77171773D03*
X127669001Y-75901773D03*
X126399001Y-75901773D03*
X125129001Y-75901773D03*
X123859001Y-75901773D03*
X122589001Y-75901773D03*
X121319001Y-75901773D03*
X120049001Y-75901773D03*
X118779001Y-75901773D03*
X117509001Y-75901773D03*
X116239001Y-75901773D03*
X114969001Y-75901773D03*
X113699001Y-75901773D03*
X112429001Y-75901773D03*
X111159001Y-75901773D03*
X109889001Y-75901773D03*
X108619001Y-75901773D03*
X107349001Y-75901773D03*
X106079001Y-75901773D03*
X104809001Y-75901773D03*
X103544001Y-75901773D03*
X102264001Y-75901773D03*
X100999001Y-75901773D03*
X99729001Y-75901773D03*
X98459001Y-75901773D03*
X97189001Y-75901773D03*
X95919001Y-75901773D03*
X94649001Y-75901773D03*
X93379001Y-75901773D03*
X92109001Y-75901773D03*
X90839001Y-75901773D03*
X89569001Y-75901773D03*
X88299001Y-75901773D03*
X87029001Y-75901773D03*
X85759001Y-75901773D03*
X84489001Y-75901773D03*
X83219001Y-75901773D03*
X81949001Y-75901773D03*
X80679001Y-75901773D03*
X79409001Y-75901773D03*
X78139001Y-75901773D03*
X127669001Y-74631773D03*
X126399001Y-74631773D03*
X125129001Y-74631773D03*
X123859001Y-74631773D03*
X122589001Y-74631773D03*
X121319001Y-74631773D03*
X120049001Y-74631773D03*
X118779001Y-74631773D03*
X117509001Y-74631773D03*
X116239001Y-74631773D03*
X114969001Y-74631773D03*
X113699001Y-74631773D03*
X112429001Y-74631773D03*
X111159001Y-74631773D03*
X109889001Y-74631773D03*
X108619001Y-74631773D03*
X107349001Y-74631773D03*
X106079001Y-74631773D03*
X104809001Y-74631773D03*
X103544001Y-74631773D03*
X102264001Y-74631773D03*
X100999001Y-74631773D03*
X99729001Y-74631773D03*
X98459001Y-74631773D03*
X97189001Y-74631773D03*
X95919001Y-74631773D03*
X94649001Y-74631773D03*
X93379001Y-74631773D03*
X92109001Y-74631773D03*
X90839001Y-74631773D03*
X89569001Y-74631773D03*
X88299001Y-74631773D03*
X87029001Y-74631773D03*
X85759001Y-74631773D03*
X84489001Y-74631773D03*
X83219001Y-74631773D03*
X81949001Y-74631773D03*
X80679001Y-74631773D03*
X79409001Y-74631773D03*
X78139001Y-74631773D03*
X127669001Y-73361773D03*
X126399001Y-73361773D03*
X125129001Y-73361773D03*
X123859001Y-73361773D03*
X122589001Y-73361773D03*
X121319001Y-73361773D03*
X120049001Y-73361773D03*
X118779001Y-73361773D03*
X117509001Y-73361773D03*
X116239001Y-73361773D03*
X114969001Y-73361773D03*
X113699001Y-73361773D03*
X112429001Y-73361773D03*
X111159001Y-73361773D03*
X109889001Y-73361773D03*
X108619001Y-73361773D03*
X107349001Y-73361773D03*
X106079001Y-73361773D03*
X104809001Y-73361773D03*
X103544001Y-73361773D03*
X102264001Y-73361773D03*
X100999001Y-73361773D03*
X99729001Y-73361773D03*
X98459001Y-73361773D03*
X97189001Y-73361773D03*
X95919001Y-73361773D03*
X94649001Y-73361773D03*
X93379001Y-73361773D03*
X92109001Y-73361773D03*
X90839001Y-73361773D03*
X89569001Y-73361773D03*
X88299001Y-73361773D03*
X87029001Y-73361773D03*
X85759001Y-73361773D03*
X84489001Y-73361773D03*
X83219001Y-73361773D03*
X81949001Y-73361773D03*
X80679001Y-73361773D03*
X79409001Y-73361773D03*
X78139001Y-73361773D03*
%TD*%
D16*
%TO.C,J1*%
X80020001Y-114126773D03*
X134402001Y-117176773D03*
%TD*%
%TO.C,J4*%
X150022001Y-114126773D03*
X204404001Y-117176773D03*
%TD*%
%TO.C,J5*%
X154329001Y-76026773D03*
X208711001Y-79076773D03*
%TD*%
%TO.C,J2*%
X75713001Y-76026773D03*
X130095001Y-79076773D03*
%TD*%
%LPD*%
M02*
