M48
; DRILL file {KiCad 7.0.10} date Tue Dec 17 00:03:32 2024
; FORMAT={-:-/ absolute / metric / decimal}
; #@! TF.CreationDate,2024-12-17T00:03:32-07:00
; #@! TF.GenerationSoftware,Kicad,Pcbnew,7.0.10
; #@! TF.FileFunction,Plated,1,8,PTH
FMAT,2
METRIC
; #@! TA.AperFunction,Plated,PTH,ViaDrill
T1C0.300
; #@! TA.AperFunction,Plated,PTH,ComponentDrill
T2C1.000
; #@! TA.AperFunction,Plated,PTH,ViaDrill
T3C2.700
%
G90
G05
T1
X76.986Y-77.172
X77.504Y-76.537
X77.504Y-77.807
X77.504Y-79.077
X77.504Y-80.347
X77.504Y-81.617
X77.505Y-75.267
X78.774Y-75.267
X78.774Y-76.537
X78.774Y-77.807
X78.774Y-79.077
X78.774Y-80.347
X78.774Y-81.617
X80.044Y-73.997
X80.044Y-76.537
X80.044Y-79.077
X80.044Y-80.347
X80.044Y-81.617
X80.044Y-82.887
X80.045Y-75.267
X80.137Y-96.266
X81.28Y-96.266
X81.304Y-115.272
X81.314Y-84.157
X81.315Y-73.997
X81.315Y-77.807
X81.315Y-80.347
X81.315Y-81.617
X81.333Y-72.713
X81.811Y-114.637
X81.811Y-115.907
X81.811Y-117.177
X81.811Y-118.447
X81.811Y-119.717
X81.812Y-113.367
X82.55Y-96.266
X82.584Y-81.617
X82.585Y-73.997
X82.585Y-75.267
X83.081Y-113.367
X83.081Y-114.637
X83.081Y-115.907
X83.081Y-117.177
X83.081Y-118.447
X83.081Y-119.717
X83.693Y-96.266
X83.854Y-73.997
X83.854Y-76.537
X83.854Y-79.077
X83.854Y-80.347
X83.854Y-81.617
X83.854Y-84.157
X83.855Y-77.807
X84.351Y-112.097
X84.351Y-114.637
X84.351Y-117.177
X84.351Y-118.447
X84.351Y-119.717
X84.351Y-120.987
X84.352Y-113.367
X85.114Y-75.267
X85.114Y-85.427
X85.114Y-96.266
X85.114Y-106.509
X85.125Y-79.077
X85.621Y-122.257
X85.622Y-112.097
X85.622Y-115.907
X85.622Y-118.447
X85.622Y-119.717
X86.384Y-75.267
X86.384Y-77.807
X86.384Y-85.427
X86.384Y-96.266
X86.384Y-106.509
X86.394Y-84.157
X86.891Y-119.717
X86.892Y-112.097
X86.892Y-113.367
X87.654Y-77.807
X87.654Y-85.427
X87.654Y-96.266
X87.654Y-106.509
X87.664Y-73.997
X87.664Y-76.537
X87.664Y-79.077
X87.664Y-81.617
X87.665Y-80.347
X88.161Y-112.097
X88.161Y-114.637
X88.161Y-117.177
X88.161Y-118.447
X88.161Y-119.717
X88.161Y-122.257
X88.162Y-115.907
X88.9Y-96.266
X88.9Y-106.509
X88.924Y-75.267
X88.934Y-84.157
X89.432Y-112.097
X89.432Y-113.367
X90.194Y-75.267
X90.194Y-85.427
X90.194Y-96.266
X90.194Y-106.509
X90.205Y-77.807
X90.701Y-122.257
X90.702Y-112.097
X90.702Y-113.367
X90.702Y-115.907
X91.464Y-85.427
X91.464Y-96.266
X91.464Y-106.509
X91.474Y-73.997
X91.474Y-76.537
X91.474Y-79.077
X91.474Y-84.157
X91.475Y-75.267
X91.475Y-77.807
X91.971Y-112.097
X91.971Y-114.637
X91.971Y-117.177
X91.971Y-119.717
X91.972Y-115.907
X92.734Y-85.427
X92.734Y-96.266
X92.734Y-106.509
X92.744Y-81.617
X92.745Y-75.267
X92.745Y-77.807
X93.241Y-122.257
X93.242Y-112.097
X93.242Y-113.367
X94.004Y-85.427
X94.004Y-96.266
X94.004Y-106.509
X94.014Y-84.157
X94.015Y-77.807
X94.015Y-80.347
X94.512Y-112.097
X94.512Y-113.367
X94.512Y-115.907
X95.274Y-81.617
X95.274Y-85.427
X95.274Y-96.266
X95.274Y-106.509
X95.284Y-73.997
X95.284Y-76.537
X95.284Y-79.077
X95.285Y-75.267
X95.285Y-80.347
X95.285Y-82.887
X95.781Y-112.097
X95.781Y-114.637
X95.781Y-117.177
X95.781Y-122.257
X95.782Y-113.367
X95.782Y-115.907
X96.544Y-85.427
X96.544Y-96.266
X96.544Y-106.509
X96.554Y-84.157
X96.555Y-75.267
X96.555Y-77.807
X96.555Y-82.887
X97.051Y-119.717
X97.052Y-113.367
X97.052Y-115.907
X97.814Y-85.427
X97.814Y-96.266
X97.814Y-106.509
X97.824Y-81.617
X97.825Y-77.807
X97.825Y-80.347
X98.321Y-122.257
X98.322Y-115.907
X98.322Y-118.447
X99.084Y-81.617
X99.084Y-85.427
X99.084Y-96.266
X99.084Y-106.509
X99.094Y-73.997
X99.094Y-76.537
X99.094Y-79.077
X99.094Y-84.157
X99.095Y-75.267
X99.095Y-80.347
X99.095Y-82.887
X99.591Y-112.097
X99.591Y-114.637
X99.591Y-117.177
X99.592Y-113.367
X99.592Y-118.447
X99.592Y-120.987
X100.354Y-84.157
X100.354Y-85.427
X100.354Y-96.266
X100.354Y-106.509
X100.365Y-75.267
X100.365Y-77.807
X100.365Y-82.887
X100.861Y-122.257
X100.862Y-112.097
X100.862Y-113.367
X100.862Y-114.637
X100.862Y-115.907
X100.862Y-120.987
X101.624Y-85.427
X101.624Y-96.266
X101.624Y-106.509
X101.634Y-81.617
X101.634Y-84.157
X101.635Y-77.807
X101.635Y-80.347
X101.635Y-82.887
X102.131Y-119.717
X102.132Y-112.097
X102.132Y-115.907
X102.132Y-118.447
X102.894Y-85.427
X102.894Y-96.266
X102.894Y-106.509
X102.904Y-73.997
X102.904Y-76.537
X102.905Y-75.267
X102.905Y-80.347
X102.905Y-82.887
X103.401Y-112.097
X103.401Y-114.637
X103.401Y-117.177
X103.401Y-122.257
X103.402Y-113.367
X103.402Y-118.447
X103.402Y-120.987
X104.164Y-85.427
X104.164Y-96.266
X104.164Y-106.509
X104.174Y-81.617
X104.174Y-84.157
X104.175Y-75.267
X104.175Y-77.807
X104.175Y-82.887
X104.672Y-112.097
X104.672Y-113.367
X104.672Y-114.637
X104.672Y-115.907
X104.672Y-120.987
X105.434Y-85.427
X105.434Y-96.266
X105.434Y-106.509
X105.445Y-77.807
X105.445Y-80.347
X105.445Y-82.887
X105.941Y-119.717
X105.941Y-122.257
X105.942Y-112.097
X105.942Y-115.907
X105.942Y-118.447
X105.942Y-120.987
X106.704Y-85.427
X106.704Y-96.266
X106.704Y-106.509
X106.714Y-73.997
X106.714Y-76.537
X106.714Y-79.077
X106.714Y-84.157
X106.715Y-75.267
X106.715Y-80.347
X107.211Y-112.097
X107.211Y-114.637
X107.212Y-113.367
X107.212Y-118.447
X107.212Y-120.987
X107.974Y-85.427
X107.974Y-96.266
X107.974Y-106.509
X107.984Y-81.617
X107.985Y-75.267
X107.985Y-77.807
X108.481Y-119.717
X108.481Y-122.257
X108.482Y-112.097
X108.482Y-113.367
X108.482Y-115.907
X108.482Y-120.987
X109.244Y-85.427
X109.244Y-96.266
X109.244Y-106.509
X109.254Y-84.157
X109.255Y-77.807
X109.255Y-80.347
X109.752Y-112.097
X109.752Y-114.637
X109.752Y-115.907
X109.752Y-117.177
X109.752Y-118.447
X109.752Y-120.987
X110.514Y-81.617
X110.514Y-85.427
X110.514Y-96.266
X110.514Y-106.509
X110.524Y-73.997
X110.524Y-76.537
X110.524Y-79.077
X110.525Y-75.267
X110.525Y-80.347
X110.525Y-82.887
X111.021Y-112.097
X111.021Y-114.637
X111.021Y-117.177
X111.021Y-122.257
X111.022Y-113.367
X111.022Y-118.447
X111.784Y-85.427
X111.784Y-96.266
X111.784Y-106.509
X111.794Y-84.157
X111.795Y-75.267
X111.795Y-77.807
X111.795Y-82.887
X112.291Y-119.717
X112.292Y-112.097
X112.292Y-113.367
X112.292Y-115.907
X113.054Y-85.427
X113.054Y-96.266
X113.054Y-106.509
X113.064Y-81.617
X113.065Y-77.807
X113.065Y-80.347
X113.561Y-122.257
X113.562Y-112.097
X113.562Y-115.907
X113.562Y-118.447
X114.324Y-85.427
X114.324Y-96.266
X114.324Y-106.509
X114.334Y-73.997
X114.334Y-76.537
X114.334Y-79.077
X114.334Y-84.157
X114.335Y-80.347
X114.335Y-82.887
X114.831Y-112.097
X114.831Y-114.637
X114.831Y-117.177
X114.832Y-113.367
X114.832Y-118.447
X114.832Y-120.987
X115.594Y-85.427
X115.594Y-96.266
X115.594Y-106.509
X115.605Y-75.267
X115.605Y-82.887
X116.101Y-122.257
X116.102Y-112.097
X116.102Y-113.367
X116.102Y-114.637
X116.102Y-115.907
X116.102Y-120.987
X116.864Y-85.427
X116.864Y-96.266
X116.864Y-106.509
X116.874Y-81.617
X116.874Y-84.157
X116.875Y-75.267
X116.875Y-77.807
X117.371Y-119.717
X117.372Y-112.097
X117.372Y-115.907
X117.372Y-118.447
X118.134Y-85.427
X118.134Y-96.266
X118.134Y-106.509
X118.144Y-73.997
X118.144Y-76.537
X118.144Y-79.077
X118.145Y-77.807
X118.145Y-80.347
X118.641Y-112.097
X118.641Y-114.637
X118.641Y-117.177
X118.641Y-122.257
X118.642Y-118.447
X118.642Y-120.987
X119.404Y-85.427
X119.404Y-96.266
X119.404Y-106.509
X119.414Y-81.617
X119.414Y-84.157
X119.415Y-76.537
X119.415Y-80.347
X119.912Y-112.097
X119.912Y-113.367
X119.912Y-120.987
X120.674Y-85.427
X120.674Y-96.266
X120.674Y-106.509
X120.685Y-76.537
X120.685Y-77.807
X121.181Y-119.717
X121.181Y-122.257
X121.182Y-112.097
X121.182Y-113.367
X121.182Y-115.907
X121.944Y-85.427
X121.944Y-96.266
X121.944Y-106.509
X121.954Y-73.997
X121.954Y-76.537
X121.954Y-79.077
X121.954Y-81.617
X121.954Y-84.157
X121.955Y-75.267
X121.955Y-77.807
X122.451Y-112.097
X122.451Y-114.637
X122.451Y-117.177
X122.452Y-115.907
X122.452Y-118.447
X123.214Y-85.427
X123.214Y-96.266
X123.214Y-106.509
X123.225Y-75.267
X123.225Y-80.347
X123.721Y-119.717
X123.721Y-122.257
X123.722Y-112.097
X123.722Y-114.637
X123.722Y-118.447
X124.484Y-85.427
X124.484Y-96.266
X124.484Y-106.509
X124.494Y-73.997
X124.494Y-76.537
X124.494Y-79.077
X124.494Y-81.617
X124.494Y-84.157
X124.495Y-80.347
X124.992Y-112.097
X124.992Y-114.637
X124.992Y-115.907
X126.261Y-112.097
X126.261Y-114.637
X126.261Y-117.177
X126.261Y-119.717
X126.261Y-122.257
X126.262Y-113.367
X126.262Y-115.907
X127.034Y-73.997
X127.034Y-76.537
X127.034Y-79.077
X127.034Y-81.617
X127.034Y-84.157
X127.532Y-112.097
X127.532Y-113.367
X127.532Y-118.447
X128.801Y-112.097
X128.801Y-114.637
X128.801Y-117.177
X128.801Y-119.717
X128.801Y-122.257
X128.802Y-118.447
X128.93Y-106.34
X130.072Y-115.907
X130.2Y-106.34
X131.341Y-112.097
X131.341Y-114.637
X131.341Y-117.177
X131.341Y-119.717
X131.341Y-122.257
X131.342Y-115.907
X136.525Y-110.363
X136.93Y-83.903
X136.93Y-84.792
X136.93Y-91.65
X136.93Y-92.539
X137.819Y-83.903
X137.819Y-84.792
X137.819Y-91.65
X137.819Y-92.539
X137.84Y-110.363
X139.343Y-87.713
X139.343Y-88.602
X140.232Y-87.713
X140.232Y-88.602
X141.63Y-104.91
X142.9Y-104.91
X143.05Y-122.88
X143.05Y-124.17
X151.281Y-115.272
X151.814Y-113.367
X151.814Y-114.637
X151.814Y-115.907
X151.814Y-117.177
X151.814Y-118.447
X151.814Y-119.717
X153.084Y-113.367
X153.084Y-114.637
X153.084Y-115.907
X153.084Y-117.177
X153.084Y-118.447
X153.084Y-119.717
X154.354Y-112.097
X154.354Y-114.637
X154.354Y-117.177
X154.354Y-118.447
X154.354Y-119.717
X154.354Y-120.987
X155.599Y-77.172
X155.624Y-118.447
X155.624Y-119.717
X155.624Y-122.257
X156.121Y-75.267
X156.121Y-76.537
X156.121Y-77.807
X156.121Y-79.077
X156.121Y-80.347
X156.121Y-81.617
X156.894Y-119.717
X157.391Y-75.267
X157.391Y-76.537
X157.391Y-77.807
X157.391Y-79.077
X157.391Y-80.347
X157.391Y-81.617
X158.164Y-112.097
X158.164Y-114.637
X158.164Y-117.177
X158.164Y-118.447
X158.164Y-119.717
X158.164Y-122.257
X158.661Y-72.727
X158.661Y-73.997
X158.661Y-75.267
X158.661Y-76.537
X158.661Y-79.077
X158.661Y-80.347
X158.661Y-81.617
X158.661Y-82.887
X159.931Y-73.997
X159.931Y-75.267
X159.931Y-77.807
X159.931Y-80.347
X159.931Y-81.617
X159.931Y-84.157
X160.704Y-122.257
X161.201Y-73.997
X161.201Y-77.807
X161.201Y-81.617
X161.974Y-112.097
X161.974Y-113.367
X161.974Y-114.637
X161.974Y-117.177
X161.974Y-119.717
X162.471Y-73.997
X162.471Y-75.267
X162.471Y-76.537
X162.471Y-79.077
X162.471Y-80.347
X162.471Y-81.617
X162.471Y-84.157
X162.471Y-87.459
X163.24Y-112.097
X163.244Y-113.367
X163.244Y-115.907
X163.244Y-122.257
X163.741Y-75.267
X163.741Y-77.807
X163.741Y-87.459
X164.362Y-71.711
X164.362Y-88.729
X164.51Y-112.097
X164.514Y-115.907
X165.011Y-77.807
X165.011Y-80.347
X165.011Y-84.157
X165.632Y-88.729
X165.784Y-112.097
X165.784Y-113.367
X165.784Y-114.637
X165.784Y-117.177
X165.784Y-122.257
X166.267Y-94.487
X166.267Y-106.636
X166.281Y-73.997
X166.281Y-75.267
X166.281Y-76.537
X166.281Y-79.077
X166.281Y-80.347
X166.281Y-81.617
X167.05Y-112.097
X167.054Y-113.367
X167.054Y-115.907
X167.054Y-119.717
X167.55Y-95.17
X167.55Y-85.427
X167.55Y-106.636
X167.551Y-75.267
X167.551Y-77.807
X167.551Y-84.157
X168.32Y-112.097
X168.324Y-115.907
X168.324Y-118.447
X168.324Y-122.257
X168.82Y-85.427
X168.82Y-94.487
X168.82Y-106.636
X168.821Y-77.807
X169.594Y-112.097
X169.594Y-113.367
X169.594Y-114.637
X169.594Y-117.177
X169.594Y-118.447
X169.594Y-120.987
X170.077Y-85.427
X170.077Y-93.726
X170.077Y-106.636
X170.091Y-73.997
X170.091Y-75.267
X170.091Y-76.537
X170.091Y-79.077
X170.091Y-84.157
X170.851Y-114.637
X170.86Y-112.097
X170.864Y-113.367
X170.864Y-115.907
X170.864Y-120.987
X170.864Y-122.257
X171.36Y-85.427
X171.36Y-94.487
X171.36Y-106.636
X171.361Y-75.267
X171.361Y-77.807
X171.361Y-81.617
X172.13Y-112.097
X172.134Y-115.907
X172.134Y-118.447
X172.134Y-119.717
X172.63Y-85.427
X172.63Y-94.488
X172.63Y-106.637
X172.631Y-77.807
X172.631Y-80.347
X172.631Y-84.157
X173.404Y-112.097
X173.404Y-113.367
X173.404Y-114.637
X173.404Y-117.177
X173.404Y-118.447
X173.404Y-119.717
X173.404Y-122.257
X173.9Y-81.617
X173.9Y-85.427
X173.9Y-94.487
X173.9Y-106.636
X173.901Y-73.997
X173.901Y-75.267
X173.901Y-76.537
X173.901Y-79.077
X173.901Y-80.347
X173.901Y-82.887
X174.67Y-112.097
X174.674Y-113.367
X174.674Y-115.907
X174.674Y-119.717
X174.68Y-114.637
X175.17Y-85.427
X175.17Y-94.488
X175.17Y-106.637
X175.171Y-75.267
X175.171Y-77.807
X175.171Y-82.887
X175.171Y-84.157
X175.94Y-112.097
X175.944Y-115.907
X175.944Y-118.447
X175.944Y-119.717
X175.944Y-120.987
X175.944Y-122.257
X176.44Y-85.427
X176.44Y-94.487
X176.44Y-106.636
X176.441Y-77.807
X176.441Y-80.347
X176.441Y-81.617
X177.214Y-112.097
X177.214Y-113.367
X177.214Y-114.637
X177.214Y-118.447
X177.214Y-120.987
X177.71Y-85.427
X177.71Y-94.478
X177.71Y-106.627
X177.711Y-73.997
X177.711Y-75.267
X177.711Y-76.537
X177.711Y-79.077
X177.711Y-80.347
X177.711Y-81.617
X177.711Y-84.157
X178.48Y-112.097
X178.484Y-113.367
X178.484Y-115.907
X178.484Y-119.717
X178.484Y-120.987
X178.484Y-122.257
X178.981Y-75.267
X178.981Y-77.807
X178.981Y-81.617
X178.985Y-105.992
X178.994Y-85.427
X179.75Y-112.097
X179.75Y-114.637
X179.754Y-115.907
X179.754Y-118.447
X179.754Y-120.987
X179.76Y-117.177
X180.25Y-85.427
X180.25Y-94.487
X180.25Y-106.636
X180.251Y-77.807
X180.251Y-80.347
X180.251Y-81.617
X180.251Y-82.887
X180.251Y-84.157
X181.024Y-112.097
X181.024Y-113.367
X181.024Y-114.637
X181.024Y-117.177
X181.024Y-118.447
X181.024Y-122.257
X181.52Y-85.427
X181.52Y-94.488
X181.52Y-106.637
X181.521Y-73.997
X181.521Y-75.267
X181.521Y-76.537
X181.521Y-80.347
X181.521Y-82.887
X182.29Y-112.097
X182.294Y-113.367
X182.294Y-115.907
X182.294Y-119.717
X182.79Y-85.427
X182.79Y-94.488
X182.79Y-106.637
X182.791Y-75.267
X182.791Y-77.807
X182.791Y-81.617
X182.791Y-82.887
X182.791Y-84.157
X183.56Y-112.097
X183.564Y-115.907
X183.564Y-118.447
X183.564Y-122.257
X184.06Y-85.427
X184.06Y-94.488
X184.06Y-106.637
X184.061Y-77.807
X184.061Y-80.347
X184.061Y-82.887
X184.834Y-112.097
X184.834Y-113.367
X184.834Y-114.637
X184.834Y-117.177
X184.834Y-118.447
X184.834Y-120.987
X185.33Y-85.427
X185.33Y-94.488
X185.33Y-106.637
X185.331Y-73.997
X185.331Y-75.267
X185.331Y-76.537
X185.331Y-79.077
X185.331Y-80.347
X185.331Y-84.157
X186.1Y-112.097
X186.1Y-114.637
X186.104Y-113.367
X186.104Y-115.907
X186.104Y-120.987
X186.104Y-122.257
X186.6Y-85.427
X186.6Y-94.488
X186.6Y-106.637
X186.601Y-75.267
X186.601Y-77.807
X186.601Y-81.617
X187.37Y-112.097
X187.374Y-115.907
X187.374Y-118.447
X187.374Y-119.717
X187.87Y-85.427
X187.87Y-94.488
X187.87Y-106.637
X187.871Y-77.807
X187.871Y-80.347
X187.871Y-84.157
X188.644Y-112.097
X188.644Y-114.637
X188.644Y-117.177
X188.644Y-118.447
X188.644Y-120.987
X188.644Y-122.257
X189.14Y-81.617
X189.14Y-85.427
X189.14Y-94.488
X189.14Y-106.637
X189.141Y-73.997
X189.141Y-75.267
X189.141Y-76.537
X189.141Y-79.077
X189.141Y-80.347
X189.141Y-82.887
X189.91Y-112.097
X189.914Y-113.367
X189.914Y-120.987
X190.41Y-85.427
X190.41Y-94.488
X190.41Y-106.637
X190.411Y-75.267
X190.411Y-77.807
X190.411Y-82.887
X190.411Y-84.157
X191.18Y-112.097
X191.184Y-113.367
X191.184Y-115.907
X191.184Y-119.717
X191.184Y-122.257
X191.68Y-85.427
X191.68Y-94.488
X191.68Y-106.637
X191.681Y-77.807
X191.681Y-80.347
X191.681Y-81.617
X192.454Y-112.097
X192.454Y-114.637
X192.454Y-115.907
X192.454Y-117.177
X192.454Y-118.447
X192.95Y-85.427
X192.95Y-94.487
X192.95Y-106.636
X192.951Y-73.997
X192.951Y-76.537
X192.951Y-79.077
X192.951Y-80.347
X192.951Y-82.887
X192.951Y-84.157
X193.72Y-112.097
X193.724Y-113.367
X193.724Y-118.447
X193.724Y-119.717
X193.724Y-122.257
X194.22Y-85.427
X194.22Y-94.488
X194.22Y-106.637
X194.221Y-75.267
X194.221Y-82.887
X194.99Y-112.097
X194.994Y-113.367
X194.994Y-115.907
X195.49Y-85.427
X195.49Y-94.487
X195.49Y-106.636
X195.491Y-75.267
X195.491Y-77.807
X195.491Y-81.617
X195.491Y-84.157
X196.264Y-112.097
X196.264Y-114.637
X196.264Y-115.907
X196.264Y-117.177
X196.264Y-118.447
X196.264Y-119.717
X196.264Y-122.257
X196.76Y-85.427
X196.76Y-94.487
X196.76Y-106.636
X196.761Y-73.997
X196.761Y-76.537
X196.761Y-77.807
X196.761Y-79.077
X196.761Y-80.347
X197.53Y-112.097
X197.534Y-113.367
X197.534Y-118.447
X198.03Y-85.427
X198.03Y-94.488
X198.03Y-106.637
X198.031Y-75.267
X198.031Y-80.347
X198.031Y-81.617
X198.031Y-84.157
X198.804Y-112.097
X198.804Y-113.367
X198.804Y-114.637
X198.804Y-117.177
X198.804Y-119.717
X198.804Y-122.257
X199.3Y-85.427
X199.3Y-94.488
X199.3Y-106.637
X199.301Y-75.267
X199.301Y-77.807
X200.049Y-112.097
X200.074Y-115.907
X200.57Y-94.488
X200.571Y-73.997
X200.571Y-76.537
X200.571Y-77.807
X200.571Y-79.077
X200.571Y-80.347
X200.571Y-81.617
X200.571Y-84.157
X200.938Y-108.287
X201.344Y-112.097
X201.344Y-114.637
X201.344Y-115.907
X201.344Y-117.177
X201.344Y-119.717
X201.344Y-122.257
X201.84Y-94.487
X201.84Y-106.636
X201.841Y-75.267
X201.841Y-80.347
X201.954Y-108.287
X202.462Y-107.271
X203.111Y-73.997
X203.111Y-75.267
X203.111Y-76.537
X203.111Y-79.077
X203.111Y-81.617
X203.111Y-84.157
X203.478Y-107.271
X204.24Y-94.488
X204.24Y-106.63
X205.51Y-94.487
X205.51Y-106.629
X205.651Y-73.997
X205.651Y-76.537
X205.651Y-79.077
X205.651Y-81.617
X205.651Y-84.157
T2
X128.294Y-95.577
X128.294Y-98.117
X130.834Y-95.577
X130.834Y-98.117
X133.374Y-95.577
X133.374Y-98.117
X135.914Y-95.577
X135.914Y-98.117
X135.914Y-106.255
X135.914Y-108.795
X138.454Y-95.577
X138.454Y-98.117
X138.454Y-106.255
X138.454Y-108.795
X140.994Y-95.577
X140.994Y-98.117
X140.994Y-106.255
X140.994Y-108.795
X143.534Y-95.577
X143.534Y-98.117
X143.534Y-106.255
X143.534Y-108.795
X146.074Y-95.577
X146.074Y-98.117
X146.074Y-106.255
X146.074Y-108.795
X148.614Y-95.577
X148.614Y-98.117
X148.614Y-106.255
X148.614Y-108.795
X151.154Y-95.577
X151.154Y-98.117
X153.694Y-95.577
X153.694Y-98.117
X156.234Y-95.577
X156.234Y-98.117
T3
X71.408Y-77.07
X75.715Y-115.17
X134.4Y-77.07
X138.707Y-115.17
X145.717Y-115.17
X150.024Y-77.07
X208.709Y-115.17
X213.016Y-77.07
M30
