%TF.GenerationSoftware,KiCad,Pcbnew,7.0.10*%
%TF.CreationDate,2024-12-17T00:04:27-07:00*%
%TF.ProjectId,DRXDaughterboard,44525844-6175-4676-9874-6572626f6172,1.1*%
%TF.SameCoordinates,Original*%
%TF.FileFunction,Drillmap*%
%TF.FilePolarity,Positive*%
%FSLAX45Y45*%
G04 Gerber Fmt 4.5, Leading zero omitted, Abs format (unit mm)*
G04 Created by KiCad (PCBNEW 7.0.10) date 2024-12-17 00:04:27*
%MOMM*%
%LPD*%
G01*
G04 APERTURE LIST*
%ADD10C,0.100000*%
%ADD11C,0.200000*%
%ADD12C,0.270000*%
G04 APERTURE END LIST*
D10*
X6675400Y-7018677D02*
X21767000Y-7018677D01*
X21767000Y-12593977D01*
X6675400Y-12593977D01*
X6675400Y-7018677D01*
D11*
D10*
X7683600Y-7702177D02*
X7713600Y-7732177D01*
X7713600Y-7702177D02*
X7683600Y-7732177D01*
X7735400Y-7638677D02*
X7765400Y-7668677D01*
X7765400Y-7638677D02*
X7735400Y-7668677D01*
X7735400Y-7765677D02*
X7765400Y-7795677D01*
X7765400Y-7765677D02*
X7735400Y-7795677D01*
X7735400Y-7892677D02*
X7765400Y-7922677D01*
X7765400Y-7892677D02*
X7735400Y-7922677D01*
X7735400Y-8019677D02*
X7765400Y-8049677D01*
X7765400Y-8019677D02*
X7735400Y-8049677D01*
X7735400Y-8146677D02*
X7765400Y-8176677D01*
X7765400Y-8146677D02*
X7735400Y-8176677D01*
X7735500Y-7511677D02*
X7765500Y-7541677D01*
X7765500Y-7511677D02*
X7735500Y-7541677D01*
X7862400Y-7511677D02*
X7892400Y-7541677D01*
X7892400Y-7511677D02*
X7862400Y-7541677D01*
X7862400Y-7638677D02*
X7892400Y-7668677D01*
X7892400Y-7638677D02*
X7862400Y-7668677D01*
X7862400Y-7765677D02*
X7892400Y-7795677D01*
X7892400Y-7765677D02*
X7862400Y-7795677D01*
X7862400Y-7892677D02*
X7892400Y-7922677D01*
X7892400Y-7892677D02*
X7862400Y-7922677D01*
X7862400Y-8019677D02*
X7892400Y-8049677D01*
X7892400Y-8019677D02*
X7862400Y-8049677D01*
X7862400Y-8146677D02*
X7892400Y-8176677D01*
X7892400Y-8146677D02*
X7862400Y-8176677D01*
X7989400Y-7384677D02*
X8019400Y-7414677D01*
X8019400Y-7384677D02*
X7989400Y-7414677D01*
X7989400Y-7638677D02*
X8019400Y-7668677D01*
X8019400Y-7638677D02*
X7989400Y-7668677D01*
X7989400Y-7892677D02*
X8019400Y-7922677D01*
X8019400Y-7892677D02*
X7989400Y-7922677D01*
X7989400Y-8019677D02*
X8019400Y-8049677D01*
X8019400Y-8019677D02*
X7989400Y-8049677D01*
X7989400Y-8146677D02*
X8019400Y-8176677D01*
X8019400Y-8146677D02*
X7989400Y-8176677D01*
X7989400Y-8273677D02*
X8019400Y-8303677D01*
X8019400Y-8273677D02*
X7989400Y-8303677D01*
X7989500Y-7511677D02*
X8019500Y-7541677D01*
X8019500Y-7511677D02*
X7989500Y-7541677D01*
X7998700Y-9611600D02*
X8028700Y-9641600D01*
X8028700Y-9611600D02*
X7998700Y-9641600D01*
X8113000Y-9611600D02*
X8143000Y-9641600D01*
X8143000Y-9611600D02*
X8113000Y-9641600D01*
X8115400Y-11512177D02*
X8145400Y-11542177D01*
X8145400Y-11512177D02*
X8115400Y-11542177D01*
X8116400Y-8400677D02*
X8146400Y-8430677D01*
X8146400Y-8400677D02*
X8116400Y-8430677D01*
X8116500Y-7384677D02*
X8146500Y-7414677D01*
X8146500Y-7384677D02*
X8116500Y-7414677D01*
X8116500Y-7765677D02*
X8146500Y-7795677D01*
X8146500Y-7765677D02*
X8116500Y-7795677D01*
X8116500Y-8019677D02*
X8146500Y-8049677D01*
X8146500Y-8019677D02*
X8116500Y-8049677D01*
X8116500Y-8146677D02*
X8146500Y-8176677D01*
X8146500Y-8146677D02*
X8116500Y-8176677D01*
X8118289Y-7256252D02*
X8148289Y-7286252D01*
X8148289Y-7256252D02*
X8118289Y-7286252D01*
X8166100Y-11448677D02*
X8196100Y-11478677D01*
X8196100Y-11448677D02*
X8166100Y-11478677D01*
X8166100Y-11575677D02*
X8196100Y-11605677D01*
X8196100Y-11575677D02*
X8166100Y-11605677D01*
X8166100Y-11702677D02*
X8196100Y-11732677D01*
X8196100Y-11702677D02*
X8166100Y-11732677D01*
X8166100Y-11829677D02*
X8196100Y-11859677D01*
X8196100Y-11829677D02*
X8166100Y-11859677D01*
X8166100Y-11956677D02*
X8196100Y-11986677D01*
X8196100Y-11956677D02*
X8166100Y-11986677D01*
X8166200Y-11321677D02*
X8196200Y-11351677D01*
X8196200Y-11321677D02*
X8166200Y-11351677D01*
X8240000Y-9611600D02*
X8270000Y-9641600D01*
X8270000Y-9611600D02*
X8240000Y-9641600D01*
X8243400Y-8146677D02*
X8273400Y-8176677D01*
X8273400Y-8146677D02*
X8243400Y-8176677D01*
X8243500Y-7384677D02*
X8273500Y-7414677D01*
X8273500Y-7384677D02*
X8243500Y-7414677D01*
X8243500Y-7511677D02*
X8273500Y-7541677D01*
X8273500Y-7511677D02*
X8243500Y-7541677D01*
X8293100Y-11321677D02*
X8323100Y-11351677D01*
X8323100Y-11321677D02*
X8293100Y-11351677D01*
X8293100Y-11448677D02*
X8323100Y-11478677D01*
X8323100Y-11448677D02*
X8293100Y-11478677D01*
X8293100Y-11575677D02*
X8323100Y-11605677D01*
X8323100Y-11575677D02*
X8293100Y-11605677D01*
X8293100Y-11702677D02*
X8323100Y-11732677D01*
X8323100Y-11702677D02*
X8293100Y-11732677D01*
X8293100Y-11829677D02*
X8323100Y-11859677D01*
X8323100Y-11829677D02*
X8293100Y-11859677D01*
X8293100Y-11956677D02*
X8323100Y-11986677D01*
X8323100Y-11956677D02*
X8293100Y-11986677D01*
X8354300Y-9611600D02*
X8384300Y-9641600D01*
X8384300Y-9611600D02*
X8354300Y-9641600D01*
X8370400Y-7384677D02*
X8400400Y-7414677D01*
X8400400Y-7384677D02*
X8370400Y-7414677D01*
X8370400Y-7638677D02*
X8400400Y-7668677D01*
X8400400Y-7638677D02*
X8370400Y-7668677D01*
X8370400Y-7892677D02*
X8400400Y-7922677D01*
X8400400Y-7892677D02*
X8370400Y-7922677D01*
X8370400Y-8019677D02*
X8400400Y-8049677D01*
X8400400Y-8019677D02*
X8370400Y-8049677D01*
X8370400Y-8146677D02*
X8400400Y-8176677D01*
X8400400Y-8146677D02*
X8370400Y-8176677D01*
X8370400Y-8400677D02*
X8400400Y-8430677D01*
X8400400Y-8400677D02*
X8370400Y-8430677D01*
X8370500Y-7765677D02*
X8400500Y-7795677D01*
X8400500Y-7765677D02*
X8370500Y-7795677D01*
X8420100Y-11194677D02*
X8450100Y-11224677D01*
X8450100Y-11194677D02*
X8420100Y-11224677D01*
X8420100Y-11448677D02*
X8450100Y-11478677D01*
X8450100Y-11448677D02*
X8420100Y-11478677D01*
X8420100Y-11702677D02*
X8450100Y-11732677D01*
X8450100Y-11702677D02*
X8420100Y-11732677D01*
X8420100Y-11829677D02*
X8450100Y-11859677D01*
X8450100Y-11829677D02*
X8420100Y-11859677D01*
X8420100Y-11956677D02*
X8450100Y-11986677D01*
X8450100Y-11956677D02*
X8420100Y-11986677D01*
X8420100Y-12083677D02*
X8450100Y-12113677D01*
X8450100Y-12083677D02*
X8420100Y-12113677D01*
X8420200Y-11321677D02*
X8450200Y-11351677D01*
X8450200Y-11321677D02*
X8420200Y-11351677D01*
X8496400Y-7511677D02*
X8526400Y-7541677D01*
X8526400Y-7511677D02*
X8496400Y-7541677D01*
X8496400Y-8527677D02*
X8526400Y-8557677D01*
X8526400Y-8527677D02*
X8496400Y-8557677D01*
X8496400Y-9611600D02*
X8526400Y-9641600D01*
X8526400Y-9611600D02*
X8496400Y-9641600D01*
X8496400Y-10635877D02*
X8526400Y-10665877D01*
X8526400Y-10635877D02*
X8496400Y-10665877D01*
X8497500Y-7892677D02*
X8527500Y-7922677D01*
X8527500Y-7892677D02*
X8497500Y-7922677D01*
X8547100Y-12210677D02*
X8577100Y-12240677D01*
X8577100Y-12210677D02*
X8547100Y-12240677D01*
X8547200Y-11194677D02*
X8577200Y-11224677D01*
X8577200Y-11194677D02*
X8547200Y-11224677D01*
X8547200Y-11575677D02*
X8577200Y-11605677D01*
X8577200Y-11575677D02*
X8547200Y-11605677D01*
X8547200Y-11829677D02*
X8577200Y-11859677D01*
X8577200Y-11829677D02*
X8547200Y-11859677D01*
X8547200Y-11956677D02*
X8577200Y-11986677D01*
X8577200Y-11956677D02*
X8547200Y-11986677D01*
X8623400Y-7511677D02*
X8653400Y-7541677D01*
X8653400Y-7511677D02*
X8623400Y-7541677D01*
X8623400Y-7765677D02*
X8653400Y-7795677D01*
X8653400Y-7765677D02*
X8623400Y-7795677D01*
X8623400Y-8527677D02*
X8653400Y-8557677D01*
X8653400Y-8527677D02*
X8623400Y-8557677D01*
X8623400Y-9611600D02*
X8653400Y-9641600D01*
X8653400Y-9611600D02*
X8623400Y-9641600D01*
X8623400Y-10635877D02*
X8653400Y-10665877D01*
X8653400Y-10635877D02*
X8623400Y-10665877D01*
X8624400Y-8400677D02*
X8654400Y-8430677D01*
X8654400Y-8400677D02*
X8624400Y-8430677D01*
X8674100Y-11956677D02*
X8704100Y-11986677D01*
X8704100Y-11956677D02*
X8674100Y-11986677D01*
X8674200Y-11194677D02*
X8704200Y-11224677D01*
X8704200Y-11194677D02*
X8674200Y-11224677D01*
X8674200Y-11321677D02*
X8704200Y-11351677D01*
X8704200Y-11321677D02*
X8674200Y-11351677D01*
X8750400Y-7765677D02*
X8780400Y-7795677D01*
X8780400Y-7765677D02*
X8750400Y-7795677D01*
X8750400Y-8527677D02*
X8780400Y-8557677D01*
X8780400Y-8527677D02*
X8750400Y-8557677D01*
X8750400Y-9611600D02*
X8780400Y-9641600D01*
X8780400Y-9611600D02*
X8750400Y-9641600D01*
X8750400Y-10635877D02*
X8780400Y-10665877D01*
X8780400Y-10635877D02*
X8750400Y-10665877D01*
X8751400Y-7384677D02*
X8781400Y-7414677D01*
X8781400Y-7384677D02*
X8751400Y-7414677D01*
X8751400Y-7638677D02*
X8781400Y-7668677D01*
X8781400Y-7638677D02*
X8751400Y-7668677D01*
X8751400Y-7892677D02*
X8781400Y-7922677D01*
X8781400Y-7892677D02*
X8751400Y-7922677D01*
X8751400Y-8146677D02*
X8781400Y-8176677D01*
X8781400Y-8146677D02*
X8751400Y-8176677D01*
X8751500Y-8019677D02*
X8781500Y-8049677D01*
X8781500Y-8019677D02*
X8751500Y-8049677D01*
X8801100Y-11194677D02*
X8831100Y-11224677D01*
X8831100Y-11194677D02*
X8801100Y-11224677D01*
X8801100Y-11448677D02*
X8831100Y-11478677D01*
X8831100Y-11448677D02*
X8801100Y-11478677D01*
X8801100Y-11702677D02*
X8831100Y-11732677D01*
X8831100Y-11702677D02*
X8801100Y-11732677D01*
X8801100Y-11829677D02*
X8831100Y-11859677D01*
X8831100Y-11829677D02*
X8801100Y-11859677D01*
X8801100Y-11956677D02*
X8831100Y-11986677D01*
X8831100Y-11956677D02*
X8801100Y-11986677D01*
X8801100Y-12210677D02*
X8831100Y-12240677D01*
X8831100Y-12210677D02*
X8801100Y-12240677D01*
X8801200Y-11575677D02*
X8831200Y-11605677D01*
X8831200Y-11575677D02*
X8801200Y-11605677D01*
X8875000Y-9611600D02*
X8905000Y-9641600D01*
X8905000Y-9611600D02*
X8875000Y-9641600D01*
X8875000Y-10635877D02*
X8905000Y-10665877D01*
X8905000Y-10635877D02*
X8875000Y-10665877D01*
X8877400Y-7511677D02*
X8907400Y-7541677D01*
X8907400Y-7511677D02*
X8877400Y-7541677D01*
X8878400Y-8400677D02*
X8908400Y-8430677D01*
X8908400Y-8400677D02*
X8878400Y-8430677D01*
X8928200Y-11194677D02*
X8958200Y-11224677D01*
X8958200Y-11194677D02*
X8928200Y-11224677D01*
X8928200Y-11321677D02*
X8958200Y-11351677D01*
X8958200Y-11321677D02*
X8928200Y-11351677D01*
X9004400Y-7511677D02*
X9034400Y-7541677D01*
X9034400Y-7511677D02*
X9004400Y-7541677D01*
X9004400Y-8527677D02*
X9034400Y-8557677D01*
X9034400Y-8527677D02*
X9004400Y-8557677D01*
X9004400Y-9611600D02*
X9034400Y-9641600D01*
X9034400Y-9611600D02*
X9004400Y-9641600D01*
X9004400Y-10635877D02*
X9034400Y-10665877D01*
X9034400Y-10635877D02*
X9004400Y-10665877D01*
X9005500Y-7765677D02*
X9035500Y-7795677D01*
X9035500Y-7765677D02*
X9005500Y-7795677D01*
X9055100Y-12210677D02*
X9085100Y-12240677D01*
X9085100Y-12210677D02*
X9055100Y-12240677D01*
X9055200Y-11194677D02*
X9085200Y-11224677D01*
X9085200Y-11194677D02*
X9055200Y-11224677D01*
X9055200Y-11321677D02*
X9085200Y-11351677D01*
X9085200Y-11321677D02*
X9055200Y-11351677D01*
X9055200Y-11575677D02*
X9085200Y-11605677D01*
X9085200Y-11575677D02*
X9055200Y-11605677D01*
X9131400Y-8527677D02*
X9161400Y-8557677D01*
X9161400Y-8527677D02*
X9131400Y-8557677D01*
X9131400Y-9611600D02*
X9161400Y-9641600D01*
X9161400Y-9611600D02*
X9131400Y-9641600D01*
X9131400Y-10635877D02*
X9161400Y-10665877D01*
X9161400Y-10635877D02*
X9131400Y-10665877D01*
X9132400Y-7384677D02*
X9162400Y-7414677D01*
X9162400Y-7384677D02*
X9132400Y-7414677D01*
X9132400Y-7638677D02*
X9162400Y-7668677D01*
X9162400Y-7638677D02*
X9132400Y-7668677D01*
X9132400Y-7892677D02*
X9162400Y-7922677D01*
X9162400Y-7892677D02*
X9132400Y-7922677D01*
X9132400Y-8400677D02*
X9162400Y-8430677D01*
X9162400Y-8400677D02*
X9132400Y-8430677D01*
X9132500Y-7511677D02*
X9162500Y-7541677D01*
X9162500Y-7511677D02*
X9132500Y-7541677D01*
X9132500Y-7765677D02*
X9162500Y-7795677D01*
X9162500Y-7765677D02*
X9132500Y-7795677D01*
X9182100Y-11194677D02*
X9212100Y-11224677D01*
X9212100Y-11194677D02*
X9182100Y-11224677D01*
X9182100Y-11448677D02*
X9212100Y-11478677D01*
X9212100Y-11448677D02*
X9182100Y-11478677D01*
X9182100Y-11702677D02*
X9212100Y-11732677D01*
X9212100Y-11702677D02*
X9182100Y-11732677D01*
X9182100Y-11956677D02*
X9212100Y-11986677D01*
X9212100Y-11956677D02*
X9182100Y-11986677D01*
X9182200Y-11575677D02*
X9212200Y-11605677D01*
X9212200Y-11575677D02*
X9182200Y-11605677D01*
X9258400Y-8527677D02*
X9288400Y-8557677D01*
X9288400Y-8527677D02*
X9258400Y-8557677D01*
X9258400Y-9611600D02*
X9288400Y-9641600D01*
X9288400Y-9611600D02*
X9258400Y-9641600D01*
X9258400Y-10635877D02*
X9288400Y-10665877D01*
X9288400Y-10635877D02*
X9258400Y-10665877D01*
X9259400Y-8146677D02*
X9289400Y-8176677D01*
X9289400Y-8146677D02*
X9259400Y-8176677D01*
X9259500Y-7511677D02*
X9289500Y-7541677D01*
X9289500Y-7511677D02*
X9259500Y-7541677D01*
X9259500Y-7765677D02*
X9289500Y-7795677D01*
X9289500Y-7765677D02*
X9259500Y-7795677D01*
X9309100Y-12210677D02*
X9339100Y-12240677D01*
X9339100Y-12210677D02*
X9309100Y-12240677D01*
X9309200Y-11194677D02*
X9339200Y-11224677D01*
X9339200Y-11194677D02*
X9309200Y-11224677D01*
X9309200Y-11321677D02*
X9339200Y-11351677D01*
X9339200Y-11321677D02*
X9309200Y-11351677D01*
X9385400Y-8527677D02*
X9415400Y-8557677D01*
X9415400Y-8527677D02*
X9385400Y-8557677D01*
X9385400Y-9611600D02*
X9415400Y-9641600D01*
X9415400Y-9611600D02*
X9385400Y-9641600D01*
X9385400Y-10635877D02*
X9415400Y-10665877D01*
X9415400Y-10635877D02*
X9385400Y-10665877D01*
X9386400Y-8400677D02*
X9416400Y-8430677D01*
X9416400Y-8400677D02*
X9386400Y-8430677D01*
X9386500Y-7765677D02*
X9416500Y-7795677D01*
X9416500Y-7765677D02*
X9386500Y-7795677D01*
X9386500Y-8019677D02*
X9416500Y-8049677D01*
X9416500Y-8019677D02*
X9386500Y-8049677D01*
X9436200Y-11194677D02*
X9466200Y-11224677D01*
X9466200Y-11194677D02*
X9436200Y-11224677D01*
X9436200Y-11321677D02*
X9466200Y-11351677D01*
X9466200Y-11321677D02*
X9436200Y-11351677D01*
X9436200Y-11575677D02*
X9466200Y-11605677D01*
X9466200Y-11575677D02*
X9436200Y-11605677D01*
X9512400Y-8146677D02*
X9542400Y-8176677D01*
X9542400Y-8146677D02*
X9512400Y-8176677D01*
X9512400Y-8527677D02*
X9542400Y-8557677D01*
X9542400Y-8527677D02*
X9512400Y-8557677D01*
X9512400Y-9611600D02*
X9542400Y-9641600D01*
X9542400Y-9611600D02*
X9512400Y-9641600D01*
X9512400Y-10635877D02*
X9542400Y-10665877D01*
X9542400Y-10635877D02*
X9512400Y-10665877D01*
X9513400Y-7384677D02*
X9543400Y-7414677D01*
X9543400Y-7384677D02*
X9513400Y-7414677D01*
X9513400Y-7638677D02*
X9543400Y-7668677D01*
X9543400Y-7638677D02*
X9513400Y-7668677D01*
X9513400Y-7892677D02*
X9543400Y-7922677D01*
X9543400Y-7892677D02*
X9513400Y-7922677D01*
X9513500Y-7511677D02*
X9543500Y-7541677D01*
X9543500Y-7511677D02*
X9513500Y-7541677D01*
X9513500Y-8019677D02*
X9543500Y-8049677D01*
X9543500Y-8019677D02*
X9513500Y-8049677D01*
X9513500Y-8273677D02*
X9543500Y-8303677D01*
X9543500Y-8273677D02*
X9513500Y-8303677D01*
X9563100Y-11194677D02*
X9593100Y-11224677D01*
X9593100Y-11194677D02*
X9563100Y-11224677D01*
X9563100Y-11448677D02*
X9593100Y-11478677D01*
X9593100Y-11448677D02*
X9563100Y-11478677D01*
X9563100Y-11702677D02*
X9593100Y-11732677D01*
X9593100Y-11702677D02*
X9563100Y-11732677D01*
X9563100Y-12210677D02*
X9593100Y-12240677D01*
X9593100Y-12210677D02*
X9563100Y-12240677D01*
X9563200Y-11321677D02*
X9593200Y-11351677D01*
X9593200Y-11321677D02*
X9563200Y-11351677D01*
X9563200Y-11575677D02*
X9593200Y-11605677D01*
X9593200Y-11575677D02*
X9563200Y-11605677D01*
X9639400Y-8527677D02*
X9669400Y-8557677D01*
X9669400Y-8527677D02*
X9639400Y-8557677D01*
X9639400Y-9611600D02*
X9669400Y-9641600D01*
X9669400Y-9611600D02*
X9639400Y-9641600D01*
X9639400Y-10635877D02*
X9669400Y-10665877D01*
X9669400Y-10635877D02*
X9639400Y-10665877D01*
X9640400Y-8400677D02*
X9670400Y-8430677D01*
X9670400Y-8400677D02*
X9640400Y-8430677D01*
X9640500Y-7511677D02*
X9670500Y-7541677D01*
X9670500Y-7511677D02*
X9640500Y-7541677D01*
X9640500Y-7765677D02*
X9670500Y-7795677D01*
X9670500Y-7765677D02*
X9640500Y-7795677D01*
X9640500Y-8273677D02*
X9670500Y-8303677D01*
X9670500Y-8273677D02*
X9640500Y-8303677D01*
X9690100Y-11956677D02*
X9720100Y-11986677D01*
X9720100Y-11956677D02*
X9690100Y-11986677D01*
X9690200Y-11321677D02*
X9720200Y-11351677D01*
X9720200Y-11321677D02*
X9690200Y-11351677D01*
X9690200Y-11575677D02*
X9720200Y-11605677D01*
X9720200Y-11575677D02*
X9690200Y-11605677D01*
X9766400Y-8527677D02*
X9796400Y-8557677D01*
X9796400Y-8527677D02*
X9766400Y-8557677D01*
X9766400Y-9611600D02*
X9796400Y-9641600D01*
X9796400Y-9611600D02*
X9766400Y-9641600D01*
X9766400Y-10635877D02*
X9796400Y-10665877D01*
X9796400Y-10635877D02*
X9766400Y-10665877D01*
X9767400Y-8146677D02*
X9797400Y-8176677D01*
X9797400Y-8146677D02*
X9767400Y-8176677D01*
X9767500Y-7765677D02*
X9797500Y-7795677D01*
X9797500Y-7765677D02*
X9767500Y-7795677D01*
X9767500Y-8019677D02*
X9797500Y-8049677D01*
X9797500Y-8019677D02*
X9767500Y-8049677D01*
X9817100Y-12210677D02*
X9847100Y-12240677D01*
X9847100Y-12210677D02*
X9817100Y-12240677D01*
X9817200Y-11575677D02*
X9847200Y-11605677D01*
X9847200Y-11575677D02*
X9817200Y-11605677D01*
X9817200Y-11829677D02*
X9847200Y-11859677D01*
X9847200Y-11829677D02*
X9817200Y-11859677D01*
X9893400Y-8146677D02*
X9923400Y-8176677D01*
X9923400Y-8146677D02*
X9893400Y-8176677D01*
X9893400Y-8527677D02*
X9923400Y-8557677D01*
X9923400Y-8527677D02*
X9893400Y-8557677D01*
X9893400Y-9611600D02*
X9923400Y-9641600D01*
X9923400Y-9611600D02*
X9893400Y-9641600D01*
X9893400Y-10635877D02*
X9923400Y-10665877D01*
X9923400Y-10635877D02*
X9893400Y-10665877D01*
X9894400Y-7384677D02*
X9924400Y-7414677D01*
X9924400Y-7384677D02*
X9894400Y-7414677D01*
X9894400Y-7638677D02*
X9924400Y-7668677D01*
X9924400Y-7638677D02*
X9894400Y-7668677D01*
X9894400Y-7892677D02*
X9924400Y-7922677D01*
X9924400Y-7892677D02*
X9894400Y-7922677D01*
X9894400Y-8400677D02*
X9924400Y-8430677D01*
X9924400Y-8400677D02*
X9894400Y-8430677D01*
X9894500Y-7511677D02*
X9924500Y-7541677D01*
X9924500Y-7511677D02*
X9894500Y-7541677D01*
X9894500Y-8019677D02*
X9924500Y-8049677D01*
X9924500Y-8019677D02*
X9894500Y-8049677D01*
X9894500Y-8273677D02*
X9924500Y-8303677D01*
X9924500Y-8273677D02*
X9894500Y-8303677D01*
X9944100Y-11194677D02*
X9974100Y-11224677D01*
X9974100Y-11194677D02*
X9944100Y-11224677D01*
X9944100Y-11448677D02*
X9974100Y-11478677D01*
X9974100Y-11448677D02*
X9944100Y-11478677D01*
X9944100Y-11702677D02*
X9974100Y-11732677D01*
X9974100Y-11702677D02*
X9944100Y-11732677D01*
X9944200Y-11321677D02*
X9974200Y-11351677D01*
X9974200Y-11321677D02*
X9944200Y-11351677D01*
X9944200Y-11829677D02*
X9974200Y-11859677D01*
X9974200Y-11829677D02*
X9944200Y-11859677D01*
X9944200Y-12083677D02*
X9974200Y-12113677D01*
X9974200Y-12083677D02*
X9944200Y-12113677D01*
X10020400Y-8400677D02*
X10050400Y-8430677D01*
X10050400Y-8400677D02*
X10020400Y-8430677D01*
X10020400Y-8527677D02*
X10050400Y-8557677D01*
X10050400Y-8527677D02*
X10020400Y-8557677D01*
X10020400Y-9611600D02*
X10050400Y-9641600D01*
X10050400Y-9611600D02*
X10020400Y-9641600D01*
X10020400Y-10635877D02*
X10050400Y-10665877D01*
X10050400Y-10635877D02*
X10020400Y-10665877D01*
X10021500Y-7511677D02*
X10051500Y-7541677D01*
X10051500Y-7511677D02*
X10021500Y-7541677D01*
X10021500Y-7765677D02*
X10051500Y-7795677D01*
X10051500Y-7765677D02*
X10021500Y-7795677D01*
X10021500Y-8273677D02*
X10051500Y-8303677D01*
X10051500Y-8273677D02*
X10021500Y-8303677D01*
X10071100Y-12210677D02*
X10101100Y-12240677D01*
X10101100Y-12210677D02*
X10071100Y-12240677D01*
X10071200Y-11194677D02*
X10101200Y-11224677D01*
X10101200Y-11194677D02*
X10071200Y-11224677D01*
X10071200Y-11321677D02*
X10101200Y-11351677D01*
X10101200Y-11321677D02*
X10071200Y-11351677D01*
X10071200Y-11448677D02*
X10101200Y-11478677D01*
X10101200Y-11448677D02*
X10071200Y-11478677D01*
X10071200Y-11575677D02*
X10101200Y-11605677D01*
X10101200Y-11575677D02*
X10071200Y-11605677D01*
X10071200Y-12083677D02*
X10101200Y-12113677D01*
X10101200Y-12083677D02*
X10071200Y-12113677D01*
X10147400Y-8527677D02*
X10177400Y-8557677D01*
X10177400Y-8527677D02*
X10147400Y-8557677D01*
X10147400Y-9611600D02*
X10177400Y-9641600D01*
X10177400Y-9611600D02*
X10147400Y-9641600D01*
X10147400Y-10635877D02*
X10177400Y-10665877D01*
X10177400Y-10635877D02*
X10147400Y-10665877D01*
X10148400Y-8146677D02*
X10178400Y-8176677D01*
X10178400Y-8146677D02*
X10148400Y-8176677D01*
X10148400Y-8400677D02*
X10178400Y-8430677D01*
X10178400Y-8400677D02*
X10148400Y-8430677D01*
X10148500Y-7765677D02*
X10178500Y-7795677D01*
X10178500Y-7765677D02*
X10148500Y-7795677D01*
X10148500Y-8019677D02*
X10178500Y-8049677D01*
X10178500Y-8019677D02*
X10148500Y-8049677D01*
X10148500Y-8273677D02*
X10178500Y-8303677D01*
X10178500Y-8273677D02*
X10148500Y-8303677D01*
X10198100Y-11956677D02*
X10228100Y-11986677D01*
X10228100Y-11956677D02*
X10198100Y-11986677D01*
X10198200Y-11194677D02*
X10228200Y-11224677D01*
X10228200Y-11194677D02*
X10198200Y-11224677D01*
X10198200Y-11575677D02*
X10228200Y-11605677D01*
X10228200Y-11575677D02*
X10198200Y-11605677D01*
X10198200Y-11829677D02*
X10228200Y-11859677D01*
X10228200Y-11829677D02*
X10198200Y-11859677D01*
X10274400Y-8527677D02*
X10304400Y-8557677D01*
X10304400Y-8527677D02*
X10274400Y-8557677D01*
X10274400Y-9611600D02*
X10304400Y-9641600D01*
X10304400Y-9611600D02*
X10274400Y-9641600D01*
X10274400Y-10635877D02*
X10304400Y-10665877D01*
X10304400Y-10635877D02*
X10274400Y-10665877D01*
X10275400Y-7384677D02*
X10305400Y-7414677D01*
X10305400Y-7384677D02*
X10275400Y-7414677D01*
X10275400Y-7638677D02*
X10305400Y-7668677D01*
X10305400Y-7638677D02*
X10275400Y-7668677D01*
X10275500Y-7511677D02*
X10305500Y-7541677D01*
X10305500Y-7511677D02*
X10275500Y-7541677D01*
X10275500Y-8019677D02*
X10305500Y-8049677D01*
X10305500Y-8019677D02*
X10275500Y-8049677D01*
X10275500Y-8273677D02*
X10305500Y-8303677D01*
X10305500Y-8273677D02*
X10275500Y-8303677D01*
X10325100Y-11194677D02*
X10355100Y-11224677D01*
X10355100Y-11194677D02*
X10325100Y-11224677D01*
X10325100Y-11448677D02*
X10355100Y-11478677D01*
X10355100Y-11448677D02*
X10325100Y-11478677D01*
X10325100Y-11702677D02*
X10355100Y-11732677D01*
X10355100Y-11702677D02*
X10325100Y-11732677D01*
X10325100Y-12210677D02*
X10355100Y-12240677D01*
X10355100Y-12210677D02*
X10325100Y-12240677D01*
X10325200Y-11321677D02*
X10355200Y-11351677D01*
X10355200Y-11321677D02*
X10325200Y-11351677D01*
X10325200Y-11829677D02*
X10355200Y-11859677D01*
X10355200Y-11829677D02*
X10325200Y-11859677D01*
X10325200Y-12083677D02*
X10355200Y-12113677D01*
X10355200Y-12083677D02*
X10325200Y-12113677D01*
X10401400Y-8527677D02*
X10431400Y-8557677D01*
X10431400Y-8527677D02*
X10401400Y-8557677D01*
X10401400Y-9611600D02*
X10431400Y-9641600D01*
X10431400Y-9611600D02*
X10401400Y-9641600D01*
X10401400Y-10635877D02*
X10431400Y-10665877D01*
X10431400Y-10635877D02*
X10401400Y-10665877D01*
X10402400Y-8146677D02*
X10432400Y-8176677D01*
X10432400Y-8146677D02*
X10402400Y-8176677D01*
X10402400Y-8400677D02*
X10432400Y-8430677D01*
X10432400Y-8400677D02*
X10402400Y-8430677D01*
X10402500Y-7511677D02*
X10432500Y-7541677D01*
X10432500Y-7511677D02*
X10402500Y-7541677D01*
X10402500Y-7765677D02*
X10432500Y-7795677D01*
X10432500Y-7765677D02*
X10402500Y-7795677D01*
X10402500Y-8273677D02*
X10432500Y-8303677D01*
X10432500Y-8273677D02*
X10402500Y-8303677D01*
X10452200Y-11194677D02*
X10482200Y-11224677D01*
X10482200Y-11194677D02*
X10452200Y-11224677D01*
X10452200Y-11321677D02*
X10482200Y-11351677D01*
X10482200Y-11321677D02*
X10452200Y-11351677D01*
X10452200Y-11448677D02*
X10482200Y-11478677D01*
X10482200Y-11448677D02*
X10452200Y-11478677D01*
X10452200Y-11575677D02*
X10482200Y-11605677D01*
X10482200Y-11575677D02*
X10452200Y-11605677D01*
X10452200Y-12083677D02*
X10482200Y-12113677D01*
X10482200Y-12083677D02*
X10452200Y-12113677D01*
X10528400Y-8527677D02*
X10558400Y-8557677D01*
X10558400Y-8527677D02*
X10528400Y-8557677D01*
X10528400Y-9611600D02*
X10558400Y-9641600D01*
X10558400Y-9611600D02*
X10528400Y-9641600D01*
X10528400Y-10635877D02*
X10558400Y-10665877D01*
X10558400Y-10635877D02*
X10528400Y-10665877D01*
X10529500Y-7765677D02*
X10559500Y-7795677D01*
X10559500Y-7765677D02*
X10529500Y-7795677D01*
X10529500Y-8019677D02*
X10559500Y-8049677D01*
X10559500Y-8019677D02*
X10529500Y-8049677D01*
X10529500Y-8273677D02*
X10559500Y-8303677D01*
X10559500Y-8273677D02*
X10529500Y-8303677D01*
X10579100Y-11956677D02*
X10609100Y-11986677D01*
X10609100Y-11956677D02*
X10579100Y-11986677D01*
X10579100Y-12210677D02*
X10609100Y-12240677D01*
X10609100Y-12210677D02*
X10579100Y-12240677D01*
X10579200Y-11194677D02*
X10609200Y-11224677D01*
X10609200Y-11194677D02*
X10579200Y-11224677D01*
X10579200Y-11575677D02*
X10609200Y-11605677D01*
X10609200Y-11575677D02*
X10579200Y-11605677D01*
X10579200Y-11829677D02*
X10609200Y-11859677D01*
X10609200Y-11829677D02*
X10579200Y-11859677D01*
X10579200Y-12083677D02*
X10609200Y-12113677D01*
X10609200Y-12083677D02*
X10579200Y-12113677D01*
X10655400Y-8527677D02*
X10685400Y-8557677D01*
X10685400Y-8527677D02*
X10655400Y-8557677D01*
X10655400Y-9611600D02*
X10685400Y-9641600D01*
X10685400Y-9611600D02*
X10655400Y-9641600D01*
X10655400Y-10635877D02*
X10685400Y-10665877D01*
X10685400Y-10635877D02*
X10655400Y-10665877D01*
X10656400Y-7384677D02*
X10686400Y-7414677D01*
X10686400Y-7384677D02*
X10656400Y-7414677D01*
X10656400Y-7638677D02*
X10686400Y-7668677D01*
X10686400Y-7638677D02*
X10656400Y-7668677D01*
X10656400Y-7892677D02*
X10686400Y-7922677D01*
X10686400Y-7892677D02*
X10656400Y-7922677D01*
X10656400Y-8400677D02*
X10686400Y-8430677D01*
X10686400Y-8400677D02*
X10656400Y-8430677D01*
X10656500Y-7511677D02*
X10686500Y-7541677D01*
X10686500Y-7511677D02*
X10656500Y-7541677D01*
X10656500Y-8019677D02*
X10686500Y-8049677D01*
X10686500Y-8019677D02*
X10656500Y-8049677D01*
X10706100Y-11194677D02*
X10736100Y-11224677D01*
X10736100Y-11194677D02*
X10706100Y-11224677D01*
X10706100Y-11448677D02*
X10736100Y-11478677D01*
X10736100Y-11448677D02*
X10706100Y-11478677D01*
X10706200Y-11321677D02*
X10736200Y-11351677D01*
X10736200Y-11321677D02*
X10706200Y-11351677D01*
X10706200Y-11829677D02*
X10736200Y-11859677D01*
X10736200Y-11829677D02*
X10706200Y-11859677D01*
X10706200Y-12083677D02*
X10736200Y-12113677D01*
X10736200Y-12083677D02*
X10706200Y-12113677D01*
X10782400Y-8527677D02*
X10812400Y-8557677D01*
X10812400Y-8527677D02*
X10782400Y-8557677D01*
X10782400Y-9611600D02*
X10812400Y-9641600D01*
X10812400Y-9611600D02*
X10782400Y-9641600D01*
X10782400Y-10635877D02*
X10812400Y-10665877D01*
X10812400Y-10635877D02*
X10782400Y-10665877D01*
X10783400Y-8146677D02*
X10813400Y-8176677D01*
X10813400Y-8146677D02*
X10783400Y-8176677D01*
X10783500Y-7511677D02*
X10813500Y-7541677D01*
X10813500Y-7511677D02*
X10783500Y-7541677D01*
X10783500Y-7765677D02*
X10813500Y-7795677D01*
X10813500Y-7765677D02*
X10783500Y-7795677D01*
X10833100Y-11956677D02*
X10863100Y-11986677D01*
X10863100Y-11956677D02*
X10833100Y-11986677D01*
X10833100Y-12210677D02*
X10863100Y-12240677D01*
X10863100Y-12210677D02*
X10833100Y-12240677D01*
X10833200Y-11194677D02*
X10863200Y-11224677D01*
X10863200Y-11194677D02*
X10833200Y-11224677D01*
X10833200Y-11321677D02*
X10863200Y-11351677D01*
X10863200Y-11321677D02*
X10833200Y-11351677D01*
X10833200Y-11575677D02*
X10863200Y-11605677D01*
X10863200Y-11575677D02*
X10833200Y-11605677D01*
X10833200Y-12083677D02*
X10863200Y-12113677D01*
X10863200Y-12083677D02*
X10833200Y-12113677D01*
X10909400Y-8527677D02*
X10939400Y-8557677D01*
X10939400Y-8527677D02*
X10909400Y-8557677D01*
X10909400Y-9611600D02*
X10939400Y-9641600D01*
X10939400Y-9611600D02*
X10909400Y-9641600D01*
X10909400Y-10635877D02*
X10939400Y-10665877D01*
X10939400Y-10635877D02*
X10909400Y-10665877D01*
X10910400Y-8400677D02*
X10940400Y-8430677D01*
X10940400Y-8400677D02*
X10910400Y-8430677D01*
X10910500Y-7765677D02*
X10940500Y-7795677D01*
X10940500Y-7765677D02*
X10910500Y-7795677D01*
X10910500Y-8019677D02*
X10940500Y-8049677D01*
X10940500Y-8019677D02*
X10910500Y-8049677D01*
X10960200Y-11194677D02*
X10990200Y-11224677D01*
X10990200Y-11194677D02*
X10960200Y-11224677D01*
X10960200Y-11448677D02*
X10990200Y-11478677D01*
X10990200Y-11448677D02*
X10960200Y-11478677D01*
X10960200Y-11575677D02*
X10990200Y-11605677D01*
X10990200Y-11575677D02*
X10960200Y-11605677D01*
X10960200Y-11702677D02*
X10990200Y-11732677D01*
X10990200Y-11702677D02*
X10960200Y-11732677D01*
X10960200Y-11829677D02*
X10990200Y-11859677D01*
X10990200Y-11829677D02*
X10960200Y-11859677D01*
X10960200Y-12083694D02*
X10990200Y-12113694D01*
X10990200Y-12083694D02*
X10960200Y-12113694D01*
X11036400Y-8146677D02*
X11066400Y-8176677D01*
X11066400Y-8146677D02*
X11036400Y-8176677D01*
X11036400Y-8527677D02*
X11066400Y-8557677D01*
X11066400Y-8527677D02*
X11036400Y-8557677D01*
X11036400Y-9611600D02*
X11066400Y-9641600D01*
X11066400Y-9611600D02*
X11036400Y-9641600D01*
X11036400Y-10635877D02*
X11066400Y-10665877D01*
X11066400Y-10635877D02*
X11036400Y-10665877D01*
X11037400Y-7384677D02*
X11067400Y-7414677D01*
X11067400Y-7384677D02*
X11037400Y-7414677D01*
X11037400Y-7638677D02*
X11067400Y-7668677D01*
X11067400Y-7638677D02*
X11037400Y-7668677D01*
X11037400Y-7892677D02*
X11067400Y-7922677D01*
X11067400Y-7892677D02*
X11037400Y-7922677D01*
X11037500Y-7511677D02*
X11067500Y-7541677D01*
X11067500Y-7511677D02*
X11037500Y-7541677D01*
X11037500Y-8019677D02*
X11067500Y-8049677D01*
X11067500Y-8019677D02*
X11037500Y-8049677D01*
X11037500Y-8273677D02*
X11067500Y-8303677D01*
X11067500Y-8273677D02*
X11037500Y-8303677D01*
X11087100Y-11194677D02*
X11117100Y-11224677D01*
X11117100Y-11194677D02*
X11087100Y-11224677D01*
X11087100Y-11448677D02*
X11117100Y-11478677D01*
X11117100Y-11448677D02*
X11087100Y-11478677D01*
X11087100Y-11702677D02*
X11117100Y-11732677D01*
X11117100Y-11702677D02*
X11087100Y-11732677D01*
X11087100Y-12210677D02*
X11117100Y-12240677D01*
X11117100Y-12210677D02*
X11087100Y-12240677D01*
X11087200Y-11321677D02*
X11117200Y-11351677D01*
X11117200Y-11321677D02*
X11087200Y-11351677D01*
X11087200Y-11829677D02*
X11117200Y-11859677D01*
X11117200Y-11829677D02*
X11087200Y-11859677D01*
X11163400Y-8527677D02*
X11193400Y-8557677D01*
X11193400Y-8527677D02*
X11163400Y-8557677D01*
X11163400Y-9611600D02*
X11193400Y-9641600D01*
X11193400Y-9611600D02*
X11163400Y-9641600D01*
X11163400Y-10635877D02*
X11193400Y-10665877D01*
X11193400Y-10635877D02*
X11163400Y-10665877D01*
X11164400Y-8400677D02*
X11194400Y-8430677D01*
X11194400Y-8400677D02*
X11164400Y-8430677D01*
X11164500Y-7511677D02*
X11194500Y-7541677D01*
X11194500Y-7511677D02*
X11164500Y-7541677D01*
X11164500Y-7765677D02*
X11194500Y-7795677D01*
X11194500Y-7765677D02*
X11164500Y-7795677D01*
X11164500Y-8273677D02*
X11194500Y-8303677D01*
X11194500Y-8273677D02*
X11164500Y-8303677D01*
X11214100Y-11956677D02*
X11244100Y-11986677D01*
X11244100Y-11956677D02*
X11214100Y-11986677D01*
X11214200Y-11194677D02*
X11244200Y-11224677D01*
X11244200Y-11194677D02*
X11214200Y-11224677D01*
X11214200Y-11321677D02*
X11244200Y-11351677D01*
X11244200Y-11321677D02*
X11214200Y-11351677D01*
X11214200Y-11575677D02*
X11244200Y-11605677D01*
X11244200Y-11575677D02*
X11214200Y-11605677D01*
X11290400Y-8527677D02*
X11320400Y-8557677D01*
X11320400Y-8527677D02*
X11290400Y-8557677D01*
X11290400Y-9611600D02*
X11320400Y-9641600D01*
X11320400Y-9611600D02*
X11290400Y-9641600D01*
X11290400Y-10635877D02*
X11320400Y-10665877D01*
X11320400Y-10635877D02*
X11290400Y-10665877D01*
X11291400Y-8146677D02*
X11321400Y-8176677D01*
X11321400Y-8146677D02*
X11291400Y-8176677D01*
X11291500Y-7765677D02*
X11321500Y-7795677D01*
X11321500Y-7765677D02*
X11291500Y-7795677D01*
X11291500Y-8019677D02*
X11321500Y-8049677D01*
X11321500Y-8019677D02*
X11291500Y-8049677D01*
X11341100Y-12210677D02*
X11371100Y-12240677D01*
X11371100Y-12210677D02*
X11341100Y-12240677D01*
X11341200Y-11194677D02*
X11371200Y-11224677D01*
X11371200Y-11194677D02*
X11341200Y-11224677D01*
X11341200Y-11575677D02*
X11371200Y-11605677D01*
X11371200Y-11575677D02*
X11341200Y-11605677D01*
X11341200Y-11829677D02*
X11371200Y-11859677D01*
X11371200Y-11829677D02*
X11341200Y-11859677D01*
X11417400Y-8527677D02*
X11447400Y-8557677D01*
X11447400Y-8527677D02*
X11417400Y-8557677D01*
X11417400Y-9611600D02*
X11447400Y-9641600D01*
X11447400Y-9611600D02*
X11417400Y-9641600D01*
X11417400Y-10635877D02*
X11447400Y-10665877D01*
X11447400Y-10635877D02*
X11417400Y-10665877D01*
X11418400Y-7384677D02*
X11448400Y-7414677D01*
X11448400Y-7384677D02*
X11418400Y-7414677D01*
X11418400Y-7638677D02*
X11448400Y-7668677D01*
X11448400Y-7638677D02*
X11418400Y-7668677D01*
X11418400Y-7892677D02*
X11448400Y-7922677D01*
X11448400Y-7892677D02*
X11418400Y-7922677D01*
X11418400Y-8400677D02*
X11448400Y-8430677D01*
X11448400Y-8400677D02*
X11418400Y-8430677D01*
X11418500Y-8019677D02*
X11448500Y-8049677D01*
X11448500Y-8019677D02*
X11418500Y-8049677D01*
X11418500Y-8273677D02*
X11448500Y-8303677D01*
X11448500Y-8273677D02*
X11418500Y-8303677D01*
X11468100Y-11194677D02*
X11498100Y-11224677D01*
X11498100Y-11194677D02*
X11468100Y-11224677D01*
X11468100Y-11448677D02*
X11498100Y-11478677D01*
X11498100Y-11448677D02*
X11468100Y-11478677D01*
X11468100Y-11702677D02*
X11498100Y-11732677D01*
X11498100Y-11702677D02*
X11468100Y-11732677D01*
X11468200Y-11321677D02*
X11498200Y-11351677D01*
X11498200Y-11321677D02*
X11468200Y-11351677D01*
X11468200Y-11829677D02*
X11498200Y-11859677D01*
X11498200Y-11829677D02*
X11468200Y-11859677D01*
X11468200Y-12083677D02*
X11498200Y-12113677D01*
X11498200Y-12083677D02*
X11468200Y-12113677D01*
X11544400Y-8527677D02*
X11574400Y-8557677D01*
X11574400Y-8527677D02*
X11544400Y-8557677D01*
X11544400Y-9611600D02*
X11574400Y-9641600D01*
X11574400Y-9611600D02*
X11544400Y-9641600D01*
X11544400Y-10635877D02*
X11574400Y-10665877D01*
X11574400Y-10635877D02*
X11544400Y-10665877D01*
X11545500Y-7511677D02*
X11575500Y-7541677D01*
X11575500Y-7511677D02*
X11545500Y-7541677D01*
X11545500Y-8273677D02*
X11575500Y-8303677D01*
X11575500Y-8273677D02*
X11545500Y-8303677D01*
X11595100Y-12210677D02*
X11625100Y-12240677D01*
X11625100Y-12210677D02*
X11595100Y-12240677D01*
X11595200Y-11194677D02*
X11625200Y-11224677D01*
X11625200Y-11194677D02*
X11595200Y-11224677D01*
X11595200Y-11321677D02*
X11625200Y-11351677D01*
X11625200Y-11321677D02*
X11595200Y-11351677D01*
X11595200Y-11448677D02*
X11625200Y-11478677D01*
X11625200Y-11448677D02*
X11595200Y-11478677D01*
X11595200Y-11575677D02*
X11625200Y-11605677D01*
X11625200Y-11575677D02*
X11595200Y-11605677D01*
X11595200Y-12083677D02*
X11625200Y-12113677D01*
X11625200Y-12083677D02*
X11595200Y-12113677D01*
X11671400Y-8527677D02*
X11701400Y-8557677D01*
X11701400Y-8527677D02*
X11671400Y-8557677D01*
X11671400Y-9611600D02*
X11701400Y-9641600D01*
X11701400Y-9611600D02*
X11671400Y-9641600D01*
X11671400Y-10635877D02*
X11701400Y-10665877D01*
X11701400Y-10635877D02*
X11671400Y-10665877D01*
X11672400Y-8146677D02*
X11702400Y-8176677D01*
X11702400Y-8146677D02*
X11672400Y-8176677D01*
X11672400Y-8400677D02*
X11702400Y-8430677D01*
X11702400Y-8400677D02*
X11672400Y-8430677D01*
X11672500Y-7511677D02*
X11702500Y-7541677D01*
X11702500Y-7511677D02*
X11672500Y-7541677D01*
X11672500Y-7765677D02*
X11702500Y-7795677D01*
X11702500Y-7765677D02*
X11672500Y-7795677D01*
X11722100Y-11956677D02*
X11752100Y-11986677D01*
X11752100Y-11956677D02*
X11722100Y-11986677D01*
X11722200Y-11194677D02*
X11752200Y-11224677D01*
X11752200Y-11194677D02*
X11722200Y-11224677D01*
X11722200Y-11575677D02*
X11752200Y-11605677D01*
X11752200Y-11575677D02*
X11722200Y-11605677D01*
X11722200Y-11829677D02*
X11752200Y-11859677D01*
X11752200Y-11829677D02*
X11722200Y-11859677D01*
X11798400Y-8527677D02*
X11828400Y-8557677D01*
X11828400Y-8527677D02*
X11798400Y-8557677D01*
X11798400Y-9611600D02*
X11828400Y-9641600D01*
X11828400Y-9611600D02*
X11798400Y-9641600D01*
X11798400Y-10635877D02*
X11828400Y-10665877D01*
X11828400Y-10635877D02*
X11798400Y-10665877D01*
X11799400Y-7384677D02*
X11829400Y-7414677D01*
X11829400Y-7384677D02*
X11799400Y-7414677D01*
X11799400Y-7638677D02*
X11829400Y-7668677D01*
X11829400Y-7638677D02*
X11799400Y-7668677D01*
X11799400Y-7892677D02*
X11829400Y-7922677D01*
X11829400Y-7892677D02*
X11799400Y-7922677D01*
X11799500Y-7765677D02*
X11829500Y-7795677D01*
X11829500Y-7765677D02*
X11799500Y-7795677D01*
X11799500Y-8019677D02*
X11829500Y-8049677D01*
X11829500Y-8019677D02*
X11799500Y-8049677D01*
X11849100Y-11194677D02*
X11879100Y-11224677D01*
X11879100Y-11194677D02*
X11849100Y-11224677D01*
X11849100Y-11448677D02*
X11879100Y-11478677D01*
X11879100Y-11448677D02*
X11849100Y-11478677D01*
X11849100Y-11702677D02*
X11879100Y-11732677D01*
X11879100Y-11702677D02*
X11849100Y-11732677D01*
X11849100Y-12210677D02*
X11879100Y-12240677D01*
X11879100Y-12210677D02*
X11849100Y-12240677D01*
X11849200Y-11829677D02*
X11879200Y-11859677D01*
X11879200Y-11829677D02*
X11849200Y-11859677D01*
X11849200Y-12083677D02*
X11879200Y-12113677D01*
X11879200Y-12083677D02*
X11849200Y-12113677D01*
X11925400Y-8527677D02*
X11955400Y-8557677D01*
X11955400Y-8527677D02*
X11925400Y-8557677D01*
X11925400Y-9611600D02*
X11955400Y-9641600D01*
X11955400Y-9611600D02*
X11925400Y-9641600D01*
X11925400Y-10635877D02*
X11955400Y-10665877D01*
X11955400Y-10635877D02*
X11925400Y-10665877D01*
X11926400Y-8146677D02*
X11956400Y-8176677D01*
X11956400Y-8146677D02*
X11926400Y-8176677D01*
X11926400Y-8400677D02*
X11956400Y-8430677D01*
X11956400Y-8400677D02*
X11926400Y-8430677D01*
X11926500Y-7638677D02*
X11956500Y-7668677D01*
X11956500Y-7638677D02*
X11926500Y-7668677D01*
X11926500Y-8019677D02*
X11956500Y-8049677D01*
X11956500Y-8019677D02*
X11926500Y-8049677D01*
X11976200Y-11194677D02*
X12006200Y-11224677D01*
X12006200Y-11194677D02*
X11976200Y-11224677D01*
X11976200Y-11321677D02*
X12006200Y-11351677D01*
X12006200Y-11321677D02*
X11976200Y-11351677D01*
X11976200Y-12083677D02*
X12006200Y-12113677D01*
X12006200Y-12083677D02*
X11976200Y-12113677D01*
X12052400Y-8527677D02*
X12082400Y-8557677D01*
X12082400Y-8527677D02*
X12052400Y-8557677D01*
X12052400Y-9611600D02*
X12082400Y-9641600D01*
X12082400Y-9611600D02*
X12052400Y-9641600D01*
X12052400Y-10635877D02*
X12082400Y-10665877D01*
X12082400Y-10635877D02*
X12052400Y-10665877D01*
X12053500Y-7638677D02*
X12083500Y-7668677D01*
X12083500Y-7638677D02*
X12053500Y-7668677D01*
X12053500Y-7765677D02*
X12083500Y-7795677D01*
X12083500Y-7765677D02*
X12053500Y-7795677D01*
X12103100Y-11956677D02*
X12133100Y-11986677D01*
X12133100Y-11956677D02*
X12103100Y-11986677D01*
X12103100Y-12210677D02*
X12133100Y-12240677D01*
X12133100Y-12210677D02*
X12103100Y-12240677D01*
X12103200Y-11194677D02*
X12133200Y-11224677D01*
X12133200Y-11194677D02*
X12103200Y-11224677D01*
X12103200Y-11321677D02*
X12133200Y-11351677D01*
X12133200Y-11321677D02*
X12103200Y-11351677D01*
X12103200Y-11575677D02*
X12133200Y-11605677D01*
X12133200Y-11575677D02*
X12103200Y-11605677D01*
X12179400Y-8527677D02*
X12209400Y-8557677D01*
X12209400Y-8527677D02*
X12179400Y-8557677D01*
X12179400Y-9611600D02*
X12209400Y-9641600D01*
X12209400Y-9611600D02*
X12179400Y-9641600D01*
X12179400Y-10635877D02*
X12209400Y-10665877D01*
X12209400Y-10635877D02*
X12179400Y-10665877D01*
X12180400Y-7384677D02*
X12210400Y-7414677D01*
X12210400Y-7384677D02*
X12180400Y-7414677D01*
X12180400Y-7638677D02*
X12210400Y-7668677D01*
X12210400Y-7638677D02*
X12180400Y-7668677D01*
X12180400Y-7892677D02*
X12210400Y-7922677D01*
X12210400Y-7892677D02*
X12180400Y-7922677D01*
X12180400Y-8146677D02*
X12210400Y-8176677D01*
X12210400Y-8146677D02*
X12180400Y-8176677D01*
X12180400Y-8400677D02*
X12210400Y-8430677D01*
X12210400Y-8400677D02*
X12180400Y-8430677D01*
X12180500Y-7511677D02*
X12210500Y-7541677D01*
X12210500Y-7511677D02*
X12180500Y-7541677D01*
X12180500Y-7765677D02*
X12210500Y-7795677D01*
X12210500Y-7765677D02*
X12180500Y-7795677D01*
X12230100Y-11194677D02*
X12260100Y-11224677D01*
X12260100Y-11194677D02*
X12230100Y-11224677D01*
X12230100Y-11448677D02*
X12260100Y-11478677D01*
X12260100Y-11448677D02*
X12230100Y-11478677D01*
X12230100Y-11702677D02*
X12260100Y-11732677D01*
X12260100Y-11702677D02*
X12230100Y-11732677D01*
X12230200Y-11575677D02*
X12260200Y-11605677D01*
X12260200Y-11575677D02*
X12230200Y-11605677D01*
X12230200Y-11829677D02*
X12260200Y-11859677D01*
X12260200Y-11829677D02*
X12230200Y-11859677D01*
X12306400Y-8527677D02*
X12336400Y-8557677D01*
X12336400Y-8527677D02*
X12306400Y-8557677D01*
X12306400Y-9611600D02*
X12336400Y-9641600D01*
X12336400Y-9611600D02*
X12306400Y-9641600D01*
X12306400Y-10635877D02*
X12336400Y-10665877D01*
X12336400Y-10635877D02*
X12306400Y-10665877D01*
X12307500Y-7511677D02*
X12337500Y-7541677D01*
X12337500Y-7511677D02*
X12307500Y-7541677D01*
X12307500Y-8019677D02*
X12337500Y-8049677D01*
X12337500Y-8019677D02*
X12307500Y-8049677D01*
X12357100Y-11956677D02*
X12387100Y-11986677D01*
X12387100Y-11956677D02*
X12357100Y-11986677D01*
X12357100Y-12210677D02*
X12387100Y-12240677D01*
X12387100Y-12210677D02*
X12357100Y-12240677D01*
X12357200Y-11194677D02*
X12387200Y-11224677D01*
X12387200Y-11194677D02*
X12357200Y-11224677D01*
X12357200Y-11448677D02*
X12387200Y-11478677D01*
X12387200Y-11448677D02*
X12357200Y-11478677D01*
X12357200Y-11829677D02*
X12387200Y-11859677D01*
X12387200Y-11829677D02*
X12357200Y-11859677D01*
X12433400Y-8527677D02*
X12463400Y-8557677D01*
X12463400Y-8527677D02*
X12433400Y-8557677D01*
X12433400Y-9611600D02*
X12463400Y-9641600D01*
X12463400Y-9611600D02*
X12433400Y-9641600D01*
X12433400Y-10635877D02*
X12463400Y-10665877D01*
X12463400Y-10635877D02*
X12433400Y-10665877D01*
X12434400Y-7384677D02*
X12464400Y-7414677D01*
X12464400Y-7384677D02*
X12434400Y-7414677D01*
X12434400Y-7638677D02*
X12464400Y-7668677D01*
X12464400Y-7638677D02*
X12434400Y-7668677D01*
X12434400Y-7892677D02*
X12464400Y-7922677D01*
X12464400Y-7892677D02*
X12434400Y-7922677D01*
X12434400Y-8146677D02*
X12464400Y-8176677D01*
X12464400Y-8146677D02*
X12434400Y-8176677D01*
X12434400Y-8400677D02*
X12464400Y-8430677D01*
X12464400Y-8400677D02*
X12434400Y-8430677D01*
X12434500Y-8019677D02*
X12464500Y-8049677D01*
X12464500Y-8019677D02*
X12434500Y-8049677D01*
X12484200Y-11194677D02*
X12514200Y-11224677D01*
X12514200Y-11194677D02*
X12484200Y-11224677D01*
X12484200Y-11448677D02*
X12514200Y-11478677D01*
X12514200Y-11448677D02*
X12484200Y-11478677D01*
X12484200Y-11575677D02*
X12514200Y-11605677D01*
X12514200Y-11575677D02*
X12484200Y-11605677D01*
X12611100Y-11194677D02*
X12641100Y-11224677D01*
X12641100Y-11194677D02*
X12611100Y-11224677D01*
X12611100Y-11448677D02*
X12641100Y-11478677D01*
X12641100Y-11448677D02*
X12611100Y-11478677D01*
X12611100Y-11702677D02*
X12641100Y-11732677D01*
X12641100Y-11702677D02*
X12611100Y-11732677D01*
X12611100Y-11956677D02*
X12641100Y-11986677D01*
X12641100Y-11956677D02*
X12611100Y-11986677D01*
X12611100Y-12210677D02*
X12641100Y-12240677D01*
X12641100Y-12210677D02*
X12611100Y-12240677D01*
X12611200Y-11321677D02*
X12641200Y-11351677D01*
X12641200Y-11321677D02*
X12611200Y-11351677D01*
X12611200Y-11575677D02*
X12641200Y-11605677D01*
X12641200Y-11575677D02*
X12611200Y-11605677D01*
X12688400Y-7384677D02*
X12718400Y-7414677D01*
X12718400Y-7384677D02*
X12688400Y-7414677D01*
X12688400Y-7638677D02*
X12718400Y-7668677D01*
X12718400Y-7638677D02*
X12688400Y-7668677D01*
X12688400Y-7892677D02*
X12718400Y-7922677D01*
X12718400Y-7892677D02*
X12688400Y-7922677D01*
X12688400Y-8146677D02*
X12718400Y-8176677D01*
X12718400Y-8146677D02*
X12688400Y-8176677D01*
X12688400Y-8400677D02*
X12718400Y-8430677D01*
X12718400Y-8400677D02*
X12688400Y-8430677D01*
X12738200Y-11194677D02*
X12768200Y-11224677D01*
X12768200Y-11194677D02*
X12738200Y-11224677D01*
X12738200Y-11321677D02*
X12768200Y-11351677D01*
X12768200Y-11321677D02*
X12738200Y-11351677D01*
X12738200Y-11829677D02*
X12768200Y-11859677D01*
X12768200Y-11829677D02*
X12738200Y-11859677D01*
X12865100Y-11194677D02*
X12895100Y-11224677D01*
X12895100Y-11194677D02*
X12865100Y-11224677D01*
X12865100Y-11448677D02*
X12895100Y-11478677D01*
X12895100Y-11448677D02*
X12865100Y-11478677D01*
X12865100Y-11702677D02*
X12895100Y-11732677D01*
X12895100Y-11702677D02*
X12865100Y-11732677D01*
X12865100Y-11956677D02*
X12895100Y-11986677D01*
X12895100Y-11956677D02*
X12865100Y-11986677D01*
X12865100Y-12210677D02*
X12895100Y-12240677D01*
X12895100Y-12210677D02*
X12865100Y-12240677D01*
X12865200Y-11829677D02*
X12895200Y-11859677D01*
X12895200Y-11829677D02*
X12865200Y-11859677D01*
X12878000Y-10619000D02*
X12908000Y-10649000D01*
X12908000Y-10619000D02*
X12878000Y-10649000D01*
X12992200Y-11575677D02*
X13022200Y-11605677D01*
X13022200Y-11575677D02*
X12992200Y-11605677D01*
X13005000Y-10619000D02*
X13035000Y-10649000D01*
X13035000Y-10619000D02*
X13005000Y-10649000D01*
X13119100Y-11194677D02*
X13149100Y-11224677D01*
X13149100Y-11194677D02*
X13119100Y-11224677D01*
X13119100Y-11448677D02*
X13149100Y-11478677D01*
X13149100Y-11448677D02*
X13119100Y-11478677D01*
X13119100Y-11702677D02*
X13149100Y-11732677D01*
X13149100Y-11702677D02*
X13119100Y-11732677D01*
X13119100Y-11956677D02*
X13149100Y-11986677D01*
X13149100Y-11956677D02*
X13119100Y-11986677D01*
X13119100Y-12210677D02*
X13149100Y-12240677D01*
X13149100Y-12210677D02*
X13119100Y-12240677D01*
X13119200Y-11575677D02*
X13149200Y-11605677D01*
X13149200Y-11575677D02*
X13119200Y-11605677D01*
X13637500Y-11021300D02*
X13667500Y-11051300D01*
X13667500Y-11021300D02*
X13637500Y-11051300D01*
X13678000Y-8375277D02*
X13708000Y-8405277D01*
X13708000Y-8375277D02*
X13678000Y-8405277D01*
X13678000Y-8464177D02*
X13708000Y-8494177D01*
X13708000Y-8464177D02*
X13678000Y-8494177D01*
X13678000Y-9149977D02*
X13708000Y-9179977D01*
X13708000Y-9149977D02*
X13678000Y-9179977D01*
X13678000Y-9238877D02*
X13708000Y-9268877D01*
X13708000Y-9238877D02*
X13678000Y-9268877D01*
X13766900Y-8375277D02*
X13796900Y-8405277D01*
X13796900Y-8375277D02*
X13766900Y-8405277D01*
X13766900Y-8464177D02*
X13796900Y-8494177D01*
X13796900Y-8464177D02*
X13766900Y-8494177D01*
X13766900Y-9149977D02*
X13796900Y-9179977D01*
X13796900Y-9149977D02*
X13766900Y-9179977D01*
X13766900Y-9238877D02*
X13796900Y-9268877D01*
X13796900Y-9238877D02*
X13766900Y-9268877D01*
X13769000Y-11021300D02*
X13799000Y-11051300D01*
X13799000Y-11021300D02*
X13769000Y-11051300D01*
X13919300Y-8756277D02*
X13949300Y-8786277D01*
X13949300Y-8756277D02*
X13919300Y-8786277D01*
X13919300Y-8845177D02*
X13949300Y-8875177D01*
X13949300Y-8845177D02*
X13919300Y-8875177D01*
X14008200Y-8756277D02*
X14038200Y-8786277D01*
X14038200Y-8756277D02*
X14008200Y-8786277D01*
X14008200Y-8845177D02*
X14038200Y-8875177D01*
X14038200Y-8845177D02*
X14008200Y-8875177D01*
X14148000Y-10476000D02*
X14178000Y-10506000D01*
X14178000Y-10476000D02*
X14148000Y-10506000D01*
X14275000Y-10476000D02*
X14305000Y-10506000D01*
X14305000Y-10476000D02*
X14275000Y-10506000D01*
X14290000Y-12273000D02*
X14320000Y-12303000D01*
X14320000Y-12273000D02*
X14290000Y-12303000D01*
X14290000Y-12402000D02*
X14320000Y-12432000D01*
X14320000Y-12402000D02*
X14290000Y-12432000D01*
X15113100Y-11512177D02*
X15143100Y-11542177D01*
X15143100Y-11512177D02*
X15113100Y-11542177D01*
X15166400Y-11321677D02*
X15196400Y-11351677D01*
X15196400Y-11321677D02*
X15166400Y-11351677D01*
X15166400Y-11448677D02*
X15196400Y-11478677D01*
X15196400Y-11448677D02*
X15166400Y-11478677D01*
X15166400Y-11575677D02*
X15196400Y-11605677D01*
X15196400Y-11575677D02*
X15166400Y-11605677D01*
X15166400Y-11702677D02*
X15196400Y-11732677D01*
X15196400Y-11702677D02*
X15166400Y-11732677D01*
X15166400Y-11829677D02*
X15196400Y-11859677D01*
X15196400Y-11829677D02*
X15166400Y-11859677D01*
X15166400Y-11956677D02*
X15196400Y-11986677D01*
X15196400Y-11956677D02*
X15166400Y-11986677D01*
X15293400Y-11321677D02*
X15323400Y-11351677D01*
X15323400Y-11321677D02*
X15293400Y-11351677D01*
X15293400Y-11448677D02*
X15323400Y-11478677D01*
X15323400Y-11448677D02*
X15293400Y-11478677D01*
X15293400Y-11575677D02*
X15323400Y-11605677D01*
X15323400Y-11575677D02*
X15293400Y-11605677D01*
X15293400Y-11702677D02*
X15323400Y-11732677D01*
X15323400Y-11702677D02*
X15293400Y-11732677D01*
X15293400Y-11829677D02*
X15323400Y-11859677D01*
X15323400Y-11829677D02*
X15293400Y-11859677D01*
X15293400Y-11956677D02*
X15323400Y-11986677D01*
X15323400Y-11956677D02*
X15293400Y-11986677D01*
X15420400Y-11194677D02*
X15450400Y-11224677D01*
X15450400Y-11194677D02*
X15420400Y-11224677D01*
X15420400Y-11448677D02*
X15450400Y-11478677D01*
X15450400Y-11448677D02*
X15420400Y-11478677D01*
X15420400Y-11702677D02*
X15450400Y-11732677D01*
X15450400Y-11702677D02*
X15420400Y-11732677D01*
X15420400Y-11829677D02*
X15450400Y-11859677D01*
X15450400Y-11829677D02*
X15420400Y-11859677D01*
X15420400Y-11956677D02*
X15450400Y-11986677D01*
X15450400Y-11956677D02*
X15420400Y-11986677D01*
X15420400Y-12083677D02*
X15450400Y-12113677D01*
X15450400Y-12083677D02*
X15420400Y-12113677D01*
X15544900Y-7702177D02*
X15574900Y-7732177D01*
X15574900Y-7702177D02*
X15544900Y-7732177D01*
X15547400Y-11829677D02*
X15577400Y-11859677D01*
X15577400Y-11829677D02*
X15547400Y-11859677D01*
X15547400Y-11956677D02*
X15577400Y-11986677D01*
X15577400Y-11956677D02*
X15547400Y-11986677D01*
X15547400Y-12210677D02*
X15577400Y-12240677D01*
X15577400Y-12210677D02*
X15547400Y-12240677D01*
X15597100Y-7511677D02*
X15627100Y-7541677D01*
X15627100Y-7511677D02*
X15597100Y-7541677D01*
X15597100Y-7638677D02*
X15627100Y-7668677D01*
X15627100Y-7638677D02*
X15597100Y-7668677D01*
X15597100Y-7765677D02*
X15627100Y-7795677D01*
X15627100Y-7765677D02*
X15597100Y-7795677D01*
X15597100Y-7892677D02*
X15627100Y-7922677D01*
X15627100Y-7892677D02*
X15597100Y-7922677D01*
X15597100Y-8019677D02*
X15627100Y-8049677D01*
X15627100Y-8019677D02*
X15597100Y-8049677D01*
X15597100Y-8146677D02*
X15627100Y-8176677D01*
X15627100Y-8146677D02*
X15597100Y-8176677D01*
X15674400Y-11956677D02*
X15704400Y-11986677D01*
X15704400Y-11956677D02*
X15674400Y-11986677D01*
X15724100Y-7511677D02*
X15754100Y-7541677D01*
X15754100Y-7511677D02*
X15724100Y-7541677D01*
X15724100Y-7638677D02*
X15754100Y-7668677D01*
X15754100Y-7638677D02*
X15724100Y-7668677D01*
X15724100Y-7765677D02*
X15754100Y-7795677D01*
X15754100Y-7765677D02*
X15724100Y-7795677D01*
X15724100Y-7892677D02*
X15754100Y-7922677D01*
X15754100Y-7892677D02*
X15724100Y-7922677D01*
X15724100Y-8019677D02*
X15754100Y-8049677D01*
X15754100Y-8019677D02*
X15724100Y-8049677D01*
X15724100Y-8146677D02*
X15754100Y-8176677D01*
X15754100Y-8146677D02*
X15724100Y-8176677D01*
X15801400Y-11194677D02*
X15831400Y-11224677D01*
X15831400Y-11194677D02*
X15801400Y-11224677D01*
X15801400Y-11448677D02*
X15831400Y-11478677D01*
X15831400Y-11448677D02*
X15801400Y-11478677D01*
X15801400Y-11702677D02*
X15831400Y-11732677D01*
X15831400Y-11702677D02*
X15801400Y-11732677D01*
X15801400Y-11829677D02*
X15831400Y-11859677D01*
X15831400Y-11829677D02*
X15801400Y-11859677D01*
X15801400Y-11956677D02*
X15831400Y-11986677D01*
X15831400Y-11956677D02*
X15801400Y-11986677D01*
X15801400Y-12210677D02*
X15831400Y-12240677D01*
X15831400Y-12210677D02*
X15801400Y-12240677D01*
X15851100Y-7257677D02*
X15881100Y-7287677D01*
X15881100Y-7257677D02*
X15851100Y-7287677D01*
X15851100Y-7384677D02*
X15881100Y-7414677D01*
X15881100Y-7384677D02*
X15851100Y-7414677D01*
X15851100Y-7511677D02*
X15881100Y-7541677D01*
X15881100Y-7511677D02*
X15851100Y-7541677D01*
X15851100Y-7638677D02*
X15881100Y-7668677D01*
X15881100Y-7638677D02*
X15851100Y-7668677D01*
X15851100Y-7892677D02*
X15881100Y-7922677D01*
X15881100Y-7892677D02*
X15851100Y-7922677D01*
X15851100Y-8019677D02*
X15881100Y-8049677D01*
X15881100Y-8019677D02*
X15851100Y-8049677D01*
X15851100Y-8146677D02*
X15881100Y-8176677D01*
X15881100Y-8146677D02*
X15851100Y-8176677D01*
X15851100Y-8273677D02*
X15881100Y-8303677D01*
X15881100Y-8273677D02*
X15851100Y-8303677D01*
X15978100Y-7384677D02*
X16008100Y-7414677D01*
X16008100Y-7384677D02*
X15978100Y-7414677D01*
X15978100Y-7511677D02*
X16008100Y-7541677D01*
X16008100Y-7511677D02*
X15978100Y-7541677D01*
X15978100Y-7765677D02*
X16008100Y-7795677D01*
X16008100Y-7765677D02*
X15978100Y-7795677D01*
X15978100Y-8019677D02*
X16008100Y-8049677D01*
X16008100Y-8019677D02*
X15978100Y-8049677D01*
X15978100Y-8146677D02*
X16008100Y-8176677D01*
X16008100Y-8146677D02*
X15978100Y-8176677D01*
X15978100Y-8400677D02*
X16008100Y-8430677D01*
X16008100Y-8400677D02*
X15978100Y-8430677D01*
X16055400Y-12210677D02*
X16085400Y-12240677D01*
X16085400Y-12210677D02*
X16055400Y-12240677D01*
X16105100Y-7384677D02*
X16135100Y-7414677D01*
X16135100Y-7384677D02*
X16105100Y-7414677D01*
X16105100Y-7765677D02*
X16135100Y-7795677D01*
X16135100Y-7765677D02*
X16105100Y-7795677D01*
X16105100Y-8146677D02*
X16135100Y-8176677D01*
X16135100Y-8146677D02*
X16105100Y-8176677D01*
X16182400Y-11194677D02*
X16212400Y-11224677D01*
X16212400Y-11194677D02*
X16182400Y-11224677D01*
X16182400Y-11321677D02*
X16212400Y-11351677D01*
X16212400Y-11321677D02*
X16182400Y-11351677D01*
X16182400Y-11448677D02*
X16212400Y-11478677D01*
X16212400Y-11448677D02*
X16182400Y-11478677D01*
X16182400Y-11702677D02*
X16212400Y-11732677D01*
X16212400Y-11702677D02*
X16182400Y-11732677D01*
X16182400Y-11956677D02*
X16212400Y-11986677D01*
X16212400Y-11956677D02*
X16182400Y-11986677D01*
X16232100Y-7384677D02*
X16262100Y-7414677D01*
X16262100Y-7384677D02*
X16232100Y-7414677D01*
X16232100Y-7511677D02*
X16262100Y-7541677D01*
X16262100Y-7511677D02*
X16232100Y-7541677D01*
X16232100Y-7638677D02*
X16262100Y-7668677D01*
X16262100Y-7638677D02*
X16232100Y-7668677D01*
X16232100Y-7892677D02*
X16262100Y-7922677D01*
X16262100Y-7892677D02*
X16232100Y-7922677D01*
X16232100Y-8019677D02*
X16262100Y-8049677D01*
X16262100Y-8019677D02*
X16232100Y-8049677D01*
X16232100Y-8146677D02*
X16262100Y-8176677D01*
X16262100Y-8146677D02*
X16232100Y-8176677D01*
X16232100Y-8400677D02*
X16262100Y-8430677D01*
X16262100Y-8400677D02*
X16232100Y-8430677D01*
X16232100Y-8730877D02*
X16262100Y-8760877D01*
X16262100Y-8730877D02*
X16232100Y-8760877D01*
X16309000Y-11194677D02*
X16339000Y-11224677D01*
X16339000Y-11194677D02*
X16309000Y-11224677D01*
X16309400Y-11321677D02*
X16339400Y-11351677D01*
X16339400Y-11321677D02*
X16309400Y-11351677D01*
X16309400Y-11575677D02*
X16339400Y-11605677D01*
X16339400Y-11575677D02*
X16309400Y-11605677D01*
X16309400Y-12210677D02*
X16339400Y-12240677D01*
X16339400Y-12210677D02*
X16309400Y-12240677D01*
X16359100Y-7511677D02*
X16389100Y-7541677D01*
X16389100Y-7511677D02*
X16359100Y-7541677D01*
X16359100Y-7765677D02*
X16389100Y-7795677D01*
X16389100Y-7765677D02*
X16359100Y-7795677D01*
X16359100Y-8730877D02*
X16389100Y-8760877D01*
X16389100Y-8730877D02*
X16359100Y-8760877D01*
X16421200Y-7156077D02*
X16451200Y-7186077D01*
X16451200Y-7156077D02*
X16421200Y-7186077D01*
X16421200Y-8857877D02*
X16451200Y-8887877D01*
X16451200Y-8857877D02*
X16421200Y-8887877D01*
X16436000Y-11194677D02*
X16466000Y-11224677D01*
X16466000Y-11194677D02*
X16436000Y-11224677D01*
X16436400Y-11575677D02*
X16466400Y-11605677D01*
X16466400Y-11575677D02*
X16436400Y-11605677D01*
X16486100Y-7765677D02*
X16516100Y-7795677D01*
X16516100Y-7765677D02*
X16486100Y-7795677D01*
X16486100Y-8019677D02*
X16516100Y-8049677D01*
X16516100Y-8019677D02*
X16486100Y-8049677D01*
X16486100Y-8400677D02*
X16516100Y-8430677D01*
X16516100Y-8400677D02*
X16486100Y-8430677D01*
X16548200Y-8857877D02*
X16578200Y-8887877D01*
X16578200Y-8857877D02*
X16548200Y-8887877D01*
X16563400Y-11194677D02*
X16593400Y-11224677D01*
X16593400Y-11194677D02*
X16563400Y-11224677D01*
X16563400Y-11321677D02*
X16593400Y-11351677D01*
X16593400Y-11321677D02*
X16563400Y-11351677D01*
X16563400Y-11448677D02*
X16593400Y-11478677D01*
X16593400Y-11448677D02*
X16563400Y-11478677D01*
X16563400Y-11702677D02*
X16593400Y-11732677D01*
X16593400Y-11702677D02*
X16563400Y-11732677D01*
X16563400Y-12210677D02*
X16593400Y-12240677D01*
X16593400Y-12210677D02*
X16563400Y-12240677D01*
X16611700Y-9433700D02*
X16641700Y-9463700D01*
X16641700Y-9433700D02*
X16611700Y-9463700D01*
X16611700Y-10648577D02*
X16641700Y-10678577D01*
X16641700Y-10648577D02*
X16611700Y-10678577D01*
X16613100Y-7384677D02*
X16643100Y-7414677D01*
X16643100Y-7384677D02*
X16613100Y-7414677D01*
X16613100Y-7511677D02*
X16643100Y-7541677D01*
X16643100Y-7511677D02*
X16613100Y-7541677D01*
X16613100Y-7638677D02*
X16643100Y-7668677D01*
X16643100Y-7638677D02*
X16613100Y-7668677D01*
X16613100Y-7892677D02*
X16643100Y-7922677D01*
X16643100Y-7892677D02*
X16613100Y-7922677D01*
X16613100Y-8019677D02*
X16643100Y-8049677D01*
X16643100Y-8019677D02*
X16613100Y-8049677D01*
X16613100Y-8146677D02*
X16643100Y-8176677D01*
X16643100Y-8146677D02*
X16613100Y-8176677D01*
X16690000Y-11194677D02*
X16720000Y-11224677D01*
X16720000Y-11194677D02*
X16690000Y-11224677D01*
X16690400Y-11321677D02*
X16720400Y-11351677D01*
X16720400Y-11321677D02*
X16690400Y-11351677D01*
X16690400Y-11575677D02*
X16720400Y-11605677D01*
X16720400Y-11575677D02*
X16690400Y-11605677D01*
X16690400Y-11956677D02*
X16720400Y-11986677D01*
X16720400Y-11956677D02*
X16690400Y-11986677D01*
X16740000Y-9502000D02*
X16770000Y-9532000D01*
X16770000Y-9502000D02*
X16740000Y-9532000D01*
X16740000Y-8527677D02*
X16770000Y-8557677D01*
X16770000Y-8527677D02*
X16740000Y-8557677D01*
X16740000Y-10648577D02*
X16770000Y-10678577D01*
X16770000Y-10648577D02*
X16740000Y-10678577D01*
X16740100Y-7511677D02*
X16770100Y-7541677D01*
X16770100Y-7511677D02*
X16740100Y-7541677D01*
X16740100Y-7765677D02*
X16770100Y-7795677D01*
X16770100Y-7765677D02*
X16740100Y-7795677D01*
X16740100Y-8400677D02*
X16770100Y-8430677D01*
X16770100Y-8400677D02*
X16740100Y-8430677D01*
X16817000Y-11194677D02*
X16847000Y-11224677D01*
X16847000Y-11194677D02*
X16817000Y-11224677D01*
X16817400Y-11575677D02*
X16847400Y-11605677D01*
X16847400Y-11575677D02*
X16817400Y-11605677D01*
X16817400Y-11829677D02*
X16847400Y-11859677D01*
X16847400Y-11829677D02*
X16817400Y-11859677D01*
X16817400Y-12210677D02*
X16847400Y-12240677D01*
X16847400Y-12210677D02*
X16817400Y-12240677D01*
X16867000Y-8527677D02*
X16897000Y-8557677D01*
X16897000Y-8527677D02*
X16867000Y-8557677D01*
X16867000Y-9433700D02*
X16897000Y-9463700D01*
X16897000Y-9433700D02*
X16867000Y-9463700D01*
X16867000Y-10648577D02*
X16897000Y-10678577D01*
X16897000Y-10648577D02*
X16867000Y-10678577D01*
X16867100Y-7765677D02*
X16897100Y-7795677D01*
X16897100Y-7765677D02*
X16867100Y-7795677D01*
X16944400Y-11194677D02*
X16974400Y-11224677D01*
X16974400Y-11194677D02*
X16944400Y-11224677D01*
X16944400Y-11321677D02*
X16974400Y-11351677D01*
X16974400Y-11321677D02*
X16944400Y-11351677D01*
X16944400Y-11448677D02*
X16974400Y-11478677D01*
X16974400Y-11448677D02*
X16944400Y-11478677D01*
X16944400Y-11702677D02*
X16974400Y-11732677D01*
X16974400Y-11702677D02*
X16944400Y-11732677D01*
X16944400Y-11829677D02*
X16974400Y-11859677D01*
X16974400Y-11829677D02*
X16944400Y-11859677D01*
X16944400Y-12083677D02*
X16974400Y-12113677D01*
X16974400Y-12083677D02*
X16944400Y-12113677D01*
X16992700Y-8527677D02*
X17022700Y-8557677D01*
X17022700Y-8527677D02*
X16992700Y-8557677D01*
X16992700Y-9357600D02*
X17022700Y-9387600D01*
X17022700Y-9357600D02*
X16992700Y-9387600D01*
X16992700Y-10648577D02*
X17022700Y-10678577D01*
X17022700Y-10648577D02*
X16992700Y-10678577D01*
X16994100Y-7384677D02*
X17024100Y-7414677D01*
X17024100Y-7384677D02*
X16994100Y-7414677D01*
X16994100Y-7511677D02*
X17024100Y-7541677D01*
X17024100Y-7511677D02*
X16994100Y-7541677D01*
X16994100Y-7638677D02*
X17024100Y-7668677D01*
X17024100Y-7638677D02*
X16994100Y-7668677D01*
X16994100Y-7892677D02*
X17024100Y-7922677D01*
X17024100Y-7892677D02*
X16994100Y-7922677D01*
X16994100Y-8400677D02*
X17024100Y-8430677D01*
X17024100Y-8400677D02*
X16994100Y-8430677D01*
X17070100Y-11448677D02*
X17100100Y-11478677D01*
X17100100Y-11448677D02*
X17070100Y-11478677D01*
X17071000Y-11194677D02*
X17101000Y-11224677D01*
X17101000Y-11194677D02*
X17071000Y-11224677D01*
X17071400Y-11321677D02*
X17101400Y-11351677D01*
X17101400Y-11321677D02*
X17071400Y-11351677D01*
X17071400Y-11575677D02*
X17101400Y-11605677D01*
X17101400Y-11575677D02*
X17071400Y-11605677D01*
X17071400Y-12083677D02*
X17101400Y-12113677D01*
X17101400Y-12083677D02*
X17071400Y-12113677D01*
X17071400Y-12210677D02*
X17101400Y-12240677D01*
X17101400Y-12210677D02*
X17071400Y-12240677D01*
X17121000Y-8527677D02*
X17151000Y-8557677D01*
X17151000Y-8527677D02*
X17121000Y-8557677D01*
X17121000Y-9433700D02*
X17151000Y-9463700D01*
X17151000Y-9433700D02*
X17121000Y-9463700D01*
X17121000Y-10648577D02*
X17151000Y-10678577D01*
X17151000Y-10648577D02*
X17121000Y-10678577D01*
X17121100Y-7511677D02*
X17151100Y-7541677D01*
X17151100Y-7511677D02*
X17121100Y-7541677D01*
X17121100Y-7765677D02*
X17151100Y-7795677D01*
X17151100Y-7765677D02*
X17121100Y-7795677D01*
X17121100Y-8146677D02*
X17151100Y-8176677D01*
X17151100Y-8146677D02*
X17121100Y-8176677D01*
X17198000Y-11194677D02*
X17228000Y-11224677D01*
X17228000Y-11194677D02*
X17198000Y-11224677D01*
X17198400Y-11575677D02*
X17228400Y-11605677D01*
X17228400Y-11575677D02*
X17198400Y-11605677D01*
X17198400Y-11829677D02*
X17228400Y-11859677D01*
X17228400Y-11829677D02*
X17198400Y-11859677D01*
X17198400Y-11956677D02*
X17228400Y-11986677D01*
X17228400Y-11956677D02*
X17198400Y-11986677D01*
X17248000Y-8527677D02*
X17278000Y-8557677D01*
X17278000Y-8527677D02*
X17248000Y-8557677D01*
X17248000Y-9433800D02*
X17278000Y-9463800D01*
X17278000Y-9433800D02*
X17248000Y-9463800D01*
X17248000Y-10648677D02*
X17278000Y-10678677D01*
X17278000Y-10648677D02*
X17248000Y-10678677D01*
X17248100Y-7765677D02*
X17278100Y-7795677D01*
X17278100Y-7765677D02*
X17248100Y-7795677D01*
X17248100Y-8019677D02*
X17278100Y-8049677D01*
X17278100Y-8019677D02*
X17248100Y-8049677D01*
X17248100Y-8400677D02*
X17278100Y-8430677D01*
X17278100Y-8400677D02*
X17248100Y-8430677D01*
X17325400Y-11194677D02*
X17355400Y-11224677D01*
X17355400Y-11194677D02*
X17325400Y-11224677D01*
X17325400Y-11321677D02*
X17355400Y-11351677D01*
X17355400Y-11321677D02*
X17325400Y-11351677D01*
X17325400Y-11448677D02*
X17355400Y-11478677D01*
X17355400Y-11448677D02*
X17325400Y-11478677D01*
X17325400Y-11702677D02*
X17355400Y-11732677D01*
X17355400Y-11702677D02*
X17325400Y-11732677D01*
X17325400Y-11829677D02*
X17355400Y-11859677D01*
X17355400Y-11829677D02*
X17325400Y-11859677D01*
X17325400Y-11956677D02*
X17355400Y-11986677D01*
X17355400Y-11956677D02*
X17325400Y-11986677D01*
X17325400Y-12210677D02*
X17355400Y-12240677D01*
X17355400Y-12210677D02*
X17325400Y-12240677D01*
X17375000Y-8146677D02*
X17405000Y-8176677D01*
X17405000Y-8146677D02*
X17375000Y-8176677D01*
X17375000Y-8527677D02*
X17405000Y-8557677D01*
X17405000Y-8527677D02*
X17375000Y-8557677D01*
X17375000Y-9433700D02*
X17405000Y-9463700D01*
X17405000Y-9433700D02*
X17375000Y-9463700D01*
X17375000Y-10648577D02*
X17405000Y-10678577D01*
X17405000Y-10648577D02*
X17375000Y-10678577D01*
X17375100Y-7384677D02*
X17405100Y-7414677D01*
X17405100Y-7384677D02*
X17375100Y-7414677D01*
X17375100Y-7511677D02*
X17405100Y-7541677D01*
X17405100Y-7511677D02*
X17375100Y-7541677D01*
X17375100Y-7638677D02*
X17405100Y-7668677D01*
X17405100Y-7638677D02*
X17375100Y-7668677D01*
X17375100Y-7892677D02*
X17405100Y-7922677D01*
X17405100Y-7892677D02*
X17375100Y-7922677D01*
X17375100Y-8019677D02*
X17405100Y-8049677D01*
X17405100Y-8019677D02*
X17375100Y-8049677D01*
X17375100Y-8273677D02*
X17405100Y-8303677D01*
X17405100Y-8273677D02*
X17375100Y-8303677D01*
X17452000Y-11194677D02*
X17482000Y-11224677D01*
X17482000Y-11194677D02*
X17452000Y-11224677D01*
X17452400Y-11321677D02*
X17482400Y-11351677D01*
X17482400Y-11321677D02*
X17452400Y-11351677D01*
X17452400Y-11575677D02*
X17482400Y-11605677D01*
X17482400Y-11575677D02*
X17452400Y-11605677D01*
X17452400Y-11956677D02*
X17482400Y-11986677D01*
X17482400Y-11956677D02*
X17452400Y-11986677D01*
X17453000Y-11448677D02*
X17483000Y-11478677D01*
X17483000Y-11448677D02*
X17453000Y-11478677D01*
X17502000Y-8527677D02*
X17532000Y-8557677D01*
X17532000Y-8527677D02*
X17502000Y-8557677D01*
X17502000Y-9433800D02*
X17532000Y-9463800D01*
X17532000Y-9433800D02*
X17502000Y-9463800D01*
X17502000Y-10648677D02*
X17532000Y-10678677D01*
X17532000Y-10648677D02*
X17502000Y-10678677D01*
X17502100Y-7511677D02*
X17532100Y-7541677D01*
X17532100Y-7511677D02*
X17502100Y-7541677D01*
X17502100Y-7765677D02*
X17532100Y-7795677D01*
X17532100Y-7765677D02*
X17502100Y-7795677D01*
X17502100Y-8273677D02*
X17532100Y-8303677D01*
X17532100Y-8273677D02*
X17502100Y-8303677D01*
X17502100Y-8400677D02*
X17532100Y-8430677D01*
X17532100Y-8400677D02*
X17502100Y-8430677D01*
X17579000Y-11194677D02*
X17609000Y-11224677D01*
X17609000Y-11194677D02*
X17579000Y-11224677D01*
X17579400Y-11575677D02*
X17609400Y-11605677D01*
X17609400Y-11575677D02*
X17579400Y-11605677D01*
X17579400Y-11829677D02*
X17609400Y-11859677D01*
X17609400Y-11829677D02*
X17579400Y-11859677D01*
X17579400Y-11956677D02*
X17609400Y-11986677D01*
X17609400Y-11956677D02*
X17579400Y-11986677D01*
X17579400Y-12083677D02*
X17609400Y-12113677D01*
X17609400Y-12083677D02*
X17579400Y-12113677D01*
X17579400Y-12210677D02*
X17609400Y-12240677D01*
X17609400Y-12210677D02*
X17579400Y-12240677D01*
X17629000Y-8527677D02*
X17659000Y-8557677D01*
X17659000Y-8527677D02*
X17629000Y-8557677D01*
X17629000Y-9433700D02*
X17659000Y-9463700D01*
X17659000Y-9433700D02*
X17629000Y-9463700D01*
X17629000Y-10648577D02*
X17659000Y-10678577D01*
X17659000Y-10648577D02*
X17629000Y-10678577D01*
X17629100Y-7765677D02*
X17659100Y-7795677D01*
X17659100Y-7765677D02*
X17629100Y-7795677D01*
X17629100Y-8019677D02*
X17659100Y-8049677D01*
X17659100Y-8019677D02*
X17629100Y-8049677D01*
X17629100Y-8146677D02*
X17659100Y-8176677D01*
X17659100Y-8146677D02*
X17629100Y-8176677D01*
X17706400Y-11194677D02*
X17736400Y-11224677D01*
X17736400Y-11194677D02*
X17706400Y-11224677D01*
X17706400Y-11321677D02*
X17736400Y-11351677D01*
X17736400Y-11321677D02*
X17706400Y-11351677D01*
X17706400Y-11448677D02*
X17736400Y-11478677D01*
X17736400Y-11448677D02*
X17706400Y-11478677D01*
X17706400Y-11829677D02*
X17736400Y-11859677D01*
X17736400Y-11829677D02*
X17706400Y-11859677D01*
X17706400Y-12083677D02*
X17736400Y-12113677D01*
X17736400Y-12083677D02*
X17706400Y-12113677D01*
X17756000Y-8527677D02*
X17786000Y-8557677D01*
X17786000Y-8527677D02*
X17756000Y-8557677D01*
X17756000Y-9432800D02*
X17786000Y-9462800D01*
X17786000Y-9432800D02*
X17756000Y-9462800D01*
X17756000Y-10647677D02*
X17786000Y-10677677D01*
X17786000Y-10647677D02*
X17756000Y-10677677D01*
X17756100Y-7384677D02*
X17786100Y-7414677D01*
X17786100Y-7384677D02*
X17756100Y-7414677D01*
X17756100Y-7511677D02*
X17786100Y-7541677D01*
X17786100Y-7511677D02*
X17756100Y-7541677D01*
X17756100Y-7638677D02*
X17786100Y-7668677D01*
X17786100Y-7638677D02*
X17756100Y-7668677D01*
X17756100Y-7892677D02*
X17786100Y-7922677D01*
X17786100Y-7892677D02*
X17756100Y-7922677D01*
X17756100Y-8019677D02*
X17786100Y-8049677D01*
X17786100Y-8019677D02*
X17756100Y-8049677D01*
X17756100Y-8146677D02*
X17786100Y-8176677D01*
X17786100Y-8146677D02*
X17756100Y-8176677D01*
X17756100Y-8400677D02*
X17786100Y-8430677D01*
X17786100Y-8400677D02*
X17756100Y-8430677D01*
X17833000Y-11194677D02*
X17863000Y-11224677D01*
X17863000Y-11194677D02*
X17833000Y-11224677D01*
X17833400Y-11321677D02*
X17863400Y-11351677D01*
X17863400Y-11321677D02*
X17833400Y-11351677D01*
X17833400Y-11575677D02*
X17863400Y-11605677D01*
X17863400Y-11575677D02*
X17833400Y-11605677D01*
X17833400Y-11956677D02*
X17863400Y-11986677D01*
X17863400Y-11956677D02*
X17833400Y-11986677D01*
X17833400Y-12083677D02*
X17863400Y-12113677D01*
X17863400Y-12083677D02*
X17833400Y-12113677D01*
X17833400Y-12210677D02*
X17863400Y-12240677D01*
X17863400Y-12210677D02*
X17833400Y-12240677D01*
X17883100Y-7511677D02*
X17913100Y-7541677D01*
X17913100Y-7511677D02*
X17883100Y-7541677D01*
X17883100Y-7765677D02*
X17913100Y-7795677D01*
X17913100Y-7765677D02*
X17883100Y-7795677D01*
X17883100Y-8146677D02*
X17913100Y-8176677D01*
X17913100Y-8146677D02*
X17883100Y-8176677D01*
X17883518Y-10584195D02*
X17913518Y-10614195D01*
X17913518Y-10584195D02*
X17883518Y-10614195D01*
X17884400Y-8527677D02*
X17914400Y-8557677D01*
X17914400Y-8527677D02*
X17884400Y-8557677D01*
X17960000Y-11194677D02*
X17990000Y-11224677D01*
X17990000Y-11194677D02*
X17960000Y-11224677D01*
X17960000Y-11448677D02*
X17990000Y-11478677D01*
X17990000Y-11448677D02*
X17960000Y-11478677D01*
X17960400Y-11575677D02*
X17990400Y-11605677D01*
X17990400Y-11575677D02*
X17960400Y-11605677D01*
X17960400Y-11829677D02*
X17990400Y-11859677D01*
X17990400Y-11829677D02*
X17960400Y-11859677D01*
X17960400Y-12083677D02*
X17990400Y-12113677D01*
X17990400Y-12083677D02*
X17960400Y-12113677D01*
X17961000Y-11702677D02*
X17991000Y-11732677D01*
X17991000Y-11702677D02*
X17961000Y-11732677D01*
X18010000Y-8527677D02*
X18040000Y-8557677D01*
X18040000Y-8527677D02*
X18010000Y-8557677D01*
X18010000Y-9433700D02*
X18040000Y-9463700D01*
X18040000Y-9433700D02*
X18010000Y-9463700D01*
X18010000Y-10648577D02*
X18040000Y-10678577D01*
X18040000Y-10648577D02*
X18010000Y-10678577D01*
X18010100Y-7765677D02*
X18040100Y-7795677D01*
X18040100Y-7765677D02*
X18010100Y-7795677D01*
X18010100Y-8019677D02*
X18040100Y-8049677D01*
X18040100Y-8019677D02*
X18010100Y-8049677D01*
X18010100Y-8146677D02*
X18040100Y-8176677D01*
X18040100Y-8146677D02*
X18010100Y-8176677D01*
X18010100Y-8273677D02*
X18040100Y-8303677D01*
X18040100Y-8273677D02*
X18010100Y-8303677D01*
X18010100Y-8400677D02*
X18040100Y-8430677D01*
X18040100Y-8400677D02*
X18010100Y-8430677D01*
X18087400Y-11194677D02*
X18117400Y-11224677D01*
X18117400Y-11194677D02*
X18087400Y-11224677D01*
X18087400Y-11321677D02*
X18117400Y-11351677D01*
X18117400Y-11321677D02*
X18087400Y-11351677D01*
X18087400Y-11448677D02*
X18117400Y-11478677D01*
X18117400Y-11448677D02*
X18087400Y-11478677D01*
X18087400Y-11702677D02*
X18117400Y-11732677D01*
X18117400Y-11702677D02*
X18087400Y-11732677D01*
X18087400Y-11829677D02*
X18117400Y-11859677D01*
X18117400Y-11829677D02*
X18087400Y-11859677D01*
X18087400Y-12210677D02*
X18117400Y-12240677D01*
X18117400Y-12210677D02*
X18087400Y-12240677D01*
X18137000Y-8527677D02*
X18167000Y-8557677D01*
X18167000Y-8527677D02*
X18137000Y-8557677D01*
X18137000Y-9433800D02*
X18167000Y-9463800D01*
X18167000Y-9433800D02*
X18137000Y-9463800D01*
X18137000Y-10648677D02*
X18167000Y-10678677D01*
X18167000Y-10648677D02*
X18137000Y-10678677D01*
X18137100Y-7384677D02*
X18167100Y-7414677D01*
X18167100Y-7384677D02*
X18137100Y-7414677D01*
X18137100Y-7511677D02*
X18167100Y-7541677D01*
X18167100Y-7511677D02*
X18137100Y-7541677D01*
X18137100Y-7638677D02*
X18167100Y-7668677D01*
X18167100Y-7638677D02*
X18137100Y-7668677D01*
X18137100Y-8019677D02*
X18167100Y-8049677D01*
X18167100Y-8019677D02*
X18137100Y-8049677D01*
X18137100Y-8273677D02*
X18167100Y-8303677D01*
X18167100Y-8273677D02*
X18137100Y-8303677D01*
X18214000Y-11194677D02*
X18244000Y-11224677D01*
X18244000Y-11194677D02*
X18214000Y-11224677D01*
X18214400Y-11321677D02*
X18244400Y-11351677D01*
X18244400Y-11321677D02*
X18214400Y-11351677D01*
X18214400Y-11575677D02*
X18244400Y-11605677D01*
X18244400Y-11575677D02*
X18214400Y-11605677D01*
X18214400Y-11956677D02*
X18244400Y-11986677D01*
X18244400Y-11956677D02*
X18214400Y-11986677D01*
X18264000Y-8527677D02*
X18294000Y-8557677D01*
X18294000Y-8527677D02*
X18264000Y-8557677D01*
X18264000Y-9433800D02*
X18294000Y-9463800D01*
X18294000Y-9433800D02*
X18264000Y-9463800D01*
X18264000Y-10648677D02*
X18294000Y-10678677D01*
X18294000Y-10648677D02*
X18264000Y-10678677D01*
X18264100Y-7511677D02*
X18294100Y-7541677D01*
X18294100Y-7511677D02*
X18264100Y-7541677D01*
X18264100Y-7765677D02*
X18294100Y-7795677D01*
X18294100Y-7765677D02*
X18264100Y-7795677D01*
X18264100Y-8146677D02*
X18294100Y-8176677D01*
X18294100Y-8146677D02*
X18264100Y-8176677D01*
X18264100Y-8273677D02*
X18294100Y-8303677D01*
X18294100Y-8273677D02*
X18264100Y-8303677D01*
X18264100Y-8400677D02*
X18294100Y-8430677D01*
X18294100Y-8400677D02*
X18264100Y-8430677D01*
X18341000Y-11194677D02*
X18371000Y-11224677D01*
X18371000Y-11194677D02*
X18341000Y-11224677D01*
X18341400Y-11575677D02*
X18371400Y-11605677D01*
X18371400Y-11575677D02*
X18341400Y-11605677D01*
X18341400Y-11829677D02*
X18371400Y-11859677D01*
X18371400Y-11829677D02*
X18341400Y-11859677D01*
X18341400Y-12210677D02*
X18371400Y-12240677D01*
X18371400Y-12210677D02*
X18341400Y-12240677D01*
X18391000Y-8527677D02*
X18421000Y-8557677D01*
X18421000Y-8527677D02*
X18391000Y-8557677D01*
X18391000Y-9433800D02*
X18421000Y-9463800D01*
X18421000Y-9433800D02*
X18391000Y-9463800D01*
X18391000Y-10648677D02*
X18421000Y-10678677D01*
X18421000Y-10648677D02*
X18391000Y-10678677D01*
X18391100Y-7765677D02*
X18421100Y-7795677D01*
X18421100Y-7765677D02*
X18391100Y-7795677D01*
X18391100Y-8019677D02*
X18421100Y-8049677D01*
X18421100Y-8019677D02*
X18391100Y-8049677D01*
X18391100Y-8273677D02*
X18421100Y-8303677D01*
X18421100Y-8273677D02*
X18391100Y-8303677D01*
X18468400Y-11194677D02*
X18498400Y-11224677D01*
X18498400Y-11194677D02*
X18468400Y-11224677D01*
X18468400Y-11321677D02*
X18498400Y-11351677D01*
X18498400Y-11321677D02*
X18468400Y-11351677D01*
X18468400Y-11448677D02*
X18498400Y-11478677D01*
X18498400Y-11448677D02*
X18468400Y-11478677D01*
X18468400Y-11702677D02*
X18498400Y-11732677D01*
X18498400Y-11702677D02*
X18468400Y-11732677D01*
X18468400Y-11829677D02*
X18498400Y-11859677D01*
X18498400Y-11829677D02*
X18468400Y-11859677D01*
X18468400Y-12083677D02*
X18498400Y-12113677D01*
X18498400Y-12083677D02*
X18468400Y-12113677D01*
X18518000Y-8527677D02*
X18548000Y-8557677D01*
X18548000Y-8527677D02*
X18518000Y-8557677D01*
X18518000Y-9433800D02*
X18548000Y-9463800D01*
X18548000Y-9433800D02*
X18518000Y-9463800D01*
X18518000Y-10648677D02*
X18548000Y-10678677D01*
X18548000Y-10648677D02*
X18518000Y-10678677D01*
X18518100Y-7384677D02*
X18548100Y-7414677D01*
X18548100Y-7384677D02*
X18518100Y-7414677D01*
X18518100Y-7511677D02*
X18548100Y-7541677D01*
X18548100Y-7511677D02*
X18518100Y-7541677D01*
X18518100Y-7638677D02*
X18548100Y-7668677D01*
X18548100Y-7638677D02*
X18518100Y-7668677D01*
X18518100Y-7892677D02*
X18548100Y-7922677D01*
X18548100Y-7892677D02*
X18518100Y-7922677D01*
X18518100Y-8019677D02*
X18548100Y-8049677D01*
X18548100Y-8019677D02*
X18518100Y-8049677D01*
X18518100Y-8400677D02*
X18548100Y-8430677D01*
X18548100Y-8400677D02*
X18518100Y-8430677D01*
X18595000Y-11194677D02*
X18625000Y-11224677D01*
X18625000Y-11194677D02*
X18595000Y-11224677D01*
X18595000Y-11448677D02*
X18625000Y-11478677D01*
X18625000Y-11448677D02*
X18595000Y-11478677D01*
X18595400Y-11321677D02*
X18625400Y-11351677D01*
X18625400Y-11321677D02*
X18595400Y-11351677D01*
X18595400Y-11575677D02*
X18625400Y-11605677D01*
X18625400Y-11575677D02*
X18595400Y-11605677D01*
X18595400Y-12083677D02*
X18625400Y-12113677D01*
X18625400Y-12083677D02*
X18595400Y-12113677D01*
X18595400Y-12210677D02*
X18625400Y-12240677D01*
X18625400Y-12210677D02*
X18595400Y-12240677D01*
X18645000Y-8527677D02*
X18675000Y-8557677D01*
X18675000Y-8527677D02*
X18645000Y-8557677D01*
X18645000Y-9433800D02*
X18675000Y-9463800D01*
X18675000Y-9433800D02*
X18645000Y-9463800D01*
X18645000Y-10648677D02*
X18675000Y-10678677D01*
X18675000Y-10648677D02*
X18645000Y-10678677D01*
X18645100Y-7511677D02*
X18675100Y-7541677D01*
X18675100Y-7511677D02*
X18645100Y-7541677D01*
X18645100Y-7765677D02*
X18675100Y-7795677D01*
X18675100Y-7765677D02*
X18645100Y-7795677D01*
X18645100Y-8146677D02*
X18675100Y-8176677D01*
X18675100Y-8146677D02*
X18645100Y-8176677D01*
X18722000Y-11194677D02*
X18752000Y-11224677D01*
X18752000Y-11194677D02*
X18722000Y-11224677D01*
X18722400Y-11575677D02*
X18752400Y-11605677D01*
X18752400Y-11575677D02*
X18722400Y-11605677D01*
X18722400Y-11829677D02*
X18752400Y-11859677D01*
X18752400Y-11829677D02*
X18722400Y-11859677D01*
X18722400Y-11956677D02*
X18752400Y-11986677D01*
X18752400Y-11956677D02*
X18722400Y-11986677D01*
X18772000Y-8527677D02*
X18802000Y-8557677D01*
X18802000Y-8527677D02*
X18772000Y-8557677D01*
X18772000Y-9433800D02*
X18802000Y-9463800D01*
X18802000Y-9433800D02*
X18772000Y-9463800D01*
X18772000Y-10648677D02*
X18802000Y-10678677D01*
X18802000Y-10648677D02*
X18772000Y-10678677D01*
X18772100Y-7765677D02*
X18802100Y-7795677D01*
X18802100Y-7765677D02*
X18772100Y-7795677D01*
X18772100Y-8019677D02*
X18802100Y-8049677D01*
X18802100Y-8019677D02*
X18772100Y-8049677D01*
X18772100Y-8400677D02*
X18802100Y-8430677D01*
X18802100Y-8400677D02*
X18772100Y-8430677D01*
X18849400Y-11194677D02*
X18879400Y-11224677D01*
X18879400Y-11194677D02*
X18849400Y-11224677D01*
X18849400Y-11448677D02*
X18879400Y-11478677D01*
X18879400Y-11448677D02*
X18849400Y-11478677D01*
X18849400Y-11702677D02*
X18879400Y-11732677D01*
X18879400Y-11702677D02*
X18849400Y-11732677D01*
X18849400Y-11829677D02*
X18879400Y-11859677D01*
X18879400Y-11829677D02*
X18849400Y-11859677D01*
X18849400Y-12083677D02*
X18879400Y-12113677D01*
X18879400Y-12083677D02*
X18849400Y-12113677D01*
X18849400Y-12210677D02*
X18879400Y-12240677D01*
X18879400Y-12210677D02*
X18849400Y-12240677D01*
X18899000Y-8146677D02*
X18929000Y-8176677D01*
X18929000Y-8146677D02*
X18899000Y-8176677D01*
X18899000Y-8527677D02*
X18929000Y-8557677D01*
X18929000Y-8527677D02*
X18899000Y-8557677D01*
X18899000Y-9433800D02*
X18929000Y-9463800D01*
X18929000Y-9433800D02*
X18899000Y-9463800D01*
X18899000Y-10648677D02*
X18929000Y-10678677D01*
X18929000Y-10648677D02*
X18899000Y-10678677D01*
X18899100Y-7384677D02*
X18929100Y-7414677D01*
X18929100Y-7384677D02*
X18899100Y-7414677D01*
X18899100Y-7511677D02*
X18929100Y-7541677D01*
X18929100Y-7511677D02*
X18899100Y-7541677D01*
X18899100Y-7638677D02*
X18929100Y-7668677D01*
X18929100Y-7638677D02*
X18899100Y-7668677D01*
X18899100Y-7892677D02*
X18929100Y-7922677D01*
X18929100Y-7892677D02*
X18899100Y-7922677D01*
X18899100Y-8019677D02*
X18929100Y-8049677D01*
X18929100Y-8019677D02*
X18899100Y-8049677D01*
X18899100Y-8273677D02*
X18929100Y-8303677D01*
X18929100Y-8273677D02*
X18899100Y-8303677D01*
X18976000Y-11194677D02*
X19006000Y-11224677D01*
X19006000Y-11194677D02*
X18976000Y-11224677D01*
X18976400Y-11321677D02*
X19006400Y-11351677D01*
X19006400Y-11321677D02*
X18976400Y-11351677D01*
X18976400Y-12083677D02*
X19006400Y-12113677D01*
X19006400Y-12083677D02*
X18976400Y-12113677D01*
X19026000Y-8527677D02*
X19056000Y-8557677D01*
X19056000Y-8527677D02*
X19026000Y-8557677D01*
X19026000Y-9433800D02*
X19056000Y-9463800D01*
X19056000Y-9433800D02*
X19026000Y-9463800D01*
X19026000Y-10648677D02*
X19056000Y-10678677D01*
X19056000Y-10648677D02*
X19026000Y-10678677D01*
X19026100Y-7511677D02*
X19056100Y-7541677D01*
X19056100Y-7511677D02*
X19026100Y-7541677D01*
X19026100Y-7765677D02*
X19056100Y-7795677D01*
X19056100Y-7765677D02*
X19026100Y-7795677D01*
X19026100Y-8273677D02*
X19056100Y-8303677D01*
X19056100Y-8273677D02*
X19026100Y-8303677D01*
X19026100Y-8400677D02*
X19056100Y-8430677D01*
X19056100Y-8400677D02*
X19026100Y-8430677D01*
X19103000Y-11194677D02*
X19133000Y-11224677D01*
X19133000Y-11194677D02*
X19103000Y-11224677D01*
X19103400Y-11321677D02*
X19133400Y-11351677D01*
X19133400Y-11321677D02*
X19103400Y-11351677D01*
X19103400Y-11575677D02*
X19133400Y-11605677D01*
X19133400Y-11575677D02*
X19103400Y-11605677D01*
X19103400Y-11956677D02*
X19133400Y-11986677D01*
X19133400Y-11956677D02*
X19103400Y-11986677D01*
X19103400Y-12210677D02*
X19133400Y-12240677D01*
X19133400Y-12210677D02*
X19103400Y-12240677D01*
X19153000Y-8527677D02*
X19183000Y-8557677D01*
X19183000Y-8527677D02*
X19153000Y-8557677D01*
X19153000Y-9433800D02*
X19183000Y-9463800D01*
X19183000Y-9433800D02*
X19153000Y-9463800D01*
X19153000Y-10648677D02*
X19183000Y-10678677D01*
X19183000Y-10648677D02*
X19153000Y-10678677D01*
X19153100Y-7765677D02*
X19183100Y-7795677D01*
X19183100Y-7765677D02*
X19153100Y-7795677D01*
X19153100Y-8019677D02*
X19183100Y-8049677D01*
X19183100Y-8019677D02*
X19153100Y-8049677D01*
X19153100Y-8146677D02*
X19183100Y-8176677D01*
X19183100Y-8146677D02*
X19153100Y-8176677D01*
X19230400Y-11194677D02*
X19260400Y-11224677D01*
X19260400Y-11194677D02*
X19230400Y-11224677D01*
X19230400Y-11448677D02*
X19260400Y-11478677D01*
X19260400Y-11448677D02*
X19230400Y-11478677D01*
X19230400Y-11575677D02*
X19260400Y-11605677D01*
X19260400Y-11575677D02*
X19230400Y-11605677D01*
X19230400Y-11702677D02*
X19260400Y-11732677D01*
X19260400Y-11702677D02*
X19230400Y-11732677D01*
X19230400Y-11829677D02*
X19260400Y-11859677D01*
X19260400Y-11829677D02*
X19230400Y-11859677D01*
X19280000Y-8527677D02*
X19310000Y-8557677D01*
X19310000Y-8527677D02*
X19280000Y-8557677D01*
X19280000Y-9433700D02*
X19310000Y-9463700D01*
X19310000Y-9433700D02*
X19280000Y-9463700D01*
X19280000Y-10648577D02*
X19310000Y-10678577D01*
X19310000Y-10648577D02*
X19280000Y-10678577D01*
X19280100Y-7384677D02*
X19310100Y-7414677D01*
X19310100Y-7384677D02*
X19280100Y-7414677D01*
X19280100Y-7638677D02*
X19310100Y-7668677D01*
X19310100Y-7638677D02*
X19280100Y-7668677D01*
X19280100Y-7892677D02*
X19310100Y-7922677D01*
X19310100Y-7892677D02*
X19280100Y-7922677D01*
X19280100Y-8019677D02*
X19310100Y-8049677D01*
X19310100Y-8019677D02*
X19280100Y-8049677D01*
X19280100Y-8273677D02*
X19310100Y-8303677D01*
X19310100Y-8273677D02*
X19280100Y-8303677D01*
X19280100Y-8400677D02*
X19310100Y-8430677D01*
X19310100Y-8400677D02*
X19280100Y-8430677D01*
X19357000Y-11194677D02*
X19387000Y-11224677D01*
X19387000Y-11194677D02*
X19357000Y-11224677D01*
X19357400Y-11321677D02*
X19387400Y-11351677D01*
X19387400Y-11321677D02*
X19357400Y-11351677D01*
X19357400Y-11829677D02*
X19387400Y-11859677D01*
X19387400Y-11829677D02*
X19357400Y-11859677D01*
X19357400Y-11956677D02*
X19387400Y-11986677D01*
X19387400Y-11956677D02*
X19357400Y-11986677D01*
X19357400Y-12210677D02*
X19387400Y-12240677D01*
X19387400Y-12210677D02*
X19357400Y-12240677D01*
X19407000Y-8527677D02*
X19437000Y-8557677D01*
X19437000Y-8527677D02*
X19407000Y-8557677D01*
X19407000Y-9433800D02*
X19437000Y-9463800D01*
X19437000Y-9433800D02*
X19407000Y-9463800D01*
X19407000Y-10648677D02*
X19437000Y-10678677D01*
X19437000Y-10648677D02*
X19407000Y-10678677D01*
X19407100Y-7511677D02*
X19437100Y-7541677D01*
X19437100Y-7511677D02*
X19407100Y-7541677D01*
X19407100Y-8273677D02*
X19437100Y-8303677D01*
X19437100Y-8273677D02*
X19407100Y-8303677D01*
X19484000Y-11194677D02*
X19514000Y-11224677D01*
X19514000Y-11194677D02*
X19484000Y-11224677D01*
X19484400Y-11321677D02*
X19514400Y-11351677D01*
X19514400Y-11321677D02*
X19484400Y-11351677D01*
X19484400Y-11575677D02*
X19514400Y-11605677D01*
X19514400Y-11575677D02*
X19484400Y-11605677D01*
X19534000Y-8527677D02*
X19564000Y-8557677D01*
X19564000Y-8527677D02*
X19534000Y-8557677D01*
X19534000Y-9433700D02*
X19564000Y-9463700D01*
X19564000Y-9433700D02*
X19534000Y-9463700D01*
X19534000Y-10648577D02*
X19564000Y-10678577D01*
X19564000Y-10648577D02*
X19534000Y-10678577D01*
X19534100Y-7511677D02*
X19564100Y-7541677D01*
X19564100Y-7511677D02*
X19534100Y-7541677D01*
X19534100Y-7765677D02*
X19564100Y-7795677D01*
X19564100Y-7765677D02*
X19534100Y-7795677D01*
X19534100Y-8146677D02*
X19564100Y-8176677D01*
X19564100Y-8146677D02*
X19534100Y-8176677D01*
X19534100Y-8400677D02*
X19564100Y-8430677D01*
X19564100Y-8400677D02*
X19534100Y-8430677D01*
X19611400Y-11194677D02*
X19641400Y-11224677D01*
X19641400Y-11194677D02*
X19611400Y-11224677D01*
X19611400Y-11448677D02*
X19641400Y-11478677D01*
X19641400Y-11448677D02*
X19611400Y-11478677D01*
X19611400Y-11575677D02*
X19641400Y-11605677D01*
X19641400Y-11575677D02*
X19611400Y-11605677D01*
X19611400Y-11702677D02*
X19641400Y-11732677D01*
X19641400Y-11702677D02*
X19611400Y-11732677D01*
X19611400Y-11829677D02*
X19641400Y-11859677D01*
X19641400Y-11829677D02*
X19611400Y-11859677D01*
X19611400Y-11956677D02*
X19641400Y-11986677D01*
X19641400Y-11956677D02*
X19611400Y-11986677D01*
X19611400Y-12210677D02*
X19641400Y-12240677D01*
X19641400Y-12210677D02*
X19611400Y-12240677D01*
X19661000Y-8527677D02*
X19691000Y-8557677D01*
X19691000Y-8527677D02*
X19661000Y-8557677D01*
X19661000Y-9433700D02*
X19691000Y-9463700D01*
X19691000Y-9433700D02*
X19661000Y-9463700D01*
X19661000Y-10648577D02*
X19691000Y-10678577D01*
X19691000Y-10648577D02*
X19661000Y-10678577D01*
X19661100Y-7384677D02*
X19691100Y-7414677D01*
X19691100Y-7384677D02*
X19661100Y-7414677D01*
X19661100Y-7638677D02*
X19691100Y-7668677D01*
X19691100Y-7638677D02*
X19661100Y-7668677D01*
X19661100Y-7765677D02*
X19691100Y-7795677D01*
X19691100Y-7765677D02*
X19661100Y-7795677D01*
X19661100Y-7892677D02*
X19691100Y-7922677D01*
X19691100Y-7892677D02*
X19661100Y-7922677D01*
X19661100Y-8019677D02*
X19691100Y-8049677D01*
X19691100Y-8019677D02*
X19661100Y-8049677D01*
X19738000Y-11194677D02*
X19768000Y-11224677D01*
X19768000Y-11194677D02*
X19738000Y-11224677D01*
X19738400Y-11321677D02*
X19768400Y-11351677D01*
X19768400Y-11321677D02*
X19738400Y-11351677D01*
X19738400Y-11829677D02*
X19768400Y-11859677D01*
X19768400Y-11829677D02*
X19738400Y-11859677D01*
X19788000Y-8527677D02*
X19818000Y-8557677D01*
X19818000Y-8527677D02*
X19788000Y-8557677D01*
X19788000Y-9433800D02*
X19818000Y-9463800D01*
X19818000Y-9433800D02*
X19788000Y-9463800D01*
X19788000Y-10648677D02*
X19818000Y-10678677D01*
X19818000Y-10648677D02*
X19788000Y-10678677D01*
X19788100Y-7511677D02*
X19818100Y-7541677D01*
X19818100Y-7511677D02*
X19788100Y-7541677D01*
X19788100Y-8019677D02*
X19818100Y-8049677D01*
X19818100Y-8019677D02*
X19788100Y-8049677D01*
X19788100Y-8146677D02*
X19818100Y-8176677D01*
X19818100Y-8146677D02*
X19788100Y-8176677D01*
X19788100Y-8400677D02*
X19818100Y-8430677D01*
X19818100Y-8400677D02*
X19788100Y-8430677D01*
X19865400Y-11194677D02*
X19895400Y-11224677D01*
X19895400Y-11194677D02*
X19865400Y-11224677D01*
X19865400Y-11321677D02*
X19895400Y-11351677D01*
X19895400Y-11321677D02*
X19865400Y-11351677D01*
X19865400Y-11448677D02*
X19895400Y-11478677D01*
X19895400Y-11448677D02*
X19865400Y-11478677D01*
X19865400Y-11702677D02*
X19895400Y-11732677D01*
X19895400Y-11702677D02*
X19865400Y-11732677D01*
X19865400Y-11956677D02*
X19895400Y-11986677D01*
X19895400Y-11956677D02*
X19865400Y-11986677D01*
X19865400Y-12210677D02*
X19895400Y-12240677D01*
X19895400Y-12210677D02*
X19865400Y-12240677D01*
X19915000Y-8527677D02*
X19945000Y-8557677D01*
X19945000Y-8527677D02*
X19915000Y-8557677D01*
X19915000Y-9433800D02*
X19945000Y-9463800D01*
X19945000Y-9433800D02*
X19915000Y-9463800D01*
X19915000Y-10648677D02*
X19945000Y-10678677D01*
X19945000Y-10648677D02*
X19915000Y-10678677D01*
X19915100Y-7511677D02*
X19945100Y-7541677D01*
X19945100Y-7511677D02*
X19915100Y-7541677D01*
X19915100Y-7765677D02*
X19945100Y-7795677D01*
X19945100Y-7765677D02*
X19915100Y-7795677D01*
X19989900Y-11194677D02*
X20019900Y-11224677D01*
X20019900Y-11194677D02*
X19989900Y-11224677D01*
X19992400Y-11575677D02*
X20022400Y-11605677D01*
X20022400Y-11575677D02*
X19992400Y-11605677D01*
X20042000Y-9433800D02*
X20072000Y-9463800D01*
X20072000Y-9433800D02*
X20042000Y-9463800D01*
X20042100Y-7384677D02*
X20072100Y-7414677D01*
X20072100Y-7384677D02*
X20042100Y-7414677D01*
X20042100Y-7638677D02*
X20072100Y-7668677D01*
X20072100Y-7638677D02*
X20042100Y-7668677D01*
X20042100Y-7765677D02*
X20072100Y-7795677D01*
X20072100Y-7765677D02*
X20042100Y-7795677D01*
X20042100Y-7892677D02*
X20072100Y-7922677D01*
X20072100Y-7892677D02*
X20042100Y-7922677D01*
X20042100Y-8019677D02*
X20072100Y-8049677D01*
X20072100Y-8019677D02*
X20042100Y-8049677D01*
X20042100Y-8146677D02*
X20072100Y-8176677D01*
X20072100Y-8146677D02*
X20042100Y-8176677D01*
X20042100Y-8400677D02*
X20072100Y-8430677D01*
X20072100Y-8400677D02*
X20042100Y-8430677D01*
X20078800Y-10813677D02*
X20108800Y-10843677D01*
X20108800Y-10813677D02*
X20078800Y-10843677D01*
X20119400Y-11194677D02*
X20149400Y-11224677D01*
X20149400Y-11194677D02*
X20119400Y-11224677D01*
X20119400Y-11448677D02*
X20149400Y-11478677D01*
X20149400Y-11448677D02*
X20119400Y-11478677D01*
X20119400Y-11575677D02*
X20149400Y-11605677D01*
X20149400Y-11575677D02*
X20119400Y-11605677D01*
X20119400Y-11702677D02*
X20149400Y-11732677D01*
X20149400Y-11702677D02*
X20119400Y-11732677D01*
X20119400Y-11956677D02*
X20149400Y-11986677D01*
X20149400Y-11956677D02*
X20119400Y-11986677D01*
X20119400Y-12210677D02*
X20149400Y-12240677D01*
X20149400Y-12210677D02*
X20119400Y-12240677D01*
X20169000Y-9433700D02*
X20199000Y-9463700D01*
X20199000Y-9433700D02*
X20169000Y-9463700D01*
X20169000Y-10648577D02*
X20199000Y-10678577D01*
X20199000Y-10648577D02*
X20169000Y-10678577D01*
X20169100Y-7511677D02*
X20199100Y-7541677D01*
X20199100Y-7511677D02*
X20169100Y-7541677D01*
X20169100Y-8019677D02*
X20199100Y-8049677D01*
X20199100Y-8019677D02*
X20169100Y-8049677D01*
X20180400Y-10813677D02*
X20210400Y-10843677D01*
X20210400Y-10813677D02*
X20180400Y-10843677D01*
X20231200Y-10712077D02*
X20261200Y-10742077D01*
X20261200Y-10712077D02*
X20231200Y-10742077D01*
X20296100Y-7384677D02*
X20326100Y-7414677D01*
X20326100Y-7384677D02*
X20296100Y-7414677D01*
X20296100Y-7511677D02*
X20326100Y-7541677D01*
X20326100Y-7511677D02*
X20296100Y-7541677D01*
X20296100Y-7638677D02*
X20326100Y-7668677D01*
X20326100Y-7638677D02*
X20296100Y-7668677D01*
X20296100Y-7892677D02*
X20326100Y-7922677D01*
X20326100Y-7892677D02*
X20296100Y-7922677D01*
X20296100Y-8146677D02*
X20326100Y-8176677D01*
X20326100Y-8146677D02*
X20296100Y-8176677D01*
X20296100Y-8400677D02*
X20326100Y-8430677D01*
X20326100Y-8400677D02*
X20296100Y-8430677D01*
X20332800Y-10712077D02*
X20362800Y-10742077D01*
X20362800Y-10712077D02*
X20332800Y-10742077D01*
X20409000Y-9433800D02*
X20439000Y-9463800D01*
X20439000Y-9433800D02*
X20409000Y-9463800D01*
X20409000Y-10648000D02*
X20439000Y-10678000D01*
X20439000Y-10648000D02*
X20409000Y-10678000D01*
X20536000Y-9433700D02*
X20566000Y-9463700D01*
X20566000Y-9433700D02*
X20536000Y-9463700D01*
X20536000Y-10647900D02*
X20566000Y-10677900D01*
X20566000Y-10647900D02*
X20536000Y-10677900D01*
X20550100Y-7384677D02*
X20580100Y-7414677D01*
X20580100Y-7384677D02*
X20550100Y-7414677D01*
X20550100Y-7638677D02*
X20580100Y-7668677D01*
X20580100Y-7638677D02*
X20550100Y-7668677D01*
X20550100Y-7892677D02*
X20580100Y-7922677D01*
X20580100Y-7892677D02*
X20550100Y-7922677D01*
X20550100Y-8146677D02*
X20580100Y-8176677D01*
X20580100Y-8146677D02*
X20550100Y-8176677D01*
X20550100Y-8400677D02*
X20580100Y-8430677D01*
X20580100Y-8400677D02*
X20550100Y-8430677D01*
X12879400Y-9557727D02*
G75*
G03*
X12779400Y-9557727I-50000J0D01*
G01*
X12779400Y-9557727D02*
G75*
G03*
X12879400Y-9557727I50000J0D01*
G01*
X12879400Y-9811727D02*
G75*
G03*
X12779400Y-9811727I-50000J0D01*
G01*
X12779400Y-9811727D02*
G75*
G03*
X12879400Y-9811727I50000J0D01*
G01*
X13133400Y-9557727D02*
G75*
G03*
X13033400Y-9557727I-50000J0D01*
G01*
X13033400Y-9557727D02*
G75*
G03*
X13133400Y-9557727I50000J0D01*
G01*
X13133400Y-9811727D02*
G75*
G03*
X13033400Y-9811727I-50000J0D01*
G01*
X13033400Y-9811727D02*
G75*
G03*
X13133400Y-9811727I50000J0D01*
G01*
X13387400Y-9557727D02*
G75*
G03*
X13287400Y-9557727I-50000J0D01*
G01*
X13287400Y-9557727D02*
G75*
G03*
X13387400Y-9557727I50000J0D01*
G01*
X13387400Y-9811727D02*
G75*
G03*
X13287400Y-9811727I-50000J0D01*
G01*
X13287400Y-9811727D02*
G75*
G03*
X13387400Y-9811727I50000J0D01*
G01*
X13641400Y-9557727D02*
G75*
G03*
X13541400Y-9557727I-50000J0D01*
G01*
X13541400Y-9557727D02*
G75*
G03*
X13641400Y-9557727I50000J0D01*
G01*
X13641400Y-9811727D02*
G75*
G03*
X13541400Y-9811727I-50000J0D01*
G01*
X13541400Y-9811727D02*
G75*
G03*
X13641400Y-9811727I50000J0D01*
G01*
X13641400Y-10625477D02*
G75*
G03*
X13541400Y-10625477I-50000J0D01*
G01*
X13541400Y-10625477D02*
G75*
G03*
X13641400Y-10625477I50000J0D01*
G01*
X13641400Y-10879477D02*
G75*
G03*
X13541400Y-10879477I-50000J0D01*
G01*
X13541400Y-10879477D02*
G75*
G03*
X13641400Y-10879477I50000J0D01*
G01*
X13895400Y-9557727D02*
G75*
G03*
X13795400Y-9557727I-50000J0D01*
G01*
X13795400Y-9557727D02*
G75*
G03*
X13895400Y-9557727I50000J0D01*
G01*
X13895400Y-9811727D02*
G75*
G03*
X13795400Y-9811727I-50000J0D01*
G01*
X13795400Y-9811727D02*
G75*
G03*
X13895400Y-9811727I50000J0D01*
G01*
X13895400Y-10625477D02*
G75*
G03*
X13795400Y-10625477I-50000J0D01*
G01*
X13795400Y-10625477D02*
G75*
G03*
X13895400Y-10625477I50000J0D01*
G01*
X13895400Y-10879477D02*
G75*
G03*
X13795400Y-10879477I-50000J0D01*
G01*
X13795400Y-10879477D02*
G75*
G03*
X13895400Y-10879477I50000J0D01*
G01*
X14149400Y-9557727D02*
G75*
G03*
X14049400Y-9557727I-50000J0D01*
G01*
X14049400Y-9557727D02*
G75*
G03*
X14149400Y-9557727I50000J0D01*
G01*
X14149400Y-9811727D02*
G75*
G03*
X14049400Y-9811727I-50000J0D01*
G01*
X14049400Y-9811727D02*
G75*
G03*
X14149400Y-9811727I50000J0D01*
G01*
X14149400Y-10625477D02*
G75*
G03*
X14049400Y-10625477I-50000J0D01*
G01*
X14049400Y-10625477D02*
G75*
G03*
X14149400Y-10625477I50000J0D01*
G01*
X14149400Y-10879477D02*
G75*
G03*
X14049400Y-10879477I-50000J0D01*
G01*
X14049400Y-10879477D02*
G75*
G03*
X14149400Y-10879477I50000J0D01*
G01*
X14403400Y-9557727D02*
G75*
G03*
X14303400Y-9557727I-50000J0D01*
G01*
X14303400Y-9557727D02*
G75*
G03*
X14403400Y-9557727I50000J0D01*
G01*
X14403400Y-9811727D02*
G75*
G03*
X14303400Y-9811727I-50000J0D01*
G01*
X14303400Y-9811727D02*
G75*
G03*
X14403400Y-9811727I50000J0D01*
G01*
X14403400Y-10625477D02*
G75*
G03*
X14303400Y-10625477I-50000J0D01*
G01*
X14303400Y-10625477D02*
G75*
G03*
X14403400Y-10625477I50000J0D01*
G01*
X14403400Y-10879477D02*
G75*
G03*
X14303400Y-10879477I-50000J0D01*
G01*
X14303400Y-10879477D02*
G75*
G03*
X14403400Y-10879477I50000J0D01*
G01*
X14657400Y-9557727D02*
G75*
G03*
X14557400Y-9557727I-50000J0D01*
G01*
X14557400Y-9557727D02*
G75*
G03*
X14657400Y-9557727I50000J0D01*
G01*
X14657400Y-9811727D02*
G75*
G03*
X14557400Y-9811727I-50000J0D01*
G01*
X14557400Y-9811727D02*
G75*
G03*
X14657400Y-9811727I50000J0D01*
G01*
X14657400Y-10625477D02*
G75*
G03*
X14557400Y-10625477I-50000J0D01*
G01*
X14557400Y-10625477D02*
G75*
G03*
X14657400Y-10625477I50000J0D01*
G01*
X14657400Y-10879477D02*
G75*
G03*
X14557400Y-10879477I-50000J0D01*
G01*
X14557400Y-10879477D02*
G75*
G03*
X14657400Y-10879477I50000J0D01*
G01*
X14911400Y-9557727D02*
G75*
G03*
X14811400Y-9557727I-50000J0D01*
G01*
X14811400Y-9557727D02*
G75*
G03*
X14911400Y-9557727I50000J0D01*
G01*
X14911400Y-9811727D02*
G75*
G03*
X14811400Y-9811727I-50000J0D01*
G01*
X14811400Y-9811727D02*
G75*
G03*
X14911400Y-9811727I50000J0D01*
G01*
X14911400Y-10625477D02*
G75*
G03*
X14811400Y-10625477I-50000J0D01*
G01*
X14811400Y-10625477D02*
G75*
G03*
X14911400Y-10625477I50000J0D01*
G01*
X14911400Y-10879477D02*
G75*
G03*
X14811400Y-10879477I-50000J0D01*
G01*
X14811400Y-10879477D02*
G75*
G03*
X14911400Y-10879477I50000J0D01*
G01*
X15165400Y-9557727D02*
G75*
G03*
X15065400Y-9557727I-50000J0D01*
G01*
X15065400Y-9557727D02*
G75*
G03*
X15165400Y-9557727I50000J0D01*
G01*
X15165400Y-9811727D02*
G75*
G03*
X15065400Y-9811727I-50000J0D01*
G01*
X15065400Y-9811727D02*
G75*
G03*
X15165400Y-9811727I50000J0D01*
G01*
X15419400Y-9557727D02*
G75*
G03*
X15319400Y-9557727I-50000J0D01*
G01*
X15319400Y-9557727D02*
G75*
G03*
X15419400Y-9557727I50000J0D01*
G01*
X15419400Y-9811727D02*
G75*
G03*
X15319400Y-9811727I-50000J0D01*
G01*
X15319400Y-9811727D02*
G75*
G03*
X15419400Y-9811727I50000J0D01*
G01*
X15673400Y-9557727D02*
G75*
G03*
X15573400Y-9557727I-50000J0D01*
G01*
X15573400Y-9557727D02*
G75*
G03*
X15673400Y-9557727I50000J0D01*
G01*
X15673400Y-9811727D02*
G75*
G03*
X15573400Y-9811727I-50000J0D01*
G01*
X15573400Y-9811727D02*
G75*
G03*
X15673400Y-9811727I50000J0D01*
G01*
D12*
X7140800Y-7572017D02*
X7140800Y-7842017D01*
X7005800Y-7707017D02*
X7275800Y-7707017D01*
X7571500Y-11382017D02*
X7571500Y-11652017D01*
X7436500Y-11517017D02*
X7706500Y-11517017D01*
X13440000Y-7572017D02*
X13440000Y-7842017D01*
X13305000Y-7707017D02*
X13575000Y-7707017D01*
X13870700Y-11382017D02*
X13870700Y-11652017D01*
X13735700Y-11517017D02*
X14005700Y-11517017D01*
X14571740Y-11382017D02*
X14571740Y-11652017D01*
X14436740Y-11517017D02*
X14706740Y-11517017D01*
X15002400Y-7572017D02*
X15002400Y-7842017D01*
X14867400Y-7707017D02*
X15137400Y-7707017D01*
X20870940Y-11382017D02*
X20870940Y-11652017D01*
X20735940Y-11517017D02*
X21005940Y-11517017D01*
X21301600Y-7572017D02*
X21301600Y-7842017D01*
X21166600Y-7707017D02*
X21436600Y-7707017D01*
D11*
X6931177Y-12910461D02*
X6931177Y-12710461D01*
X6931177Y-12710461D02*
X6978796Y-12710461D01*
X6978796Y-12710461D02*
X7007367Y-12719985D01*
X7007367Y-12719985D02*
X7026415Y-12739032D01*
X7026415Y-12739032D02*
X7035939Y-12758080D01*
X7035939Y-12758080D02*
X7045463Y-12796175D01*
X7045463Y-12796175D02*
X7045463Y-12824747D01*
X7045463Y-12824747D02*
X7035939Y-12862842D01*
X7035939Y-12862842D02*
X7026415Y-12881890D01*
X7026415Y-12881890D02*
X7007367Y-12900937D01*
X7007367Y-12900937D02*
X6978796Y-12910461D01*
X6978796Y-12910461D02*
X6931177Y-12910461D01*
X7131177Y-12910461D02*
X7131177Y-12777128D01*
X7131177Y-12815223D02*
X7140701Y-12796175D01*
X7140701Y-12796175D02*
X7150224Y-12786651D01*
X7150224Y-12786651D02*
X7169272Y-12777128D01*
X7169272Y-12777128D02*
X7188320Y-12777128D01*
X7254986Y-12910461D02*
X7254986Y-12777128D01*
X7254986Y-12710461D02*
X7245463Y-12719985D01*
X7245463Y-12719985D02*
X7254986Y-12729509D01*
X7254986Y-12729509D02*
X7264510Y-12719985D01*
X7264510Y-12719985D02*
X7254986Y-12710461D01*
X7254986Y-12710461D02*
X7254986Y-12729509D01*
X7378796Y-12910461D02*
X7359748Y-12900937D01*
X7359748Y-12900937D02*
X7350224Y-12881890D01*
X7350224Y-12881890D02*
X7350224Y-12710461D01*
X7483558Y-12910461D02*
X7464510Y-12900937D01*
X7464510Y-12900937D02*
X7454986Y-12881890D01*
X7454986Y-12881890D02*
X7454986Y-12710461D01*
X7712129Y-12910461D02*
X7712129Y-12710461D01*
X7712129Y-12710461D02*
X7778796Y-12853318D01*
X7778796Y-12853318D02*
X7845463Y-12710461D01*
X7845463Y-12710461D02*
X7845463Y-12910461D01*
X8026415Y-12910461D02*
X8026415Y-12805699D01*
X8026415Y-12805699D02*
X8016891Y-12786651D01*
X8016891Y-12786651D02*
X7997844Y-12777128D01*
X7997844Y-12777128D02*
X7959748Y-12777128D01*
X7959748Y-12777128D02*
X7940701Y-12786651D01*
X8026415Y-12900937D02*
X8007367Y-12910461D01*
X8007367Y-12910461D02*
X7959748Y-12910461D01*
X7959748Y-12910461D02*
X7940701Y-12900937D01*
X7940701Y-12900937D02*
X7931177Y-12881890D01*
X7931177Y-12881890D02*
X7931177Y-12862842D01*
X7931177Y-12862842D02*
X7940701Y-12843794D01*
X7940701Y-12843794D02*
X7959748Y-12834271D01*
X7959748Y-12834271D02*
X8007367Y-12834271D01*
X8007367Y-12834271D02*
X8026415Y-12824747D01*
X8121653Y-12777128D02*
X8121653Y-12977128D01*
X8121653Y-12786651D02*
X8140701Y-12777128D01*
X8140701Y-12777128D02*
X8178796Y-12777128D01*
X8178796Y-12777128D02*
X8197844Y-12786651D01*
X8197844Y-12786651D02*
X8207367Y-12796175D01*
X8207367Y-12796175D02*
X8216891Y-12815223D01*
X8216891Y-12815223D02*
X8216891Y-12872366D01*
X8216891Y-12872366D02*
X8207367Y-12891413D01*
X8207367Y-12891413D02*
X8197844Y-12900937D01*
X8197844Y-12900937D02*
X8178796Y-12910461D01*
X8178796Y-12910461D02*
X8140701Y-12910461D01*
X8140701Y-12910461D02*
X8121653Y-12900937D01*
X8302605Y-12891413D02*
X8312129Y-12900937D01*
X8312129Y-12900937D02*
X8302605Y-12910461D01*
X8302605Y-12910461D02*
X8293082Y-12900937D01*
X8293082Y-12900937D02*
X8302605Y-12891413D01*
X8302605Y-12891413D02*
X8302605Y-12910461D01*
X8302605Y-12786651D02*
X8312129Y-12796175D01*
X8312129Y-12796175D02*
X8302605Y-12805699D01*
X8302605Y-12805699D02*
X8293082Y-12796175D01*
X8293082Y-12796175D02*
X8302605Y-12786651D01*
X8302605Y-12786651D02*
X8302605Y-12805699D01*
D10*
X6640400Y-13223977D02*
X6670400Y-13253977D01*
X6670400Y-13223977D02*
X6640400Y-13253977D01*
D11*
X6969272Y-13130461D02*
X6988320Y-13130461D01*
X6988320Y-13130461D02*
X7007367Y-13139985D01*
X7007367Y-13139985D02*
X7016891Y-13149509D01*
X7016891Y-13149509D02*
X7026415Y-13168556D01*
X7026415Y-13168556D02*
X7035939Y-13206651D01*
X7035939Y-13206651D02*
X7035939Y-13254271D01*
X7035939Y-13254271D02*
X7026415Y-13292366D01*
X7026415Y-13292366D02*
X7016891Y-13311413D01*
X7016891Y-13311413D02*
X7007367Y-13320937D01*
X7007367Y-13320937D02*
X6988320Y-13330461D01*
X6988320Y-13330461D02*
X6969272Y-13330461D01*
X6969272Y-13330461D02*
X6950224Y-13320937D01*
X6950224Y-13320937D02*
X6940701Y-13311413D01*
X6940701Y-13311413D02*
X6931177Y-13292366D01*
X6931177Y-13292366D02*
X6921653Y-13254271D01*
X6921653Y-13254271D02*
X6921653Y-13206651D01*
X6921653Y-13206651D02*
X6931177Y-13168556D01*
X6931177Y-13168556D02*
X6940701Y-13149509D01*
X6940701Y-13149509D02*
X6950224Y-13139985D01*
X6950224Y-13139985D02*
X6969272Y-13130461D01*
X7121653Y-13311413D02*
X7131177Y-13320937D01*
X7131177Y-13320937D02*
X7121653Y-13330461D01*
X7121653Y-13330461D02*
X7112129Y-13320937D01*
X7112129Y-13320937D02*
X7121653Y-13311413D01*
X7121653Y-13311413D02*
X7121653Y-13330461D01*
X7197844Y-13130461D02*
X7321653Y-13130461D01*
X7321653Y-13130461D02*
X7254986Y-13206651D01*
X7254986Y-13206651D02*
X7283558Y-13206651D01*
X7283558Y-13206651D02*
X7302605Y-13216175D01*
X7302605Y-13216175D02*
X7312129Y-13225699D01*
X7312129Y-13225699D02*
X7321653Y-13244747D01*
X7321653Y-13244747D02*
X7321653Y-13292366D01*
X7321653Y-13292366D02*
X7312129Y-13311413D01*
X7312129Y-13311413D02*
X7302605Y-13320937D01*
X7302605Y-13320937D02*
X7283558Y-13330461D01*
X7283558Y-13330461D02*
X7226415Y-13330461D01*
X7226415Y-13330461D02*
X7207367Y-13320937D01*
X7207367Y-13320937D02*
X7197844Y-13311413D01*
X7445463Y-13130461D02*
X7464510Y-13130461D01*
X7464510Y-13130461D02*
X7483558Y-13139985D01*
X7483558Y-13139985D02*
X7493082Y-13149509D01*
X7493082Y-13149509D02*
X7502605Y-13168556D01*
X7502605Y-13168556D02*
X7512129Y-13206651D01*
X7512129Y-13206651D02*
X7512129Y-13254271D01*
X7512129Y-13254271D02*
X7502605Y-13292366D01*
X7502605Y-13292366D02*
X7493082Y-13311413D01*
X7493082Y-13311413D02*
X7483558Y-13320937D01*
X7483558Y-13320937D02*
X7464510Y-13330461D01*
X7464510Y-13330461D02*
X7445463Y-13330461D01*
X7445463Y-13330461D02*
X7426415Y-13320937D01*
X7426415Y-13320937D02*
X7416891Y-13311413D01*
X7416891Y-13311413D02*
X7407367Y-13292366D01*
X7407367Y-13292366D02*
X7397844Y-13254271D01*
X7397844Y-13254271D02*
X7397844Y-13206651D01*
X7397844Y-13206651D02*
X7407367Y-13168556D01*
X7407367Y-13168556D02*
X7416891Y-13149509D01*
X7416891Y-13149509D02*
X7426415Y-13139985D01*
X7426415Y-13139985D02*
X7445463Y-13130461D01*
X7635939Y-13130461D02*
X7654986Y-13130461D01*
X7654986Y-13130461D02*
X7674034Y-13139985D01*
X7674034Y-13139985D02*
X7683558Y-13149509D01*
X7683558Y-13149509D02*
X7693082Y-13168556D01*
X7693082Y-13168556D02*
X7702605Y-13206651D01*
X7702605Y-13206651D02*
X7702605Y-13254271D01*
X7702605Y-13254271D02*
X7693082Y-13292366D01*
X7693082Y-13292366D02*
X7683558Y-13311413D01*
X7683558Y-13311413D02*
X7674034Y-13320937D01*
X7674034Y-13320937D02*
X7654986Y-13330461D01*
X7654986Y-13330461D02*
X7635939Y-13330461D01*
X7635939Y-13330461D02*
X7616891Y-13320937D01*
X7616891Y-13320937D02*
X7607367Y-13311413D01*
X7607367Y-13311413D02*
X7597844Y-13292366D01*
X7597844Y-13292366D02*
X7588320Y-13254271D01*
X7588320Y-13254271D02*
X7588320Y-13206651D01*
X7588320Y-13206651D02*
X7597844Y-13168556D01*
X7597844Y-13168556D02*
X7607367Y-13149509D01*
X7607367Y-13149509D02*
X7616891Y-13139985D01*
X7616891Y-13139985D02*
X7635939Y-13130461D01*
X7788320Y-13330461D02*
X7788320Y-13197128D01*
X7788320Y-13216175D02*
X7797844Y-13206651D01*
X7797844Y-13206651D02*
X7816891Y-13197128D01*
X7816891Y-13197128D02*
X7845463Y-13197128D01*
X7845463Y-13197128D02*
X7864510Y-13206651D01*
X7864510Y-13206651D02*
X7874034Y-13225699D01*
X7874034Y-13225699D02*
X7874034Y-13330461D01*
X7874034Y-13225699D02*
X7883558Y-13206651D01*
X7883558Y-13206651D02*
X7902605Y-13197128D01*
X7902605Y-13197128D02*
X7931177Y-13197128D01*
X7931177Y-13197128D02*
X7950225Y-13206651D01*
X7950225Y-13206651D02*
X7959748Y-13225699D01*
X7959748Y-13225699D02*
X7959748Y-13330461D01*
X8054986Y-13330461D02*
X8054986Y-13197128D01*
X8054986Y-13216175D02*
X8064510Y-13206651D01*
X8064510Y-13206651D02*
X8083558Y-13197128D01*
X8083558Y-13197128D02*
X8112129Y-13197128D01*
X8112129Y-13197128D02*
X8131177Y-13206651D01*
X8131177Y-13206651D02*
X8140701Y-13225699D01*
X8140701Y-13225699D02*
X8140701Y-13330461D01*
X8140701Y-13225699D02*
X8150225Y-13206651D01*
X8150225Y-13206651D02*
X8169272Y-13197128D01*
X8169272Y-13197128D02*
X8197844Y-13197128D01*
X8197844Y-13197128D02*
X8216891Y-13206651D01*
X8216891Y-13206651D02*
X8226415Y-13225699D01*
X8226415Y-13225699D02*
X8226415Y-13330461D01*
X8616891Y-13120937D02*
X8445463Y-13378080D01*
X8874034Y-13130461D02*
X8893082Y-13130461D01*
X8893082Y-13130461D02*
X8912130Y-13139985D01*
X8912130Y-13139985D02*
X8921653Y-13149509D01*
X8921653Y-13149509D02*
X8931177Y-13168556D01*
X8931177Y-13168556D02*
X8940701Y-13206651D01*
X8940701Y-13206651D02*
X8940701Y-13254271D01*
X8940701Y-13254271D02*
X8931177Y-13292366D01*
X8931177Y-13292366D02*
X8921653Y-13311413D01*
X8921653Y-13311413D02*
X8912130Y-13320937D01*
X8912130Y-13320937D02*
X8893082Y-13330461D01*
X8893082Y-13330461D02*
X8874034Y-13330461D01*
X8874034Y-13330461D02*
X8854987Y-13320937D01*
X8854987Y-13320937D02*
X8845463Y-13311413D01*
X8845463Y-13311413D02*
X8835939Y-13292366D01*
X8835939Y-13292366D02*
X8826415Y-13254271D01*
X8826415Y-13254271D02*
X8826415Y-13206651D01*
X8826415Y-13206651D02*
X8835939Y-13168556D01*
X8835939Y-13168556D02*
X8845463Y-13149509D01*
X8845463Y-13149509D02*
X8854987Y-13139985D01*
X8854987Y-13139985D02*
X8874034Y-13130461D01*
X9026415Y-13311413D02*
X9035939Y-13320937D01*
X9035939Y-13320937D02*
X9026415Y-13330461D01*
X9026415Y-13330461D02*
X9016891Y-13320937D01*
X9016891Y-13320937D02*
X9026415Y-13311413D01*
X9026415Y-13311413D02*
X9026415Y-13330461D01*
X9159749Y-13130461D02*
X9178796Y-13130461D01*
X9178796Y-13130461D02*
X9197844Y-13139985D01*
X9197844Y-13139985D02*
X9207368Y-13149509D01*
X9207368Y-13149509D02*
X9216891Y-13168556D01*
X9216891Y-13168556D02*
X9226415Y-13206651D01*
X9226415Y-13206651D02*
X9226415Y-13254271D01*
X9226415Y-13254271D02*
X9216891Y-13292366D01*
X9216891Y-13292366D02*
X9207368Y-13311413D01*
X9207368Y-13311413D02*
X9197844Y-13320937D01*
X9197844Y-13320937D02*
X9178796Y-13330461D01*
X9178796Y-13330461D02*
X9159749Y-13330461D01*
X9159749Y-13330461D02*
X9140701Y-13320937D01*
X9140701Y-13320937D02*
X9131177Y-13311413D01*
X9131177Y-13311413D02*
X9121653Y-13292366D01*
X9121653Y-13292366D02*
X9112130Y-13254271D01*
X9112130Y-13254271D02*
X9112130Y-13206651D01*
X9112130Y-13206651D02*
X9121653Y-13168556D01*
X9121653Y-13168556D02*
X9131177Y-13149509D01*
X9131177Y-13149509D02*
X9140701Y-13139985D01*
X9140701Y-13139985D02*
X9159749Y-13130461D01*
X9416891Y-13330461D02*
X9302606Y-13330461D01*
X9359749Y-13330461D02*
X9359749Y-13130461D01*
X9359749Y-13130461D02*
X9340701Y-13159032D01*
X9340701Y-13159032D02*
X9321653Y-13178080D01*
X9321653Y-13178080D02*
X9302606Y-13187604D01*
X9607368Y-13330461D02*
X9493082Y-13330461D01*
X9550225Y-13330461D02*
X9550225Y-13130461D01*
X9550225Y-13130461D02*
X9531177Y-13159032D01*
X9531177Y-13159032D02*
X9512130Y-13178080D01*
X9512130Y-13178080D02*
X9493082Y-13187604D01*
X9721653Y-13216175D02*
X9702606Y-13206651D01*
X9702606Y-13206651D02*
X9693082Y-13197128D01*
X9693082Y-13197128D02*
X9683558Y-13178080D01*
X9683558Y-13178080D02*
X9683558Y-13168556D01*
X9683558Y-13168556D02*
X9693082Y-13149509D01*
X9693082Y-13149509D02*
X9702606Y-13139985D01*
X9702606Y-13139985D02*
X9721653Y-13130461D01*
X9721653Y-13130461D02*
X9759749Y-13130461D01*
X9759749Y-13130461D02*
X9778796Y-13139985D01*
X9778796Y-13139985D02*
X9788320Y-13149509D01*
X9788320Y-13149509D02*
X9797844Y-13168556D01*
X9797844Y-13168556D02*
X9797844Y-13178080D01*
X9797844Y-13178080D02*
X9788320Y-13197128D01*
X9788320Y-13197128D02*
X9778796Y-13206651D01*
X9778796Y-13206651D02*
X9759749Y-13216175D01*
X9759749Y-13216175D02*
X9721653Y-13216175D01*
X9721653Y-13216175D02*
X9702606Y-13225699D01*
X9702606Y-13225699D02*
X9693082Y-13235223D01*
X9693082Y-13235223D02*
X9683558Y-13254271D01*
X9683558Y-13254271D02*
X9683558Y-13292366D01*
X9683558Y-13292366D02*
X9693082Y-13311413D01*
X9693082Y-13311413D02*
X9702606Y-13320937D01*
X9702606Y-13320937D02*
X9721653Y-13330461D01*
X9721653Y-13330461D02*
X9759749Y-13330461D01*
X9759749Y-13330461D02*
X9778796Y-13320937D01*
X9778796Y-13320937D02*
X9788320Y-13311413D01*
X9788320Y-13311413D02*
X9797844Y-13292366D01*
X9797844Y-13292366D02*
X9797844Y-13254271D01*
X9797844Y-13254271D02*
X9788320Y-13235223D01*
X9788320Y-13235223D02*
X9778796Y-13225699D01*
X9778796Y-13225699D02*
X9759749Y-13216175D01*
X9874034Y-13130461D02*
X9874034Y-13168556D01*
X9950225Y-13130461D02*
X9950225Y-13168556D01*
X10245463Y-13406651D02*
X10235939Y-13397128D01*
X10235939Y-13397128D02*
X10216892Y-13368556D01*
X10216892Y-13368556D02*
X10207368Y-13349509D01*
X10207368Y-13349509D02*
X10197844Y-13320937D01*
X10197844Y-13320937D02*
X10188320Y-13273318D01*
X10188320Y-13273318D02*
X10188320Y-13235223D01*
X10188320Y-13235223D02*
X10197844Y-13187604D01*
X10197844Y-13187604D02*
X10207368Y-13159032D01*
X10207368Y-13159032D02*
X10216892Y-13139985D01*
X10216892Y-13139985D02*
X10235939Y-13111413D01*
X10235939Y-13111413D02*
X10245463Y-13101890D01*
X10331177Y-13330461D02*
X10369272Y-13330461D01*
X10369272Y-13330461D02*
X10388320Y-13320937D01*
X10388320Y-13320937D02*
X10397844Y-13311413D01*
X10397844Y-13311413D02*
X10416892Y-13282842D01*
X10416892Y-13282842D02*
X10426415Y-13244747D01*
X10426415Y-13244747D02*
X10426415Y-13168556D01*
X10426415Y-13168556D02*
X10416892Y-13149509D01*
X10416892Y-13149509D02*
X10407368Y-13139985D01*
X10407368Y-13139985D02*
X10388320Y-13130461D01*
X10388320Y-13130461D02*
X10350225Y-13130461D01*
X10350225Y-13130461D02*
X10331177Y-13139985D01*
X10331177Y-13139985D02*
X10321653Y-13149509D01*
X10321653Y-13149509D02*
X10312130Y-13168556D01*
X10312130Y-13168556D02*
X10312130Y-13216175D01*
X10312130Y-13216175D02*
X10321653Y-13235223D01*
X10321653Y-13235223D02*
X10331177Y-13244747D01*
X10331177Y-13244747D02*
X10350225Y-13254271D01*
X10350225Y-13254271D02*
X10388320Y-13254271D01*
X10388320Y-13254271D02*
X10407368Y-13244747D01*
X10407368Y-13244747D02*
X10416892Y-13235223D01*
X10416892Y-13235223D02*
X10426415Y-13216175D01*
X10597844Y-13197128D02*
X10597844Y-13330461D01*
X10550225Y-13120937D02*
X10502606Y-13263794D01*
X10502606Y-13263794D02*
X10626415Y-13263794D01*
X10797844Y-13130461D02*
X10702606Y-13130461D01*
X10702606Y-13130461D02*
X10693082Y-13225699D01*
X10693082Y-13225699D02*
X10702606Y-13216175D01*
X10702606Y-13216175D02*
X10721653Y-13206651D01*
X10721653Y-13206651D02*
X10769273Y-13206651D01*
X10769273Y-13206651D02*
X10788320Y-13216175D01*
X10788320Y-13216175D02*
X10797844Y-13225699D01*
X10797844Y-13225699D02*
X10807368Y-13244747D01*
X10807368Y-13244747D02*
X10807368Y-13292366D01*
X10807368Y-13292366D02*
X10797844Y-13311413D01*
X10797844Y-13311413D02*
X10788320Y-13320937D01*
X10788320Y-13320937D02*
X10769273Y-13330461D01*
X10769273Y-13330461D02*
X10721653Y-13330461D01*
X10721653Y-13330461D02*
X10702606Y-13320937D01*
X10702606Y-13320937D02*
X10693082Y-13311413D01*
X11045463Y-13330461D02*
X11045463Y-13130461D01*
X11131177Y-13330461D02*
X11131177Y-13225699D01*
X11131177Y-13225699D02*
X11121654Y-13206651D01*
X11121654Y-13206651D02*
X11102606Y-13197128D01*
X11102606Y-13197128D02*
X11074034Y-13197128D01*
X11074034Y-13197128D02*
X11054987Y-13206651D01*
X11054987Y-13206651D02*
X11045463Y-13216175D01*
X11254987Y-13330461D02*
X11235939Y-13320937D01*
X11235939Y-13320937D02*
X11226415Y-13311413D01*
X11226415Y-13311413D02*
X11216892Y-13292366D01*
X11216892Y-13292366D02*
X11216892Y-13235223D01*
X11216892Y-13235223D02*
X11226415Y-13216175D01*
X11226415Y-13216175D02*
X11235939Y-13206651D01*
X11235939Y-13206651D02*
X11254987Y-13197128D01*
X11254987Y-13197128D02*
X11283558Y-13197128D01*
X11283558Y-13197128D02*
X11302606Y-13206651D01*
X11302606Y-13206651D02*
X11312130Y-13216175D01*
X11312130Y-13216175D02*
X11321653Y-13235223D01*
X11321653Y-13235223D02*
X11321653Y-13292366D01*
X11321653Y-13292366D02*
X11312130Y-13311413D01*
X11312130Y-13311413D02*
X11302606Y-13320937D01*
X11302606Y-13320937D02*
X11283558Y-13330461D01*
X11283558Y-13330461D02*
X11254987Y-13330461D01*
X11435939Y-13330461D02*
X11416892Y-13320937D01*
X11416892Y-13320937D02*
X11407368Y-13301890D01*
X11407368Y-13301890D02*
X11407368Y-13130461D01*
X11588320Y-13320937D02*
X11569273Y-13330461D01*
X11569273Y-13330461D02*
X11531177Y-13330461D01*
X11531177Y-13330461D02*
X11512130Y-13320937D01*
X11512130Y-13320937D02*
X11502606Y-13301890D01*
X11502606Y-13301890D02*
X11502606Y-13225699D01*
X11502606Y-13225699D02*
X11512130Y-13206651D01*
X11512130Y-13206651D02*
X11531177Y-13197128D01*
X11531177Y-13197128D02*
X11569273Y-13197128D01*
X11569273Y-13197128D02*
X11588320Y-13206651D01*
X11588320Y-13206651D02*
X11597844Y-13225699D01*
X11597844Y-13225699D02*
X11597844Y-13244747D01*
X11597844Y-13244747D02*
X11502606Y-13263794D01*
X11674034Y-13320937D02*
X11693082Y-13330461D01*
X11693082Y-13330461D02*
X11731177Y-13330461D01*
X11731177Y-13330461D02*
X11750225Y-13320937D01*
X11750225Y-13320937D02*
X11759749Y-13301890D01*
X11759749Y-13301890D02*
X11759749Y-13292366D01*
X11759749Y-13292366D02*
X11750225Y-13273318D01*
X11750225Y-13273318D02*
X11731177Y-13263794D01*
X11731177Y-13263794D02*
X11702606Y-13263794D01*
X11702606Y-13263794D02*
X11683558Y-13254271D01*
X11683558Y-13254271D02*
X11674034Y-13235223D01*
X11674034Y-13235223D02*
X11674034Y-13225699D01*
X11674034Y-13225699D02*
X11683558Y-13206651D01*
X11683558Y-13206651D02*
X11702606Y-13197128D01*
X11702606Y-13197128D02*
X11731177Y-13197128D01*
X11731177Y-13197128D02*
X11750225Y-13206651D01*
X11826415Y-13406651D02*
X11835939Y-13397128D01*
X11835939Y-13397128D02*
X11854987Y-13368556D01*
X11854987Y-13368556D02*
X11864511Y-13349509D01*
X11864511Y-13349509D02*
X11874034Y-13320937D01*
X11874034Y-13320937D02*
X11883558Y-13273318D01*
X11883558Y-13273318D02*
X11883558Y-13235223D01*
X11883558Y-13235223D02*
X11874034Y-13187604D01*
X11874034Y-13187604D02*
X11864511Y-13159032D01*
X11864511Y-13159032D02*
X11854987Y-13139985D01*
X11854987Y-13139985D02*
X11835939Y-13111413D01*
X11835939Y-13111413D02*
X11826415Y-13101890D01*
D10*
X6670400Y-13502977D02*
G75*
G03*
X6570400Y-13502977I-50000J0D01*
G01*
X6570400Y-13502977D02*
G75*
G03*
X6670400Y-13502977I50000J0D01*
G01*
D11*
X7035939Y-13594461D02*
X6921653Y-13594461D01*
X6978796Y-13594461D02*
X6978796Y-13394461D01*
X6978796Y-13394461D02*
X6959748Y-13423032D01*
X6959748Y-13423032D02*
X6940701Y-13442080D01*
X6940701Y-13442080D02*
X6921653Y-13451604D01*
X7121653Y-13575413D02*
X7131177Y-13584937D01*
X7131177Y-13584937D02*
X7121653Y-13594461D01*
X7121653Y-13594461D02*
X7112129Y-13584937D01*
X7112129Y-13584937D02*
X7121653Y-13575413D01*
X7121653Y-13575413D02*
X7121653Y-13594461D01*
X7254986Y-13394461D02*
X7274034Y-13394461D01*
X7274034Y-13394461D02*
X7293082Y-13403985D01*
X7293082Y-13403985D02*
X7302605Y-13413509D01*
X7302605Y-13413509D02*
X7312129Y-13432556D01*
X7312129Y-13432556D02*
X7321653Y-13470651D01*
X7321653Y-13470651D02*
X7321653Y-13518271D01*
X7321653Y-13518271D02*
X7312129Y-13556366D01*
X7312129Y-13556366D02*
X7302605Y-13575413D01*
X7302605Y-13575413D02*
X7293082Y-13584937D01*
X7293082Y-13584937D02*
X7274034Y-13594461D01*
X7274034Y-13594461D02*
X7254986Y-13594461D01*
X7254986Y-13594461D02*
X7235939Y-13584937D01*
X7235939Y-13584937D02*
X7226415Y-13575413D01*
X7226415Y-13575413D02*
X7216891Y-13556366D01*
X7216891Y-13556366D02*
X7207367Y-13518271D01*
X7207367Y-13518271D02*
X7207367Y-13470651D01*
X7207367Y-13470651D02*
X7216891Y-13432556D01*
X7216891Y-13432556D02*
X7226415Y-13413509D01*
X7226415Y-13413509D02*
X7235939Y-13403985D01*
X7235939Y-13403985D02*
X7254986Y-13394461D01*
X7445463Y-13394461D02*
X7464510Y-13394461D01*
X7464510Y-13394461D02*
X7483558Y-13403985D01*
X7483558Y-13403985D02*
X7493082Y-13413509D01*
X7493082Y-13413509D02*
X7502605Y-13432556D01*
X7502605Y-13432556D02*
X7512129Y-13470651D01*
X7512129Y-13470651D02*
X7512129Y-13518271D01*
X7512129Y-13518271D02*
X7502605Y-13556366D01*
X7502605Y-13556366D02*
X7493082Y-13575413D01*
X7493082Y-13575413D02*
X7483558Y-13584937D01*
X7483558Y-13584937D02*
X7464510Y-13594461D01*
X7464510Y-13594461D02*
X7445463Y-13594461D01*
X7445463Y-13594461D02*
X7426415Y-13584937D01*
X7426415Y-13584937D02*
X7416891Y-13575413D01*
X7416891Y-13575413D02*
X7407367Y-13556366D01*
X7407367Y-13556366D02*
X7397844Y-13518271D01*
X7397844Y-13518271D02*
X7397844Y-13470651D01*
X7397844Y-13470651D02*
X7407367Y-13432556D01*
X7407367Y-13432556D02*
X7416891Y-13413509D01*
X7416891Y-13413509D02*
X7426415Y-13403985D01*
X7426415Y-13403985D02*
X7445463Y-13394461D01*
X7635939Y-13394461D02*
X7654986Y-13394461D01*
X7654986Y-13394461D02*
X7674034Y-13403985D01*
X7674034Y-13403985D02*
X7683558Y-13413509D01*
X7683558Y-13413509D02*
X7693082Y-13432556D01*
X7693082Y-13432556D02*
X7702605Y-13470651D01*
X7702605Y-13470651D02*
X7702605Y-13518271D01*
X7702605Y-13518271D02*
X7693082Y-13556366D01*
X7693082Y-13556366D02*
X7683558Y-13575413D01*
X7683558Y-13575413D02*
X7674034Y-13584937D01*
X7674034Y-13584937D02*
X7654986Y-13594461D01*
X7654986Y-13594461D02*
X7635939Y-13594461D01*
X7635939Y-13594461D02*
X7616891Y-13584937D01*
X7616891Y-13584937D02*
X7607367Y-13575413D01*
X7607367Y-13575413D02*
X7597844Y-13556366D01*
X7597844Y-13556366D02*
X7588320Y-13518271D01*
X7588320Y-13518271D02*
X7588320Y-13470651D01*
X7588320Y-13470651D02*
X7597844Y-13432556D01*
X7597844Y-13432556D02*
X7607367Y-13413509D01*
X7607367Y-13413509D02*
X7616891Y-13403985D01*
X7616891Y-13403985D02*
X7635939Y-13394461D01*
X7788320Y-13594461D02*
X7788320Y-13461128D01*
X7788320Y-13480175D02*
X7797844Y-13470651D01*
X7797844Y-13470651D02*
X7816891Y-13461128D01*
X7816891Y-13461128D02*
X7845463Y-13461128D01*
X7845463Y-13461128D02*
X7864510Y-13470651D01*
X7864510Y-13470651D02*
X7874034Y-13489699D01*
X7874034Y-13489699D02*
X7874034Y-13594461D01*
X7874034Y-13489699D02*
X7883558Y-13470651D01*
X7883558Y-13470651D02*
X7902605Y-13461128D01*
X7902605Y-13461128D02*
X7931177Y-13461128D01*
X7931177Y-13461128D02*
X7950225Y-13470651D01*
X7950225Y-13470651D02*
X7959748Y-13489699D01*
X7959748Y-13489699D02*
X7959748Y-13594461D01*
X8054986Y-13594461D02*
X8054986Y-13461128D01*
X8054986Y-13480175D02*
X8064510Y-13470651D01*
X8064510Y-13470651D02*
X8083558Y-13461128D01*
X8083558Y-13461128D02*
X8112129Y-13461128D01*
X8112129Y-13461128D02*
X8131177Y-13470651D01*
X8131177Y-13470651D02*
X8140701Y-13489699D01*
X8140701Y-13489699D02*
X8140701Y-13594461D01*
X8140701Y-13489699D02*
X8150225Y-13470651D01*
X8150225Y-13470651D02*
X8169272Y-13461128D01*
X8169272Y-13461128D02*
X8197844Y-13461128D01*
X8197844Y-13461128D02*
X8216891Y-13470651D01*
X8216891Y-13470651D02*
X8226415Y-13489699D01*
X8226415Y-13489699D02*
X8226415Y-13594461D01*
X8616891Y-13384937D02*
X8445463Y-13642080D01*
X8874034Y-13394461D02*
X8893082Y-13394461D01*
X8893082Y-13394461D02*
X8912130Y-13403985D01*
X8912130Y-13403985D02*
X8921653Y-13413509D01*
X8921653Y-13413509D02*
X8931177Y-13432556D01*
X8931177Y-13432556D02*
X8940701Y-13470651D01*
X8940701Y-13470651D02*
X8940701Y-13518271D01*
X8940701Y-13518271D02*
X8931177Y-13556366D01*
X8931177Y-13556366D02*
X8921653Y-13575413D01*
X8921653Y-13575413D02*
X8912130Y-13584937D01*
X8912130Y-13584937D02*
X8893082Y-13594461D01*
X8893082Y-13594461D02*
X8874034Y-13594461D01*
X8874034Y-13594461D02*
X8854987Y-13584937D01*
X8854987Y-13584937D02*
X8845463Y-13575413D01*
X8845463Y-13575413D02*
X8835939Y-13556366D01*
X8835939Y-13556366D02*
X8826415Y-13518271D01*
X8826415Y-13518271D02*
X8826415Y-13470651D01*
X8826415Y-13470651D02*
X8835939Y-13432556D01*
X8835939Y-13432556D02*
X8845463Y-13413509D01*
X8845463Y-13413509D02*
X8854987Y-13403985D01*
X8854987Y-13403985D02*
X8874034Y-13394461D01*
X9026415Y-13575413D02*
X9035939Y-13584937D01*
X9035939Y-13584937D02*
X9026415Y-13594461D01*
X9026415Y-13594461D02*
X9016891Y-13584937D01*
X9016891Y-13584937D02*
X9026415Y-13575413D01*
X9026415Y-13575413D02*
X9026415Y-13594461D01*
X9159749Y-13394461D02*
X9178796Y-13394461D01*
X9178796Y-13394461D02*
X9197844Y-13403985D01*
X9197844Y-13403985D02*
X9207368Y-13413509D01*
X9207368Y-13413509D02*
X9216891Y-13432556D01*
X9216891Y-13432556D02*
X9226415Y-13470651D01*
X9226415Y-13470651D02*
X9226415Y-13518271D01*
X9226415Y-13518271D02*
X9216891Y-13556366D01*
X9216891Y-13556366D02*
X9207368Y-13575413D01*
X9207368Y-13575413D02*
X9197844Y-13584937D01*
X9197844Y-13584937D02*
X9178796Y-13594461D01*
X9178796Y-13594461D02*
X9159749Y-13594461D01*
X9159749Y-13594461D02*
X9140701Y-13584937D01*
X9140701Y-13584937D02*
X9131177Y-13575413D01*
X9131177Y-13575413D02*
X9121653Y-13556366D01*
X9121653Y-13556366D02*
X9112130Y-13518271D01*
X9112130Y-13518271D02*
X9112130Y-13470651D01*
X9112130Y-13470651D02*
X9121653Y-13432556D01*
X9121653Y-13432556D02*
X9131177Y-13413509D01*
X9131177Y-13413509D02*
X9140701Y-13403985D01*
X9140701Y-13403985D02*
X9159749Y-13394461D01*
X9293082Y-13394461D02*
X9416891Y-13394461D01*
X9416891Y-13394461D02*
X9350225Y-13470651D01*
X9350225Y-13470651D02*
X9378796Y-13470651D01*
X9378796Y-13470651D02*
X9397844Y-13480175D01*
X9397844Y-13480175D02*
X9407368Y-13489699D01*
X9407368Y-13489699D02*
X9416891Y-13508747D01*
X9416891Y-13508747D02*
X9416891Y-13556366D01*
X9416891Y-13556366D02*
X9407368Y-13575413D01*
X9407368Y-13575413D02*
X9397844Y-13584937D01*
X9397844Y-13584937D02*
X9378796Y-13594461D01*
X9378796Y-13594461D02*
X9321653Y-13594461D01*
X9321653Y-13594461D02*
X9302606Y-13584937D01*
X9302606Y-13584937D02*
X9293082Y-13575413D01*
X9512130Y-13594461D02*
X9550225Y-13594461D01*
X9550225Y-13594461D02*
X9569272Y-13584937D01*
X9569272Y-13584937D02*
X9578796Y-13575413D01*
X9578796Y-13575413D02*
X9597844Y-13546842D01*
X9597844Y-13546842D02*
X9607368Y-13508747D01*
X9607368Y-13508747D02*
X9607368Y-13432556D01*
X9607368Y-13432556D02*
X9597844Y-13413509D01*
X9597844Y-13413509D02*
X9588320Y-13403985D01*
X9588320Y-13403985D02*
X9569272Y-13394461D01*
X9569272Y-13394461D02*
X9531177Y-13394461D01*
X9531177Y-13394461D02*
X9512130Y-13403985D01*
X9512130Y-13403985D02*
X9502606Y-13413509D01*
X9502606Y-13413509D02*
X9493082Y-13432556D01*
X9493082Y-13432556D02*
X9493082Y-13480175D01*
X9493082Y-13480175D02*
X9502606Y-13499223D01*
X9502606Y-13499223D02*
X9512130Y-13508747D01*
X9512130Y-13508747D02*
X9531177Y-13518271D01*
X9531177Y-13518271D02*
X9569272Y-13518271D01*
X9569272Y-13518271D02*
X9588320Y-13508747D01*
X9588320Y-13508747D02*
X9597844Y-13499223D01*
X9597844Y-13499223D02*
X9607368Y-13480175D01*
X9778796Y-13461128D02*
X9778796Y-13594461D01*
X9731177Y-13384937D02*
X9683558Y-13527794D01*
X9683558Y-13527794D02*
X9807368Y-13527794D01*
X9874034Y-13394461D02*
X9874034Y-13432556D01*
X9950225Y-13394461D02*
X9950225Y-13432556D01*
X10245463Y-13670651D02*
X10235939Y-13661128D01*
X10235939Y-13661128D02*
X10216892Y-13632556D01*
X10216892Y-13632556D02*
X10207368Y-13613509D01*
X10207368Y-13613509D02*
X10197844Y-13584937D01*
X10197844Y-13584937D02*
X10188320Y-13537318D01*
X10188320Y-13537318D02*
X10188320Y-13499223D01*
X10188320Y-13499223D02*
X10197844Y-13451604D01*
X10197844Y-13451604D02*
X10207368Y-13423032D01*
X10207368Y-13423032D02*
X10216892Y-13403985D01*
X10216892Y-13403985D02*
X10235939Y-13375413D01*
X10235939Y-13375413D02*
X10245463Y-13365890D01*
X10302606Y-13394461D02*
X10426415Y-13394461D01*
X10426415Y-13394461D02*
X10359749Y-13470651D01*
X10359749Y-13470651D02*
X10388320Y-13470651D01*
X10388320Y-13470651D02*
X10407368Y-13480175D01*
X10407368Y-13480175D02*
X10416892Y-13489699D01*
X10416892Y-13489699D02*
X10426415Y-13508747D01*
X10426415Y-13508747D02*
X10426415Y-13556366D01*
X10426415Y-13556366D02*
X10416892Y-13575413D01*
X10416892Y-13575413D02*
X10407368Y-13584937D01*
X10407368Y-13584937D02*
X10388320Y-13594461D01*
X10388320Y-13594461D02*
X10331177Y-13594461D01*
X10331177Y-13594461D02*
X10312130Y-13584937D01*
X10312130Y-13584937D02*
X10302606Y-13575413D01*
X10597844Y-13394461D02*
X10559749Y-13394461D01*
X10559749Y-13394461D02*
X10540701Y-13403985D01*
X10540701Y-13403985D02*
X10531177Y-13413509D01*
X10531177Y-13413509D02*
X10512130Y-13442080D01*
X10512130Y-13442080D02*
X10502606Y-13480175D01*
X10502606Y-13480175D02*
X10502606Y-13556366D01*
X10502606Y-13556366D02*
X10512130Y-13575413D01*
X10512130Y-13575413D02*
X10521653Y-13584937D01*
X10521653Y-13584937D02*
X10540701Y-13594461D01*
X10540701Y-13594461D02*
X10578796Y-13594461D01*
X10578796Y-13594461D02*
X10597844Y-13584937D01*
X10597844Y-13584937D02*
X10607368Y-13575413D01*
X10607368Y-13575413D02*
X10616892Y-13556366D01*
X10616892Y-13556366D02*
X10616892Y-13508747D01*
X10616892Y-13508747D02*
X10607368Y-13489699D01*
X10607368Y-13489699D02*
X10597844Y-13480175D01*
X10597844Y-13480175D02*
X10578796Y-13470651D01*
X10578796Y-13470651D02*
X10540701Y-13470651D01*
X10540701Y-13470651D02*
X10521653Y-13480175D01*
X10521653Y-13480175D02*
X10512130Y-13489699D01*
X10512130Y-13489699D02*
X10502606Y-13508747D01*
X10854987Y-13594461D02*
X10854987Y-13394461D01*
X10940701Y-13594461D02*
X10940701Y-13489699D01*
X10940701Y-13489699D02*
X10931177Y-13470651D01*
X10931177Y-13470651D02*
X10912130Y-13461128D01*
X10912130Y-13461128D02*
X10883558Y-13461128D01*
X10883558Y-13461128D02*
X10864511Y-13470651D01*
X10864511Y-13470651D02*
X10854987Y-13480175D01*
X11064511Y-13594461D02*
X11045463Y-13584937D01*
X11045463Y-13584937D02*
X11035939Y-13575413D01*
X11035939Y-13575413D02*
X11026415Y-13556366D01*
X11026415Y-13556366D02*
X11026415Y-13499223D01*
X11026415Y-13499223D02*
X11035939Y-13480175D01*
X11035939Y-13480175D02*
X11045463Y-13470651D01*
X11045463Y-13470651D02*
X11064511Y-13461128D01*
X11064511Y-13461128D02*
X11093082Y-13461128D01*
X11093082Y-13461128D02*
X11112130Y-13470651D01*
X11112130Y-13470651D02*
X11121654Y-13480175D01*
X11121654Y-13480175D02*
X11131177Y-13499223D01*
X11131177Y-13499223D02*
X11131177Y-13556366D01*
X11131177Y-13556366D02*
X11121654Y-13575413D01*
X11121654Y-13575413D02*
X11112130Y-13584937D01*
X11112130Y-13584937D02*
X11093082Y-13594461D01*
X11093082Y-13594461D02*
X11064511Y-13594461D01*
X11245463Y-13594461D02*
X11226415Y-13584937D01*
X11226415Y-13584937D02*
X11216892Y-13565890D01*
X11216892Y-13565890D02*
X11216892Y-13394461D01*
X11397844Y-13584937D02*
X11378796Y-13594461D01*
X11378796Y-13594461D02*
X11340701Y-13594461D01*
X11340701Y-13594461D02*
X11321653Y-13584937D01*
X11321653Y-13584937D02*
X11312130Y-13565890D01*
X11312130Y-13565890D02*
X11312130Y-13489699D01*
X11312130Y-13489699D02*
X11321653Y-13470651D01*
X11321653Y-13470651D02*
X11340701Y-13461128D01*
X11340701Y-13461128D02*
X11378796Y-13461128D01*
X11378796Y-13461128D02*
X11397844Y-13470651D01*
X11397844Y-13470651D02*
X11407368Y-13489699D01*
X11407368Y-13489699D02*
X11407368Y-13508747D01*
X11407368Y-13508747D02*
X11312130Y-13527794D01*
X11483558Y-13584937D02*
X11502606Y-13594461D01*
X11502606Y-13594461D02*
X11540701Y-13594461D01*
X11540701Y-13594461D02*
X11559749Y-13584937D01*
X11559749Y-13584937D02*
X11569273Y-13565890D01*
X11569273Y-13565890D02*
X11569273Y-13556366D01*
X11569273Y-13556366D02*
X11559749Y-13537318D01*
X11559749Y-13537318D02*
X11540701Y-13527794D01*
X11540701Y-13527794D02*
X11512130Y-13527794D01*
X11512130Y-13527794D02*
X11493082Y-13518271D01*
X11493082Y-13518271D02*
X11483558Y-13499223D01*
X11483558Y-13499223D02*
X11483558Y-13489699D01*
X11483558Y-13489699D02*
X11493082Y-13470651D01*
X11493082Y-13470651D02*
X11512130Y-13461128D01*
X11512130Y-13461128D02*
X11540701Y-13461128D01*
X11540701Y-13461128D02*
X11559749Y-13470651D01*
X11635939Y-13670651D02*
X11645463Y-13661128D01*
X11645463Y-13661128D02*
X11664511Y-13632556D01*
X11664511Y-13632556D02*
X11674034Y-13613509D01*
X11674034Y-13613509D02*
X11683558Y-13584937D01*
X11683558Y-13584937D02*
X11693082Y-13537318D01*
X11693082Y-13537318D02*
X11693082Y-13499223D01*
X11693082Y-13499223D02*
X11683558Y-13451604D01*
X11683558Y-13451604D02*
X11674034Y-13423032D01*
X11674034Y-13423032D02*
X11664511Y-13403985D01*
X11664511Y-13403985D02*
X11645463Y-13375413D01*
X11645463Y-13375413D02*
X11635939Y-13365890D01*
X6570400Y-13666977D02*
X6570400Y-13866977D01*
X6470400Y-13766977D02*
X6670400Y-13766977D01*
X6921653Y-13677509D02*
X6931177Y-13667985D01*
X6931177Y-13667985D02*
X6950224Y-13658461D01*
X6950224Y-13658461D02*
X6997844Y-13658461D01*
X6997844Y-13658461D02*
X7016891Y-13667985D01*
X7016891Y-13667985D02*
X7026415Y-13677509D01*
X7026415Y-13677509D02*
X7035939Y-13696556D01*
X7035939Y-13696556D02*
X7035939Y-13715604D01*
X7035939Y-13715604D02*
X7026415Y-13744175D01*
X7026415Y-13744175D02*
X6912129Y-13858461D01*
X6912129Y-13858461D02*
X7035939Y-13858461D01*
X7121653Y-13839413D02*
X7131177Y-13848937D01*
X7131177Y-13848937D02*
X7121653Y-13858461D01*
X7121653Y-13858461D02*
X7112129Y-13848937D01*
X7112129Y-13848937D02*
X7121653Y-13839413D01*
X7121653Y-13839413D02*
X7121653Y-13858461D01*
X7197844Y-13658461D02*
X7331177Y-13658461D01*
X7331177Y-13658461D02*
X7245463Y-13858461D01*
X7445463Y-13658461D02*
X7464510Y-13658461D01*
X7464510Y-13658461D02*
X7483558Y-13667985D01*
X7483558Y-13667985D02*
X7493082Y-13677509D01*
X7493082Y-13677509D02*
X7502605Y-13696556D01*
X7502605Y-13696556D02*
X7512129Y-13734651D01*
X7512129Y-13734651D02*
X7512129Y-13782271D01*
X7512129Y-13782271D02*
X7502605Y-13820366D01*
X7502605Y-13820366D02*
X7493082Y-13839413D01*
X7493082Y-13839413D02*
X7483558Y-13848937D01*
X7483558Y-13848937D02*
X7464510Y-13858461D01*
X7464510Y-13858461D02*
X7445463Y-13858461D01*
X7445463Y-13858461D02*
X7426415Y-13848937D01*
X7426415Y-13848937D02*
X7416891Y-13839413D01*
X7416891Y-13839413D02*
X7407367Y-13820366D01*
X7407367Y-13820366D02*
X7397844Y-13782271D01*
X7397844Y-13782271D02*
X7397844Y-13734651D01*
X7397844Y-13734651D02*
X7407367Y-13696556D01*
X7407367Y-13696556D02*
X7416891Y-13677509D01*
X7416891Y-13677509D02*
X7426415Y-13667985D01*
X7426415Y-13667985D02*
X7445463Y-13658461D01*
X7635939Y-13658461D02*
X7654986Y-13658461D01*
X7654986Y-13658461D02*
X7674034Y-13667985D01*
X7674034Y-13667985D02*
X7683558Y-13677509D01*
X7683558Y-13677509D02*
X7693082Y-13696556D01*
X7693082Y-13696556D02*
X7702605Y-13734651D01*
X7702605Y-13734651D02*
X7702605Y-13782271D01*
X7702605Y-13782271D02*
X7693082Y-13820366D01*
X7693082Y-13820366D02*
X7683558Y-13839413D01*
X7683558Y-13839413D02*
X7674034Y-13848937D01*
X7674034Y-13848937D02*
X7654986Y-13858461D01*
X7654986Y-13858461D02*
X7635939Y-13858461D01*
X7635939Y-13858461D02*
X7616891Y-13848937D01*
X7616891Y-13848937D02*
X7607367Y-13839413D01*
X7607367Y-13839413D02*
X7597844Y-13820366D01*
X7597844Y-13820366D02*
X7588320Y-13782271D01*
X7588320Y-13782271D02*
X7588320Y-13734651D01*
X7588320Y-13734651D02*
X7597844Y-13696556D01*
X7597844Y-13696556D02*
X7607367Y-13677509D01*
X7607367Y-13677509D02*
X7616891Y-13667985D01*
X7616891Y-13667985D02*
X7635939Y-13658461D01*
X7788320Y-13858461D02*
X7788320Y-13725128D01*
X7788320Y-13744175D02*
X7797844Y-13734651D01*
X7797844Y-13734651D02*
X7816891Y-13725128D01*
X7816891Y-13725128D02*
X7845463Y-13725128D01*
X7845463Y-13725128D02*
X7864510Y-13734651D01*
X7864510Y-13734651D02*
X7874034Y-13753699D01*
X7874034Y-13753699D02*
X7874034Y-13858461D01*
X7874034Y-13753699D02*
X7883558Y-13734651D01*
X7883558Y-13734651D02*
X7902605Y-13725128D01*
X7902605Y-13725128D02*
X7931177Y-13725128D01*
X7931177Y-13725128D02*
X7950225Y-13734651D01*
X7950225Y-13734651D02*
X7959748Y-13753699D01*
X7959748Y-13753699D02*
X7959748Y-13858461D01*
X8054986Y-13858461D02*
X8054986Y-13725128D01*
X8054986Y-13744175D02*
X8064510Y-13734651D01*
X8064510Y-13734651D02*
X8083558Y-13725128D01*
X8083558Y-13725128D02*
X8112129Y-13725128D01*
X8112129Y-13725128D02*
X8131177Y-13734651D01*
X8131177Y-13734651D02*
X8140701Y-13753699D01*
X8140701Y-13753699D02*
X8140701Y-13858461D01*
X8140701Y-13753699D02*
X8150225Y-13734651D01*
X8150225Y-13734651D02*
X8169272Y-13725128D01*
X8169272Y-13725128D02*
X8197844Y-13725128D01*
X8197844Y-13725128D02*
X8216891Y-13734651D01*
X8216891Y-13734651D02*
X8226415Y-13753699D01*
X8226415Y-13753699D02*
X8226415Y-13858461D01*
X8616891Y-13648937D02*
X8445463Y-13906080D01*
X8874034Y-13658461D02*
X8893082Y-13658461D01*
X8893082Y-13658461D02*
X8912130Y-13667985D01*
X8912130Y-13667985D02*
X8921653Y-13677509D01*
X8921653Y-13677509D02*
X8931177Y-13696556D01*
X8931177Y-13696556D02*
X8940701Y-13734651D01*
X8940701Y-13734651D02*
X8940701Y-13782271D01*
X8940701Y-13782271D02*
X8931177Y-13820366D01*
X8931177Y-13820366D02*
X8921653Y-13839413D01*
X8921653Y-13839413D02*
X8912130Y-13848937D01*
X8912130Y-13848937D02*
X8893082Y-13858461D01*
X8893082Y-13858461D02*
X8874034Y-13858461D01*
X8874034Y-13858461D02*
X8854987Y-13848937D01*
X8854987Y-13848937D02*
X8845463Y-13839413D01*
X8845463Y-13839413D02*
X8835939Y-13820366D01*
X8835939Y-13820366D02*
X8826415Y-13782271D01*
X8826415Y-13782271D02*
X8826415Y-13734651D01*
X8826415Y-13734651D02*
X8835939Y-13696556D01*
X8835939Y-13696556D02*
X8845463Y-13677509D01*
X8845463Y-13677509D02*
X8854987Y-13667985D01*
X8854987Y-13667985D02*
X8874034Y-13658461D01*
X9026415Y-13839413D02*
X9035939Y-13848937D01*
X9035939Y-13848937D02*
X9026415Y-13858461D01*
X9026415Y-13858461D02*
X9016891Y-13848937D01*
X9016891Y-13848937D02*
X9026415Y-13839413D01*
X9026415Y-13839413D02*
X9026415Y-13858461D01*
X9226415Y-13858461D02*
X9112130Y-13858461D01*
X9169272Y-13858461D02*
X9169272Y-13658461D01*
X9169272Y-13658461D02*
X9150225Y-13687032D01*
X9150225Y-13687032D02*
X9131177Y-13706080D01*
X9131177Y-13706080D02*
X9112130Y-13715604D01*
X9350225Y-13658461D02*
X9369272Y-13658461D01*
X9369272Y-13658461D02*
X9388320Y-13667985D01*
X9388320Y-13667985D02*
X9397844Y-13677509D01*
X9397844Y-13677509D02*
X9407368Y-13696556D01*
X9407368Y-13696556D02*
X9416891Y-13734651D01*
X9416891Y-13734651D02*
X9416891Y-13782271D01*
X9416891Y-13782271D02*
X9407368Y-13820366D01*
X9407368Y-13820366D02*
X9397844Y-13839413D01*
X9397844Y-13839413D02*
X9388320Y-13848937D01*
X9388320Y-13848937D02*
X9369272Y-13858461D01*
X9369272Y-13858461D02*
X9350225Y-13858461D01*
X9350225Y-13858461D02*
X9331177Y-13848937D01*
X9331177Y-13848937D02*
X9321653Y-13839413D01*
X9321653Y-13839413D02*
X9312130Y-13820366D01*
X9312130Y-13820366D02*
X9302606Y-13782271D01*
X9302606Y-13782271D02*
X9302606Y-13734651D01*
X9302606Y-13734651D02*
X9312130Y-13696556D01*
X9312130Y-13696556D02*
X9321653Y-13677509D01*
X9321653Y-13677509D02*
X9331177Y-13667985D01*
X9331177Y-13667985D02*
X9350225Y-13658461D01*
X9588320Y-13658461D02*
X9550225Y-13658461D01*
X9550225Y-13658461D02*
X9531177Y-13667985D01*
X9531177Y-13667985D02*
X9521653Y-13677509D01*
X9521653Y-13677509D02*
X9502606Y-13706080D01*
X9502606Y-13706080D02*
X9493082Y-13744175D01*
X9493082Y-13744175D02*
X9493082Y-13820366D01*
X9493082Y-13820366D02*
X9502606Y-13839413D01*
X9502606Y-13839413D02*
X9512130Y-13848937D01*
X9512130Y-13848937D02*
X9531177Y-13858461D01*
X9531177Y-13858461D02*
X9569272Y-13858461D01*
X9569272Y-13858461D02*
X9588320Y-13848937D01*
X9588320Y-13848937D02*
X9597844Y-13839413D01*
X9597844Y-13839413D02*
X9607368Y-13820366D01*
X9607368Y-13820366D02*
X9607368Y-13772747D01*
X9607368Y-13772747D02*
X9597844Y-13753699D01*
X9597844Y-13753699D02*
X9588320Y-13744175D01*
X9588320Y-13744175D02*
X9569272Y-13734651D01*
X9569272Y-13734651D02*
X9531177Y-13734651D01*
X9531177Y-13734651D02*
X9512130Y-13744175D01*
X9512130Y-13744175D02*
X9502606Y-13753699D01*
X9502606Y-13753699D02*
X9493082Y-13772747D01*
X9674034Y-13658461D02*
X9797844Y-13658461D01*
X9797844Y-13658461D02*
X9731177Y-13734651D01*
X9731177Y-13734651D02*
X9759749Y-13734651D01*
X9759749Y-13734651D02*
X9778796Y-13744175D01*
X9778796Y-13744175D02*
X9788320Y-13753699D01*
X9788320Y-13753699D02*
X9797844Y-13772747D01*
X9797844Y-13772747D02*
X9797844Y-13820366D01*
X9797844Y-13820366D02*
X9788320Y-13839413D01*
X9788320Y-13839413D02*
X9778796Y-13848937D01*
X9778796Y-13848937D02*
X9759749Y-13858461D01*
X9759749Y-13858461D02*
X9702606Y-13858461D01*
X9702606Y-13858461D02*
X9683558Y-13848937D01*
X9683558Y-13848937D02*
X9674034Y-13839413D01*
X9874034Y-13658461D02*
X9874034Y-13696556D01*
X9950225Y-13658461D02*
X9950225Y-13696556D01*
X10245463Y-13934651D02*
X10235939Y-13925128D01*
X10235939Y-13925128D02*
X10216892Y-13896556D01*
X10216892Y-13896556D02*
X10207368Y-13877509D01*
X10207368Y-13877509D02*
X10197844Y-13848937D01*
X10197844Y-13848937D02*
X10188320Y-13801318D01*
X10188320Y-13801318D02*
X10188320Y-13763223D01*
X10188320Y-13763223D02*
X10197844Y-13715604D01*
X10197844Y-13715604D02*
X10207368Y-13687032D01*
X10207368Y-13687032D02*
X10216892Y-13667985D01*
X10216892Y-13667985D02*
X10235939Y-13639413D01*
X10235939Y-13639413D02*
X10245463Y-13629890D01*
X10350225Y-13744175D02*
X10331177Y-13734651D01*
X10331177Y-13734651D02*
X10321653Y-13725128D01*
X10321653Y-13725128D02*
X10312130Y-13706080D01*
X10312130Y-13706080D02*
X10312130Y-13696556D01*
X10312130Y-13696556D02*
X10321653Y-13677509D01*
X10321653Y-13677509D02*
X10331177Y-13667985D01*
X10331177Y-13667985D02*
X10350225Y-13658461D01*
X10350225Y-13658461D02*
X10388320Y-13658461D01*
X10388320Y-13658461D02*
X10407368Y-13667985D01*
X10407368Y-13667985D02*
X10416892Y-13677509D01*
X10416892Y-13677509D02*
X10426415Y-13696556D01*
X10426415Y-13696556D02*
X10426415Y-13706080D01*
X10426415Y-13706080D02*
X10416892Y-13725128D01*
X10416892Y-13725128D02*
X10407368Y-13734651D01*
X10407368Y-13734651D02*
X10388320Y-13744175D01*
X10388320Y-13744175D02*
X10350225Y-13744175D01*
X10350225Y-13744175D02*
X10331177Y-13753699D01*
X10331177Y-13753699D02*
X10321653Y-13763223D01*
X10321653Y-13763223D02*
X10312130Y-13782271D01*
X10312130Y-13782271D02*
X10312130Y-13820366D01*
X10312130Y-13820366D02*
X10321653Y-13839413D01*
X10321653Y-13839413D02*
X10331177Y-13848937D01*
X10331177Y-13848937D02*
X10350225Y-13858461D01*
X10350225Y-13858461D02*
X10388320Y-13858461D01*
X10388320Y-13858461D02*
X10407368Y-13848937D01*
X10407368Y-13848937D02*
X10416892Y-13839413D01*
X10416892Y-13839413D02*
X10426415Y-13820366D01*
X10426415Y-13820366D02*
X10426415Y-13782271D01*
X10426415Y-13782271D02*
X10416892Y-13763223D01*
X10416892Y-13763223D02*
X10407368Y-13753699D01*
X10407368Y-13753699D02*
X10388320Y-13744175D01*
X10664511Y-13858461D02*
X10664511Y-13658461D01*
X10750225Y-13858461D02*
X10750225Y-13753699D01*
X10750225Y-13753699D02*
X10740701Y-13734651D01*
X10740701Y-13734651D02*
X10721654Y-13725128D01*
X10721654Y-13725128D02*
X10693082Y-13725128D01*
X10693082Y-13725128D02*
X10674034Y-13734651D01*
X10674034Y-13734651D02*
X10664511Y-13744175D01*
X10874034Y-13858461D02*
X10854987Y-13848937D01*
X10854987Y-13848937D02*
X10845463Y-13839413D01*
X10845463Y-13839413D02*
X10835939Y-13820366D01*
X10835939Y-13820366D02*
X10835939Y-13763223D01*
X10835939Y-13763223D02*
X10845463Y-13744175D01*
X10845463Y-13744175D02*
X10854987Y-13734651D01*
X10854987Y-13734651D02*
X10874034Y-13725128D01*
X10874034Y-13725128D02*
X10902606Y-13725128D01*
X10902606Y-13725128D02*
X10921654Y-13734651D01*
X10921654Y-13734651D02*
X10931177Y-13744175D01*
X10931177Y-13744175D02*
X10940701Y-13763223D01*
X10940701Y-13763223D02*
X10940701Y-13820366D01*
X10940701Y-13820366D02*
X10931177Y-13839413D01*
X10931177Y-13839413D02*
X10921654Y-13848937D01*
X10921654Y-13848937D02*
X10902606Y-13858461D01*
X10902606Y-13858461D02*
X10874034Y-13858461D01*
X11054987Y-13858461D02*
X11035939Y-13848937D01*
X11035939Y-13848937D02*
X11026415Y-13829890D01*
X11026415Y-13829890D02*
X11026415Y-13658461D01*
X11207368Y-13848937D02*
X11188320Y-13858461D01*
X11188320Y-13858461D02*
X11150225Y-13858461D01*
X11150225Y-13858461D02*
X11131177Y-13848937D01*
X11131177Y-13848937D02*
X11121654Y-13829890D01*
X11121654Y-13829890D02*
X11121654Y-13753699D01*
X11121654Y-13753699D02*
X11131177Y-13734651D01*
X11131177Y-13734651D02*
X11150225Y-13725128D01*
X11150225Y-13725128D02*
X11188320Y-13725128D01*
X11188320Y-13725128D02*
X11207368Y-13734651D01*
X11207368Y-13734651D02*
X11216892Y-13753699D01*
X11216892Y-13753699D02*
X11216892Y-13772747D01*
X11216892Y-13772747D02*
X11121654Y-13791794D01*
X11293082Y-13848937D02*
X11312130Y-13858461D01*
X11312130Y-13858461D02*
X11350225Y-13858461D01*
X11350225Y-13858461D02*
X11369273Y-13848937D01*
X11369273Y-13848937D02*
X11378796Y-13829890D01*
X11378796Y-13829890D02*
X11378796Y-13820366D01*
X11378796Y-13820366D02*
X11369273Y-13801318D01*
X11369273Y-13801318D02*
X11350225Y-13791794D01*
X11350225Y-13791794D02*
X11321653Y-13791794D01*
X11321653Y-13791794D02*
X11302606Y-13782271D01*
X11302606Y-13782271D02*
X11293082Y-13763223D01*
X11293082Y-13763223D02*
X11293082Y-13753699D01*
X11293082Y-13753699D02*
X11302606Y-13734651D01*
X11302606Y-13734651D02*
X11321653Y-13725128D01*
X11321653Y-13725128D02*
X11350225Y-13725128D01*
X11350225Y-13725128D02*
X11369273Y-13734651D01*
X11445463Y-13934651D02*
X11454987Y-13925128D01*
X11454987Y-13925128D02*
X11474034Y-13896556D01*
X11474034Y-13896556D02*
X11483558Y-13877509D01*
X11483558Y-13877509D02*
X11493082Y-13848937D01*
X11493082Y-13848937D02*
X11502606Y-13801318D01*
X11502606Y-13801318D02*
X11502606Y-13763223D01*
X11502606Y-13763223D02*
X11493082Y-13715604D01*
X11493082Y-13715604D02*
X11483558Y-13687032D01*
X11483558Y-13687032D02*
X11474034Y-13667985D01*
X11474034Y-13667985D02*
X11454987Y-13639413D01*
X11454987Y-13639413D02*
X11445463Y-13629890D01*
M02*
