%TF.GenerationSoftware,KiCad,Pcbnew,7.0.10*%
%TF.CreationDate,2024-12-17T00:04:27-07:00*%
%TF.ProjectId,DRXDaughterboard,44525844-6175-4676-9874-6572626f6172,1.1*%
%TF.SameCoordinates,Original*%
%TF.FileFunction,Drillmap*%
%TF.FilePolarity,Positive*%
%FSLAX45Y45*%
G04 Gerber Fmt 4.5, Leading zero omitted, Abs format (unit mm)*
G04 Created by KiCad (PCBNEW 7.0.10) date 2024-12-17 00:04:27*
%MOMM*%
%LPD*%
G01*
G04 APERTURE LIST*
%ADD10C,0.100000*%
%ADD11C,0.200000*%
%ADD12C,0.127000*%
G04 APERTURE END LIST*
D10*
X6675400Y-7018677D02*
X21767000Y-7018677D01*
X21767000Y-12593977D01*
X6675400Y-12593977D01*
X6675400Y-7018677D01*
D11*
D12*
X7507800Y-7539177D02*
X7634800Y-7666177D01*
X7634800Y-7539177D02*
X7507800Y-7666177D01*
X7507800Y-7844177D02*
X7634800Y-7971177D01*
X7634800Y-7844177D02*
X7507800Y-7971177D01*
X7938500Y-11349177D02*
X8065500Y-11476177D01*
X8065500Y-11349177D02*
X7938500Y-11476177D01*
X12945900Y-8149177D02*
X13072900Y-8276177D01*
X13072900Y-8149177D02*
X12945900Y-8276177D01*
X12946000Y-7844177D02*
X13073000Y-7971177D01*
X13073000Y-7844177D02*
X12946000Y-7971177D01*
X13376700Y-11654177D02*
X13503700Y-11781177D01*
X13503700Y-11654177D02*
X13376700Y-11781177D01*
X14938700Y-11349177D02*
X15065700Y-11476177D01*
X15065700Y-11349177D02*
X14938700Y-11476177D01*
X15369400Y-7539177D02*
X15496400Y-7666177D01*
X15496400Y-7539177D02*
X15369400Y-7666177D01*
X15369400Y-7844177D02*
X15496400Y-7971177D01*
X15496400Y-7844177D02*
X15369400Y-7971177D01*
X20376900Y-11654177D02*
X20503900Y-11781177D01*
X20503900Y-11654177D02*
X20376900Y-11781177D01*
X20807500Y-8149177D02*
X20934500Y-8276177D01*
X20934500Y-8149177D02*
X20807500Y-8276177D01*
X20807600Y-7844177D02*
X20934600Y-7971177D01*
X20934600Y-7844177D02*
X20807600Y-7971177D01*
D11*
X6931177Y-12910461D02*
X6931177Y-12710461D01*
X6931177Y-12710461D02*
X6978796Y-12710461D01*
X6978796Y-12710461D02*
X7007367Y-12719985D01*
X7007367Y-12719985D02*
X7026415Y-12739032D01*
X7026415Y-12739032D02*
X7035939Y-12758080D01*
X7035939Y-12758080D02*
X7045463Y-12796175D01*
X7045463Y-12796175D02*
X7045463Y-12824747D01*
X7045463Y-12824747D02*
X7035939Y-12862842D01*
X7035939Y-12862842D02*
X7026415Y-12881890D01*
X7026415Y-12881890D02*
X7007367Y-12900937D01*
X7007367Y-12900937D02*
X6978796Y-12910461D01*
X6978796Y-12910461D02*
X6931177Y-12910461D01*
X7131177Y-12910461D02*
X7131177Y-12777128D01*
X7131177Y-12815223D02*
X7140701Y-12796175D01*
X7140701Y-12796175D02*
X7150224Y-12786651D01*
X7150224Y-12786651D02*
X7169272Y-12777128D01*
X7169272Y-12777128D02*
X7188320Y-12777128D01*
X7254986Y-12910461D02*
X7254986Y-12777128D01*
X7254986Y-12710461D02*
X7245463Y-12719985D01*
X7245463Y-12719985D02*
X7254986Y-12729509D01*
X7254986Y-12729509D02*
X7264510Y-12719985D01*
X7264510Y-12719985D02*
X7254986Y-12710461D01*
X7254986Y-12710461D02*
X7254986Y-12729509D01*
X7378796Y-12910461D02*
X7359748Y-12900937D01*
X7359748Y-12900937D02*
X7350224Y-12881890D01*
X7350224Y-12881890D02*
X7350224Y-12710461D01*
X7483558Y-12910461D02*
X7464510Y-12900937D01*
X7464510Y-12900937D02*
X7454986Y-12881890D01*
X7454986Y-12881890D02*
X7454986Y-12710461D01*
X7712129Y-12910461D02*
X7712129Y-12710461D01*
X7712129Y-12710461D02*
X7778796Y-12853318D01*
X7778796Y-12853318D02*
X7845463Y-12710461D01*
X7845463Y-12710461D02*
X7845463Y-12910461D01*
X8026415Y-12910461D02*
X8026415Y-12805699D01*
X8026415Y-12805699D02*
X8016891Y-12786651D01*
X8016891Y-12786651D02*
X7997844Y-12777128D01*
X7997844Y-12777128D02*
X7959748Y-12777128D01*
X7959748Y-12777128D02*
X7940701Y-12786651D01*
X8026415Y-12900937D02*
X8007367Y-12910461D01*
X8007367Y-12910461D02*
X7959748Y-12910461D01*
X7959748Y-12910461D02*
X7940701Y-12900937D01*
X7940701Y-12900937D02*
X7931177Y-12881890D01*
X7931177Y-12881890D02*
X7931177Y-12862842D01*
X7931177Y-12862842D02*
X7940701Y-12843794D01*
X7940701Y-12843794D02*
X7959748Y-12834271D01*
X7959748Y-12834271D02*
X8007367Y-12834271D01*
X8007367Y-12834271D02*
X8026415Y-12824747D01*
X8121653Y-12777128D02*
X8121653Y-12977128D01*
X8121653Y-12786651D02*
X8140701Y-12777128D01*
X8140701Y-12777128D02*
X8178796Y-12777128D01*
X8178796Y-12777128D02*
X8197844Y-12786651D01*
X8197844Y-12786651D02*
X8207367Y-12796175D01*
X8207367Y-12796175D02*
X8216891Y-12815223D01*
X8216891Y-12815223D02*
X8216891Y-12872366D01*
X8216891Y-12872366D02*
X8207367Y-12891413D01*
X8207367Y-12891413D02*
X8197844Y-12900937D01*
X8197844Y-12900937D02*
X8178796Y-12910461D01*
X8178796Y-12910461D02*
X8140701Y-12910461D01*
X8140701Y-12910461D02*
X8121653Y-12900937D01*
X8302605Y-12891413D02*
X8312129Y-12900937D01*
X8312129Y-12900937D02*
X8302605Y-12910461D01*
X8302605Y-12910461D02*
X8293082Y-12900937D01*
X8293082Y-12900937D02*
X8302605Y-12891413D01*
X8302605Y-12891413D02*
X8302605Y-12910461D01*
X8302605Y-12786651D02*
X8312129Y-12796175D01*
X8312129Y-12796175D02*
X8302605Y-12805699D01*
X8302605Y-12805699D02*
X8293082Y-12796175D01*
X8293082Y-12796175D02*
X8302605Y-12786651D01*
X8302605Y-12786651D02*
X8302605Y-12805699D01*
D12*
X6543400Y-13175477D02*
X6670400Y-13302477D01*
X6670400Y-13175477D02*
X6543400Y-13302477D01*
D11*
X7035939Y-13330461D02*
X6921653Y-13330461D01*
X6978796Y-13330461D02*
X6978796Y-13130461D01*
X6978796Y-13130461D02*
X6959748Y-13159032D01*
X6959748Y-13159032D02*
X6940701Y-13178080D01*
X6940701Y-13178080D02*
X6921653Y-13187604D01*
X7121653Y-13311413D02*
X7131177Y-13320937D01*
X7131177Y-13320937D02*
X7121653Y-13330461D01*
X7121653Y-13330461D02*
X7112129Y-13320937D01*
X7112129Y-13320937D02*
X7121653Y-13311413D01*
X7121653Y-13311413D02*
X7121653Y-13330461D01*
X7207367Y-13149509D02*
X7216891Y-13139985D01*
X7216891Y-13139985D02*
X7235939Y-13130461D01*
X7235939Y-13130461D02*
X7283558Y-13130461D01*
X7283558Y-13130461D02*
X7302605Y-13139985D01*
X7302605Y-13139985D02*
X7312129Y-13149509D01*
X7312129Y-13149509D02*
X7321653Y-13168556D01*
X7321653Y-13168556D02*
X7321653Y-13187604D01*
X7321653Y-13187604D02*
X7312129Y-13216175D01*
X7312129Y-13216175D02*
X7197844Y-13330461D01*
X7197844Y-13330461D02*
X7321653Y-13330461D01*
X7388320Y-13130461D02*
X7521653Y-13130461D01*
X7521653Y-13130461D02*
X7435939Y-13330461D01*
X7635939Y-13130461D02*
X7654986Y-13130461D01*
X7654986Y-13130461D02*
X7674034Y-13139985D01*
X7674034Y-13139985D02*
X7683558Y-13149509D01*
X7683558Y-13149509D02*
X7693082Y-13168556D01*
X7693082Y-13168556D02*
X7702605Y-13206651D01*
X7702605Y-13206651D02*
X7702605Y-13254271D01*
X7702605Y-13254271D02*
X7693082Y-13292366D01*
X7693082Y-13292366D02*
X7683558Y-13311413D01*
X7683558Y-13311413D02*
X7674034Y-13320937D01*
X7674034Y-13320937D02*
X7654986Y-13330461D01*
X7654986Y-13330461D02*
X7635939Y-13330461D01*
X7635939Y-13330461D02*
X7616891Y-13320937D01*
X7616891Y-13320937D02*
X7607367Y-13311413D01*
X7607367Y-13311413D02*
X7597844Y-13292366D01*
X7597844Y-13292366D02*
X7588320Y-13254271D01*
X7588320Y-13254271D02*
X7588320Y-13206651D01*
X7588320Y-13206651D02*
X7597844Y-13168556D01*
X7597844Y-13168556D02*
X7607367Y-13149509D01*
X7607367Y-13149509D02*
X7616891Y-13139985D01*
X7616891Y-13139985D02*
X7635939Y-13130461D01*
X7788320Y-13330461D02*
X7788320Y-13197128D01*
X7788320Y-13216175D02*
X7797844Y-13206651D01*
X7797844Y-13206651D02*
X7816891Y-13197128D01*
X7816891Y-13197128D02*
X7845463Y-13197128D01*
X7845463Y-13197128D02*
X7864510Y-13206651D01*
X7864510Y-13206651D02*
X7874034Y-13225699D01*
X7874034Y-13225699D02*
X7874034Y-13330461D01*
X7874034Y-13225699D02*
X7883558Y-13206651D01*
X7883558Y-13206651D02*
X7902605Y-13197128D01*
X7902605Y-13197128D02*
X7931177Y-13197128D01*
X7931177Y-13197128D02*
X7950225Y-13206651D01*
X7950225Y-13206651D02*
X7959748Y-13225699D01*
X7959748Y-13225699D02*
X7959748Y-13330461D01*
X8054986Y-13330461D02*
X8054986Y-13197128D01*
X8054986Y-13216175D02*
X8064510Y-13206651D01*
X8064510Y-13206651D02*
X8083558Y-13197128D01*
X8083558Y-13197128D02*
X8112129Y-13197128D01*
X8112129Y-13197128D02*
X8131177Y-13206651D01*
X8131177Y-13206651D02*
X8140701Y-13225699D01*
X8140701Y-13225699D02*
X8140701Y-13330461D01*
X8140701Y-13225699D02*
X8150225Y-13206651D01*
X8150225Y-13206651D02*
X8169272Y-13197128D01*
X8169272Y-13197128D02*
X8197844Y-13197128D01*
X8197844Y-13197128D02*
X8216891Y-13206651D01*
X8216891Y-13206651D02*
X8226415Y-13225699D01*
X8226415Y-13225699D02*
X8226415Y-13330461D01*
X8616891Y-13120937D02*
X8445463Y-13378080D01*
X8874034Y-13130461D02*
X8893082Y-13130461D01*
X8893082Y-13130461D02*
X8912130Y-13139985D01*
X8912130Y-13139985D02*
X8921653Y-13149509D01*
X8921653Y-13149509D02*
X8931177Y-13168556D01*
X8931177Y-13168556D02*
X8940701Y-13206651D01*
X8940701Y-13206651D02*
X8940701Y-13254271D01*
X8940701Y-13254271D02*
X8931177Y-13292366D01*
X8931177Y-13292366D02*
X8921653Y-13311413D01*
X8921653Y-13311413D02*
X8912130Y-13320937D01*
X8912130Y-13320937D02*
X8893082Y-13330461D01*
X8893082Y-13330461D02*
X8874034Y-13330461D01*
X8874034Y-13330461D02*
X8854987Y-13320937D01*
X8854987Y-13320937D02*
X8845463Y-13311413D01*
X8845463Y-13311413D02*
X8835939Y-13292366D01*
X8835939Y-13292366D02*
X8826415Y-13254271D01*
X8826415Y-13254271D02*
X8826415Y-13206651D01*
X8826415Y-13206651D02*
X8835939Y-13168556D01*
X8835939Y-13168556D02*
X8845463Y-13149509D01*
X8845463Y-13149509D02*
X8854987Y-13139985D01*
X8854987Y-13139985D02*
X8874034Y-13130461D01*
X9026415Y-13311413D02*
X9035939Y-13320937D01*
X9035939Y-13320937D02*
X9026415Y-13330461D01*
X9026415Y-13330461D02*
X9016891Y-13320937D01*
X9016891Y-13320937D02*
X9026415Y-13311413D01*
X9026415Y-13311413D02*
X9026415Y-13330461D01*
X9159749Y-13130461D02*
X9178796Y-13130461D01*
X9178796Y-13130461D02*
X9197844Y-13139985D01*
X9197844Y-13139985D02*
X9207368Y-13149509D01*
X9207368Y-13149509D02*
X9216891Y-13168556D01*
X9216891Y-13168556D02*
X9226415Y-13206651D01*
X9226415Y-13206651D02*
X9226415Y-13254271D01*
X9226415Y-13254271D02*
X9216891Y-13292366D01*
X9216891Y-13292366D02*
X9207368Y-13311413D01*
X9207368Y-13311413D02*
X9197844Y-13320937D01*
X9197844Y-13320937D02*
X9178796Y-13330461D01*
X9178796Y-13330461D02*
X9159749Y-13330461D01*
X9159749Y-13330461D02*
X9140701Y-13320937D01*
X9140701Y-13320937D02*
X9131177Y-13311413D01*
X9131177Y-13311413D02*
X9121653Y-13292366D01*
X9121653Y-13292366D02*
X9112130Y-13254271D01*
X9112130Y-13254271D02*
X9112130Y-13206651D01*
X9112130Y-13206651D02*
X9121653Y-13168556D01*
X9121653Y-13168556D02*
X9131177Y-13149509D01*
X9131177Y-13149509D02*
X9140701Y-13139985D01*
X9140701Y-13139985D02*
X9159749Y-13130461D01*
X9407368Y-13130461D02*
X9312130Y-13130461D01*
X9312130Y-13130461D02*
X9302606Y-13225699D01*
X9302606Y-13225699D02*
X9312130Y-13216175D01*
X9312130Y-13216175D02*
X9331177Y-13206651D01*
X9331177Y-13206651D02*
X9378796Y-13206651D01*
X9378796Y-13206651D02*
X9397844Y-13216175D01*
X9397844Y-13216175D02*
X9407368Y-13225699D01*
X9407368Y-13225699D02*
X9416891Y-13244747D01*
X9416891Y-13244747D02*
X9416891Y-13292366D01*
X9416891Y-13292366D02*
X9407368Y-13311413D01*
X9407368Y-13311413D02*
X9397844Y-13320937D01*
X9397844Y-13320937D02*
X9378796Y-13330461D01*
X9378796Y-13330461D02*
X9331177Y-13330461D01*
X9331177Y-13330461D02*
X9312130Y-13320937D01*
X9312130Y-13320937D02*
X9302606Y-13311413D01*
X9540701Y-13130461D02*
X9559749Y-13130461D01*
X9559749Y-13130461D02*
X9578796Y-13139985D01*
X9578796Y-13139985D02*
X9588320Y-13149509D01*
X9588320Y-13149509D02*
X9597844Y-13168556D01*
X9597844Y-13168556D02*
X9607368Y-13206651D01*
X9607368Y-13206651D02*
X9607368Y-13254271D01*
X9607368Y-13254271D02*
X9597844Y-13292366D01*
X9597844Y-13292366D02*
X9588320Y-13311413D01*
X9588320Y-13311413D02*
X9578796Y-13320937D01*
X9578796Y-13320937D02*
X9559749Y-13330461D01*
X9559749Y-13330461D02*
X9540701Y-13330461D01*
X9540701Y-13330461D02*
X9521653Y-13320937D01*
X9521653Y-13320937D02*
X9512130Y-13311413D01*
X9512130Y-13311413D02*
X9502606Y-13292366D01*
X9502606Y-13292366D02*
X9493082Y-13254271D01*
X9493082Y-13254271D02*
X9493082Y-13206651D01*
X9493082Y-13206651D02*
X9502606Y-13168556D01*
X9502606Y-13168556D02*
X9512130Y-13149509D01*
X9512130Y-13149509D02*
X9521653Y-13139985D01*
X9521653Y-13139985D02*
X9540701Y-13130461D01*
X9731177Y-13130461D02*
X9750225Y-13130461D01*
X9750225Y-13130461D02*
X9769272Y-13139985D01*
X9769272Y-13139985D02*
X9778796Y-13149509D01*
X9778796Y-13149509D02*
X9788320Y-13168556D01*
X9788320Y-13168556D02*
X9797844Y-13206651D01*
X9797844Y-13206651D02*
X9797844Y-13254271D01*
X9797844Y-13254271D02*
X9788320Y-13292366D01*
X9788320Y-13292366D02*
X9778796Y-13311413D01*
X9778796Y-13311413D02*
X9769272Y-13320937D01*
X9769272Y-13320937D02*
X9750225Y-13330461D01*
X9750225Y-13330461D02*
X9731177Y-13330461D01*
X9731177Y-13330461D02*
X9712130Y-13320937D01*
X9712130Y-13320937D02*
X9702606Y-13311413D01*
X9702606Y-13311413D02*
X9693082Y-13292366D01*
X9693082Y-13292366D02*
X9683558Y-13254271D01*
X9683558Y-13254271D02*
X9683558Y-13206651D01*
X9683558Y-13206651D02*
X9693082Y-13168556D01*
X9693082Y-13168556D02*
X9702606Y-13149509D01*
X9702606Y-13149509D02*
X9712130Y-13139985D01*
X9712130Y-13139985D02*
X9731177Y-13130461D01*
X9874034Y-13130461D02*
X9874034Y-13168556D01*
X9950225Y-13130461D02*
X9950225Y-13168556D01*
X10245463Y-13406651D02*
X10235939Y-13397128D01*
X10235939Y-13397128D02*
X10216892Y-13368556D01*
X10216892Y-13368556D02*
X10207368Y-13349509D01*
X10207368Y-13349509D02*
X10197844Y-13320937D01*
X10197844Y-13320937D02*
X10188320Y-13273318D01*
X10188320Y-13273318D02*
X10188320Y-13235223D01*
X10188320Y-13235223D02*
X10197844Y-13187604D01*
X10197844Y-13187604D02*
X10207368Y-13159032D01*
X10207368Y-13159032D02*
X10216892Y-13139985D01*
X10216892Y-13139985D02*
X10235939Y-13111413D01*
X10235939Y-13111413D02*
X10245463Y-13101890D01*
X10426415Y-13330461D02*
X10312130Y-13330461D01*
X10369272Y-13330461D02*
X10369272Y-13130461D01*
X10369272Y-13130461D02*
X10350225Y-13159032D01*
X10350225Y-13159032D02*
X10331177Y-13178080D01*
X10331177Y-13178080D02*
X10312130Y-13187604D01*
X10502606Y-13149509D02*
X10512130Y-13139985D01*
X10512130Y-13139985D02*
X10531177Y-13130461D01*
X10531177Y-13130461D02*
X10578796Y-13130461D01*
X10578796Y-13130461D02*
X10597844Y-13139985D01*
X10597844Y-13139985D02*
X10607368Y-13149509D01*
X10607368Y-13149509D02*
X10616892Y-13168556D01*
X10616892Y-13168556D02*
X10616892Y-13187604D01*
X10616892Y-13187604D02*
X10607368Y-13216175D01*
X10607368Y-13216175D02*
X10493082Y-13330461D01*
X10493082Y-13330461D02*
X10616892Y-13330461D01*
X10854987Y-13330461D02*
X10854987Y-13130461D01*
X10940701Y-13330461D02*
X10940701Y-13225699D01*
X10940701Y-13225699D02*
X10931177Y-13206651D01*
X10931177Y-13206651D02*
X10912130Y-13197128D01*
X10912130Y-13197128D02*
X10883558Y-13197128D01*
X10883558Y-13197128D02*
X10864511Y-13206651D01*
X10864511Y-13206651D02*
X10854987Y-13216175D01*
X11064511Y-13330461D02*
X11045463Y-13320937D01*
X11045463Y-13320937D02*
X11035939Y-13311413D01*
X11035939Y-13311413D02*
X11026415Y-13292366D01*
X11026415Y-13292366D02*
X11026415Y-13235223D01*
X11026415Y-13235223D02*
X11035939Y-13216175D01*
X11035939Y-13216175D02*
X11045463Y-13206651D01*
X11045463Y-13206651D02*
X11064511Y-13197128D01*
X11064511Y-13197128D02*
X11093082Y-13197128D01*
X11093082Y-13197128D02*
X11112130Y-13206651D01*
X11112130Y-13206651D02*
X11121654Y-13216175D01*
X11121654Y-13216175D02*
X11131177Y-13235223D01*
X11131177Y-13235223D02*
X11131177Y-13292366D01*
X11131177Y-13292366D02*
X11121654Y-13311413D01*
X11121654Y-13311413D02*
X11112130Y-13320937D01*
X11112130Y-13320937D02*
X11093082Y-13330461D01*
X11093082Y-13330461D02*
X11064511Y-13330461D01*
X11245463Y-13330461D02*
X11226415Y-13320937D01*
X11226415Y-13320937D02*
X11216892Y-13301890D01*
X11216892Y-13301890D02*
X11216892Y-13130461D01*
X11397844Y-13320937D02*
X11378796Y-13330461D01*
X11378796Y-13330461D02*
X11340701Y-13330461D01*
X11340701Y-13330461D02*
X11321653Y-13320937D01*
X11321653Y-13320937D02*
X11312130Y-13301890D01*
X11312130Y-13301890D02*
X11312130Y-13225699D01*
X11312130Y-13225699D02*
X11321653Y-13206651D01*
X11321653Y-13206651D02*
X11340701Y-13197128D01*
X11340701Y-13197128D02*
X11378796Y-13197128D01*
X11378796Y-13197128D02*
X11397844Y-13206651D01*
X11397844Y-13206651D02*
X11407368Y-13225699D01*
X11407368Y-13225699D02*
X11407368Y-13244747D01*
X11407368Y-13244747D02*
X11312130Y-13263794D01*
X11483558Y-13320937D02*
X11502606Y-13330461D01*
X11502606Y-13330461D02*
X11540701Y-13330461D01*
X11540701Y-13330461D02*
X11559749Y-13320937D01*
X11559749Y-13320937D02*
X11569273Y-13301890D01*
X11569273Y-13301890D02*
X11569273Y-13292366D01*
X11569273Y-13292366D02*
X11559749Y-13273318D01*
X11559749Y-13273318D02*
X11540701Y-13263794D01*
X11540701Y-13263794D02*
X11512130Y-13263794D01*
X11512130Y-13263794D02*
X11493082Y-13254271D01*
X11493082Y-13254271D02*
X11483558Y-13235223D01*
X11483558Y-13235223D02*
X11483558Y-13225699D01*
X11483558Y-13225699D02*
X11493082Y-13206651D01*
X11493082Y-13206651D02*
X11512130Y-13197128D01*
X11512130Y-13197128D02*
X11540701Y-13197128D01*
X11540701Y-13197128D02*
X11559749Y-13206651D01*
X11635939Y-13406651D02*
X11645463Y-13397128D01*
X11645463Y-13397128D02*
X11664511Y-13368556D01*
X11664511Y-13368556D02*
X11674034Y-13349509D01*
X11674034Y-13349509D02*
X11683558Y-13320937D01*
X11683558Y-13320937D02*
X11693082Y-13273318D01*
X11693082Y-13273318D02*
X11693082Y-13235223D01*
X11693082Y-13235223D02*
X11683558Y-13187604D01*
X11683558Y-13187604D02*
X11674034Y-13159032D01*
X11674034Y-13159032D02*
X11664511Y-13139985D01*
X11664511Y-13139985D02*
X11645463Y-13111413D01*
X11645463Y-13111413D02*
X11635939Y-13101890D01*
X11997844Y-13406651D02*
X11988320Y-13397128D01*
X11988320Y-13397128D02*
X11969273Y-13368556D01*
X11969273Y-13368556D02*
X11959749Y-13349509D01*
X11959749Y-13349509D02*
X11950225Y-13320937D01*
X11950225Y-13320937D02*
X11940701Y-13273318D01*
X11940701Y-13273318D02*
X11940701Y-13235223D01*
X11940701Y-13235223D02*
X11950225Y-13187604D01*
X11950225Y-13187604D02*
X11959749Y-13159032D01*
X11959749Y-13159032D02*
X11969273Y-13139985D01*
X11969273Y-13139985D02*
X11988320Y-13111413D01*
X11988320Y-13111413D02*
X11997844Y-13101890D01*
X12074034Y-13197128D02*
X12074034Y-13330461D01*
X12074034Y-13216175D02*
X12083558Y-13206651D01*
X12083558Y-13206651D02*
X12102606Y-13197128D01*
X12102606Y-13197128D02*
X12131177Y-13197128D01*
X12131177Y-13197128D02*
X12150225Y-13206651D01*
X12150225Y-13206651D02*
X12159749Y-13225699D01*
X12159749Y-13225699D02*
X12159749Y-13330461D01*
X12283558Y-13330461D02*
X12264511Y-13320937D01*
X12264511Y-13320937D02*
X12254987Y-13311413D01*
X12254987Y-13311413D02*
X12245463Y-13292366D01*
X12245463Y-13292366D02*
X12245463Y-13235223D01*
X12245463Y-13235223D02*
X12254987Y-13216175D01*
X12254987Y-13216175D02*
X12264511Y-13206651D01*
X12264511Y-13206651D02*
X12283558Y-13197128D01*
X12283558Y-13197128D02*
X12312130Y-13197128D01*
X12312130Y-13197128D02*
X12331177Y-13206651D01*
X12331177Y-13206651D02*
X12340701Y-13216175D01*
X12340701Y-13216175D02*
X12350225Y-13235223D01*
X12350225Y-13235223D02*
X12350225Y-13292366D01*
X12350225Y-13292366D02*
X12340701Y-13311413D01*
X12340701Y-13311413D02*
X12331177Y-13320937D01*
X12331177Y-13320937D02*
X12312130Y-13330461D01*
X12312130Y-13330461D02*
X12283558Y-13330461D01*
X12407368Y-13197128D02*
X12483558Y-13197128D01*
X12435939Y-13130461D02*
X12435939Y-13301890D01*
X12435939Y-13301890D02*
X12445463Y-13320937D01*
X12445463Y-13320937D02*
X12464511Y-13330461D01*
X12464511Y-13330461D02*
X12483558Y-13330461D01*
X12702606Y-13197128D02*
X12702606Y-13397128D01*
X12702606Y-13206651D02*
X12721654Y-13197128D01*
X12721654Y-13197128D02*
X12759749Y-13197128D01*
X12759749Y-13197128D02*
X12778796Y-13206651D01*
X12778796Y-13206651D02*
X12788320Y-13216175D01*
X12788320Y-13216175D02*
X12797844Y-13235223D01*
X12797844Y-13235223D02*
X12797844Y-13292366D01*
X12797844Y-13292366D02*
X12788320Y-13311413D01*
X12788320Y-13311413D02*
X12778796Y-13320937D01*
X12778796Y-13320937D02*
X12759749Y-13330461D01*
X12759749Y-13330461D02*
X12721654Y-13330461D01*
X12721654Y-13330461D02*
X12702606Y-13320937D01*
X12912130Y-13330461D02*
X12893082Y-13320937D01*
X12893082Y-13320937D02*
X12883558Y-13301890D01*
X12883558Y-13301890D02*
X12883558Y-13130461D01*
X13074035Y-13330461D02*
X13074035Y-13225699D01*
X13074035Y-13225699D02*
X13064511Y-13206651D01*
X13064511Y-13206651D02*
X13045463Y-13197128D01*
X13045463Y-13197128D02*
X13007368Y-13197128D01*
X13007368Y-13197128D02*
X12988320Y-13206651D01*
X13074035Y-13320937D02*
X13054987Y-13330461D01*
X13054987Y-13330461D02*
X13007368Y-13330461D01*
X13007368Y-13330461D02*
X12988320Y-13320937D01*
X12988320Y-13320937D02*
X12978796Y-13301890D01*
X12978796Y-13301890D02*
X12978796Y-13282842D01*
X12978796Y-13282842D02*
X12988320Y-13263794D01*
X12988320Y-13263794D02*
X13007368Y-13254271D01*
X13007368Y-13254271D02*
X13054987Y-13254271D01*
X13054987Y-13254271D02*
X13074035Y-13244747D01*
X13140701Y-13197128D02*
X13216892Y-13197128D01*
X13169273Y-13130461D02*
X13169273Y-13301890D01*
X13169273Y-13301890D02*
X13178796Y-13320937D01*
X13178796Y-13320937D02*
X13197844Y-13330461D01*
X13197844Y-13330461D02*
X13216892Y-13330461D01*
X13359749Y-13320937D02*
X13340701Y-13330461D01*
X13340701Y-13330461D02*
X13302606Y-13330461D01*
X13302606Y-13330461D02*
X13283558Y-13320937D01*
X13283558Y-13320937D02*
X13274035Y-13301890D01*
X13274035Y-13301890D02*
X13274035Y-13225699D01*
X13274035Y-13225699D02*
X13283558Y-13206651D01*
X13283558Y-13206651D02*
X13302606Y-13197128D01*
X13302606Y-13197128D02*
X13340701Y-13197128D01*
X13340701Y-13197128D02*
X13359749Y-13206651D01*
X13359749Y-13206651D02*
X13369273Y-13225699D01*
X13369273Y-13225699D02*
X13369273Y-13244747D01*
X13369273Y-13244747D02*
X13274035Y-13263794D01*
X13540701Y-13330461D02*
X13540701Y-13130461D01*
X13540701Y-13320937D02*
X13521654Y-13330461D01*
X13521654Y-13330461D02*
X13483558Y-13330461D01*
X13483558Y-13330461D02*
X13464511Y-13320937D01*
X13464511Y-13320937D02*
X13454987Y-13311413D01*
X13454987Y-13311413D02*
X13445463Y-13292366D01*
X13445463Y-13292366D02*
X13445463Y-13235223D01*
X13445463Y-13235223D02*
X13454987Y-13216175D01*
X13454987Y-13216175D02*
X13464511Y-13206651D01*
X13464511Y-13206651D02*
X13483558Y-13197128D01*
X13483558Y-13197128D02*
X13521654Y-13197128D01*
X13521654Y-13197128D02*
X13540701Y-13206651D01*
X13616892Y-13406651D02*
X13626416Y-13397128D01*
X13626416Y-13397128D02*
X13645463Y-13368556D01*
X13645463Y-13368556D02*
X13654987Y-13349509D01*
X13654987Y-13349509D02*
X13664511Y-13320937D01*
X13664511Y-13320937D02*
X13674035Y-13273318D01*
X13674035Y-13273318D02*
X13674035Y-13235223D01*
X13674035Y-13235223D02*
X13664511Y-13187604D01*
X13664511Y-13187604D02*
X13654987Y-13159032D01*
X13654987Y-13159032D02*
X13645463Y-13139985D01*
X13645463Y-13139985D02*
X13626416Y-13111413D01*
X13626416Y-13111413D02*
X13616892Y-13101890D01*
M02*
